<?xml version="1.0" encoding="utf-8"?>
<!-- Generator: Adobe Illustrator 16.0.3, SVG Export Plug-In . SVG Version: 6.00 Build 0)  -->
<!DOCTYPE svg PUBLIC "-//W3C//DTD SVG 1.0//EN" "http://www.w3.org/TR/2001/REC-SVG-20010904/DTD/svg10.dtd" [
	<!ENTITY ns_flows "http://ns.adobe.com/Flows/1.0/">
	<!ENTITY ns_extend "http://ns.adobe.com/Extensibility/1.0/">
	<!ENTITY ns_ai "http://ns.adobe.com/AdobeIllustrator/10.0/">
	<!ENTITY ns_graphs "http://ns.adobe.com/Graphs/1.0/">
]>
<svg version="1.0" id="Capa_1" xmlns:x="&ns_extend;" xmlns:i="&ns_ai;" xmlns:graph="&ns_graphs;"
	 xmlns="http://www.w3.org/2000/svg" xmlns:xlink="http://www.w3.org/1999/xlink" xmlns:a="http://ns.adobe.com/AdobeSVGViewerExtensions/3.0/"
	 x="0px" y="0px" width="897.943px" height="349.594px" viewBox="0 0 897.943 349.594" enable-background="new 0 0 897.943 349.594"
	 xml:space="preserve">
<metadata><?xpacket begin="﻿" id="W5M0MpCehiHzreSzNTczkc9d"?>
<x:xmpmeta xmlns:x="adobe:ns:meta/" x:xmptk="Adobe XMP Core 5.3-c011 66.145661, 2012/02/06-14:56:27        ">
   <rdf:RDF xmlns:rdf="http://www.w3.org/1999/02/22-rdf-syntax-ns#">
      <rdf:Description rdf:about=""
            xmlns:xmp="http://ns.adobe.com/xap/1.0/"
            xmlns:xmpGImg="http://ns.adobe.com/xap/1.0/g/img/">
         <xmp:CreatorTool>Adobe Illustrator CS6 (Windows)</xmp:CreatorTool>
         <xmp:CreateDate>2020-04-04T21:33:21-06:00</xmp:CreateDate>
         <xmp:Thumbnails>
            <rdf:Alt>
               <rdf:li rdf:parseType="Resource">
                  <xmpGImg:width>256</xmpGImg:width>
                  <xmpGImg:height>128</xmpGImg:height>
                  <xmpGImg:format>JPEG</xmpGImg:format>
                  <xmpGImg:image>/9j/4AAQSkZJRgABAgEASABIAAD/7QAsUGhvdG9zaG9wIDMuMAA4QklNA+0AAAAAABAASAAAAAEA&#xA;AQBIAAAAAQAB/+4ADkFkb2JlAGTAAAAAAf/bAIQABgQEBAUEBgUFBgkGBQYJCwgGBggLDAoKCwoK&#xA;DBAMDAwMDAwQDA4PEA8ODBMTFBQTExwbGxscHx8fHx8fHx8fHwEHBwcNDA0YEBAYGhURFRofHx8f&#xA;Hx8fHx8fHx8fHx8fHx8fHx8fHx8fHx8fHx8fHx8fHx8fHx8fHx8fHx8fHx8f/8AAEQgAgAEAAwER&#xA;AAIRAQMRAf/EAaIAAAAHAQEBAQEAAAAAAAAAAAQFAwIGAQAHCAkKCwEAAgIDAQEBAQEAAAAAAAAA&#xA;AQACAwQFBgcICQoLEAACAQMDAgQCBgcDBAIGAnMBAgMRBAAFIRIxQVEGE2EicYEUMpGhBxWxQiPB&#xA;UtHhMxZi8CRygvElQzRTkqKyY3PCNUQnk6OzNhdUZHTD0uIIJoMJChgZhJRFRqS0VtNVKBry4/PE&#xA;1OT0ZXWFlaW1xdXl9WZ2hpamtsbW5vY3R1dnd4eXp7fH1+f3OEhYaHiImKi4yNjo+Ck5SVlpeYmZ&#xA;qbnJ2en5KjpKWmp6ipqqusra6voRAAICAQIDBQUEBQYECAMDbQEAAhEDBCESMUEFURNhIgZxgZEy&#xA;obHwFMHR4SNCFVJicvEzJDRDghaSUyWiY7LCB3PSNeJEgxdUkwgJChgZJjZFGidkdFU38qOzwygp&#xA;0+PzhJSktMTU5PRldYWVpbXF1eX1RlZmdoaWprbG1ub2R1dnd4eXp7fH1+f3OEhYaHiImKi4yNjo&#xA;+DlJWWl5iZmpucnZ6fkqOkpaanqKmqq6ytrq+v/aAAwDAQACEQMRAD8A9U4q7FXYq7FXYq7FXYq7&#xA;FXYq7FXYq7FXYq7FXYq7FXYq7FXYq7FXYq7FXYq7FXYq7FXYq7FXYq7FXYq7FXYq7FXYq7FXYqhN&#xA;R1jSNMj9XUr63so/57mVIl+9yuKsYvvzm/Kaxr6/m7SSV+0sV3FMRvSlImc1xVI7n/nJj8j7Y0k8&#xA;0Rsakfura8lG3vHC2Koqz/5yF/Je7fhF5rtFO28wlgG/vKiDFWWaP5z8oa1QaPrmn6iW6La3UMx+&#xA;5GY4qnGKuxV2KuxV2KuxV2KuxV2KuxV2KuxVLNX80+WNFFdY1ey00eN5cRQdd/8AdjLirEr38/8A&#xA;8mrMkS+bLFiCAfRZ5+v/ABiV8Vatv+cgPyZuApj82WS8zQeoXi9t/UVafTiqbWf5s/ldeEC383aO&#xA;7GoCfXrdXNNz8LOG/DFWRWOp6bfoZLG7hu0HVoJEkH3qTiqJxV2KuxV2KuxV2KuxVh3nX83/AMuf&#xA;JgZdf1u3gu1FfqERM90fD9zEHda9iwA98VeEecP+c20HOHyfoHL+S91VqD/pHgb/AJm/RirybUvz&#xA;o/Pjz7eNY2epajO7gldN0SJ4jx7jjar6rj/WY4qitI/5xk/PDzDKt1d6X9SFx8TXeqXMaPv3dA0k&#xA;4+lMVZdp/wDzhL59kI/SGu6XbKa19D6xOR4bNHD+vFUzH/ODus+iSfNluJq/Cgs34keJb1a/8Liq&#xA;Fl/5wp85208c1lrul3np/EYruO4iRmHRWCLKeJ74qqXn/OLvmqC2K3nlLTdQcU4v5e1m5s5jQb1/&#xA;Ssd1CanwC/RiqCudH86+ROU1p5l82eTY4FFF1q0bUNIDnorXdg91CfptsVZJon/OTX5j+XoVn82a&#xA;VZeaNAVgj+YdClQ8a95RGWRGP7McqQtir3ryB+aPkrz7YG78uags7xgG5spB6dzDX/fkR3p/lCqn&#xA;scVZXirsVdirsVdirsVY/wCcvP3lDyZpv6Q8yanFp8BqIkclpZSP2Yol5O5/1R88VfOHnr/nNW6a&#xA;SW18k6OscQJVNS1OrOw8Vt4yAvtyc+64q8zTzN/zkd+Z0hFnc6zqdtI3FhZK1rZA/wArtCIbcU/y&#xA;zirJPKf/ADij+bbym71PTtHidiD6Or3U0hBrUtSxLqxPSjMcVem2f/ONnnUpSbUPKlkWDfDB5cs7&#xA;v06moCtdJVvm2Kq5/wCcZPNJj/5SjQOR2I/wdooFPnwriqCuP+cafOyIojuvKd/w+ELcaHDaclpT&#xA;mzWqhuXsNsVY1ef848/mLpcqXUPkry3qUsdKPo+parZXA26o1xcwxKf9h19tsVQkvmv8x/I4lbUb&#xA;Xzt5Zgh3Ny88HmLTk/yVW6hhQL8rnFUbY/8AOZGraVPDHf29p5msXH+9FvHNpd4g2/von+swFutB&#xA;G5HuMVexeQv+ckfyt84ultFqB0jU3oFsNT4wMzHakcnJonqegD8j4Yq9RxV2KvHvzQ/5ye8h+R7u&#xA;50m3WTXNftiUmsrYhIYpB1Sa4YEKR3CKxB2IGKvmPz5/zkx+aXm0yQLqH6E0x9hZaYWhJXpR56mZ&#xA;vccgvtirDvIX5feavP3mFNH0G39e5f8AeXNzISsMEZNGlmfei7+5PYE4q+sfIv8Azh55A0ZYrnzN&#xA;PN5ivwKvCSbezDbHaOM+o1OnxSUP8uKvcNH0PRdFs1stHsLfTrNTVbe0iSGOvjxjCiuKo3FXYq7F&#xA;XYq7FXEAih6Yq8184fkH5J1y6Oq6Qr+VvMihjFrGkUgJY1qJ4VpFMrE/HUBmG3LFXzp5y8k6r5F8&#xA;x29xrD/4P18Of0R540dHXR7xuJPC7tYVLWshp8XpLxIrWIj48VZnaf8AOTX5o+VNOjfzn5Xt9dsK&#xA;BYvMWl3CC2lFaBzNbrc2zM38o4fIYqhNS/5zjmKhdM8pKjU3kub0sK+HBIV/4liqQzf85s/mCQ/o&#xA;6HpKE/YLi5enzpMlfwxVG3//ADll+cGmW0N5ead5WltpXCCO0uUuZqlS28UGoTyIKD7TJSu3XFUf&#xA;5e/5zX1y4vILTUPKUN3NcOsUS2Ny8TmRyFUKkiS1qTSnLFVv5of85ZefrIPpGmeWz5XvpEJNzfsL&#xA;i6VW6MkJREQ/64ce2KvGPKXkn8yfzd8zzNbvNqd3VTqOsX0jmGBWPw+pK3I+PFFBPgKA0VfWX5cf&#xA;84sflz5UijuNXgXzLrA3e4vkBtlPhFaksn0ycz4EdMVeyRxxxRrHGoSNAFRFACgDYAAdBiq7FXYq&#xA;7FXYq7FXYq84/MH/AJx//LPztHJJe6Ymn6o9WGq6eFt5yxpvJQFJen+7FJ8CMVfGf5v/AJMeZfyz&#xA;1aOC/Zb3Sbwt+jtViUqknHqjoSfTkAIJWp9id8VR/wCW3/ORX5j+RvStYbz9K6LHQfoq/LSIqjtD&#xA;JX1IqDoAeP8AknFX1p+Vf/OQ3kT8wXi0+3kbS/MLqWOkXVOTFRV/QlHwSgCp7NTfiMVfDfn7y9rX&#xA;l3znrGj60WfUra6k9edhQzc25rMPaVWDj54qx/FX3/8A842fl5a+T/yz0+Zogur67Gmo6lKRR/3q&#xA;8oIjXcCKJgOP8xY98Veq4q7FXYq7FXYq7FXYq7FXYqlfmjyvofmjQ7rQ9ctVvNNvF4SxP1B6q6MN&#xA;1dTurDcHFX54/mz+Wup/l35yutAvGM1vQT6beUoJ7VyQj07MKFXHZge1DirG9F0PWNc1ODS9Hs5b&#xA;/ULk8YbaBS7sRudh2A3J6DFXq9l/ziV+dFzCskun2toW/wB1z3cRYDxPpGQfjiqvqH/OIP5x2tu0&#xA;sMNhfOoqILe6Ac/L1lhT/hsVeT+YvLHmHy1qT6Zr2nz6bfoAxguEKEqSQGUnZlNNmXbFU3/LH8vd&#xA;V8/ecbLy5p9YxMTLe3XHktvbIR6krD2qAo7sQO+Kv0P8m+TtA8n+XrXQdCthb2NqoFdvUkenxSys&#xA;AOUj9Sf4bYqnWKuxV2KuxV2KuxV2KuxV2KsS/NbyJaeePIeq+XpkU3E8LSadI3+6ruIFoHBoSPj+&#xA;FqdVJHfFX5skFSQRQjYg9QcVZ3+Rfl3WNe/Nfy3baVySW1vYb64nWtIre1cSyuxHsvEV6kgd8VfV&#xA;3/OSH5GR+fdG/TmixhfNmlxERKNvrkC1YwN/ljcxnxPE9ahV8S6DpT6pr+naSAQ99dw2oABqDNII&#xA;+nWvxYq/UNESNFjRQqIAqqNgANgBireKuxV2KuxV2KuxV2KuxV2KuxV4T/zmB5Lg1n8tF8wRoPr/&#xA;AJcnSUPQljbXLLDMm3+WY39uJxVj3/OEmh6MPLev66FV9ae9Fi7EAvHapEkq8T1AkkkavjxHhir6&#xA;XxV2Kvn3/nM/Q9HuPy7sNYuGSLVbC/SGyYgc5UnRvVhH/ACT/Y++KqP/ADhh5NisPJOo+apox9c1&#xA;q5MFvIaE/VbT4fhPblMX5DvxGKvojFXYq7FXYq7FXYq7FXYq7FXYq7FX5nfmLYx2f5ieZ7CBAsdt&#xA;q99BFGo2AjuXRQAPlir7f/5x/wDyesvy88pRPcxK3mbU40l1a4IBaOo5LbIeyx9/5mqfCir1LFXw&#xA;ZrOlWth/zlZFYwRenbnzZZuIugAnvIpTTpRfj29sVfeeKuxV2KuxV2KuxV2KuxV2KuxV2KsR/N+C&#xA;Ob8qfOKSCqjRb9wP8qO2d1/4ZRir5Q/5w68w39h+aUmjxsxsdYs5luIh9n1LcerHIRXqoDKD/lYq&#xA;+3cVdir4v/5zO8zald/mBYeX3JTTdLsknhj3o810SZJD/sUVR4UPjir6M/5x5sI7H8l/KkMZqr2h&#xA;nO1PiuJXmb8ZMVeiYq7FXYq7FXYq7FXYq7FXYq7FXYq+DdE0eHXf+crJ7Jl9WB/NV9cuhFQyW13L&#xA;cEEeBWLfFX3lirsVfEn5yKmif85W2+oyH07f9J6Nf8iaAKi2/NqsafajY4q+28VdirsVdirsVdir&#xA;sVdirsVdirsVYn+bbqn5VecixoDomoj6WtZAPxOKvmD/AJwq0H61581nWmWsel6eIVPhLdyDif8A&#xA;gIXGKvsvFXYq+Nf+c2NIaDz7omqgUjvtM9Cvi9tO5Y/8DOuKvoD/AJxvvzffkn5WmZuRjglt+gFB&#xA;b3MsIG3smKvSsVdirsVdirsVdirsVdirsVdirsVfF3/OMUJ8x/8AOQOqeYCKrBHqOphj8XxXUoiA&#xA;5EDci5OKvtHFXYq+Qf8AnNjy9LbeavL3mWKoS9tHsnZduMlpJ6imviy3G3+rir6u8uaxDrfl7S9Z&#xA;hFIdTtILyMf5M8ayD8GxVMMVdirsVdirsVdirsVdirsVdiryf/nKPzAmjfkxrK8+E+qNBp9uP5jL&#xA;IGkX/kTHJirEv+cLPLzWf5f6rrUi8X1a/wCEZ/mhtIwqn/kZJIMVfQuKuxV8+/8AOZ/lhtQ/L3Tt&#xA;ejXlJol6FlP8sF4ojY/8jUiGKr/+cMfMa3/5b3+ivIGn0a/fjH3W3ulEiH6ZRLir3/FXYq7FXYq7&#xA;FXYq7FXYq7FXYqxz8x/MC+XfIPmHW+QR7GwuJYC2wM3pkRL/ALKQqMVeCf8AOEPl1o9J8y+Y5F2u&#xA;Z4dPt2/4wIZZfv8AWT7sVfT2KuxV5B/zlT5RPmD8or+4hj53ehSR6nFTrwjqk/0CGRmP+rirf/OK&#xA;3mtde/J/Trd3L3ehyS6bccvCM+pDT2EMqL9BxV69irsVdirsVdirsVdirsVdirsVfIP/ADmd50bU&#xA;vM+keSbFjKNMT63exR1YtdXQCwxlR+0kXxD/AIyYq+lPys8of4P/AC90Ly6wAnsbVfrVOn1iUmWe&#xA;nt6rtTFWVYq7FUi89eVrbzX5P1fy5cUEep2skCu3RJCKxSdD9iQK30Yq+Ov+cX/NVx5J/N+Xy3q/&#xA;K2j1cvpF3CxoI76GQ+jyH83qK0Q/18VfcWKuxV2KuxV2KuxV2KuxV2KuxV8//wDOZXnFdM/L6z8t&#xA;xPS68wXQMqf8utmVlfft++MVPHfFXon5G+TH8n/ldoekTp6d80P1u/B6i4uT6rq3ugYJ/scVZ5ir&#xA;sVUry0try0ns7qMS21zG0M8TdGjkUqyn5g4q+SfyM1O5/Kn89NZ/LrVpCum6vMLW1mk2BlWr2Mv/&#xA;AD2jk4UH7TL4Yq+u8VdirsVdirsVdirsVdirsVSDz7500nyX5T1HzHqjf6PYxlo4a0aaY7RQp1+K&#xA;R6D26nYYq+Qv+cevLGqfmZ+cl15w10evbabOdW1ByKo11I5NtCta0AYcgP5Upir7cxV2KuxV2Kvj&#xA;j/nLn8trny/5stvP2kK0Vnq0ireSRfCYNQiFVkBHT1UTkKftKx74q+hvyP8AzQtfzD8i2ups6DWb&#xA;QC21q3XYrcIP7wLQUSYfGtNhutaqcVeg4q7FXYq7FXYq7FXYq7FWmZVUsxAUCpJ2AAxV8naJEfzw&#xA;/wCcjJ9bZfX8meU+AgJHwSx27sbdff6xPyl3H92OJxV9ZYq7FXYq7FXzz/zlr+Vlxq+iwefNERhr&#xA;OgJS/wDSqJHs1bmJVK78rd6tX+Usf2RirMv+cffzktPzE8qpFeSKnmnS0WPVrc0BlA+FbpANisn7&#xA;VPstUdONVXqmKuxV2KuxV2KuxV2KqN7e2ljaTXl5MltaWyNLcXErBI440HJmZmoAABUk4q+Hvzu/&#xA;NPWfzg862XlnyrDLcaJBcejo9ooKtd3DVU3Lq3HiONeHL7KVJpVsVfWH5PflnY/l35KtdDhKy37/&#xA;AOkardrX97dOAGIrvwQAInsK9ScVZvirsVdirsVSbzh5T0fzb5av/L2rxerY6hEY3p9pG6pIhPR4&#xA;3AZfcYq+IdI1Hzv/AM4+fmrJBdxma12ju4RUQahYM1VliJ2DDqp/Yaqn9oFV9veUPN+gebtAtde0&#xA;G6F1p90Kqw2dHH2o5F/Zde4/hiqc4q7FXYq7FXYq7FXYq+cv+ckPzkuLmT/lVvkcm/8AMGrMLTVJ&#xA;bYhvTWQ8DZoQf71+kldkXbqTxVep/kx+WNn+Xfki10VSsupSn6zq10v+7LlwKgE/sIAEX2FepOKs&#xA;6xV2KuxV2KtOiOjI6hkYEMpFQQdiCDir5N/Mb8s9Z/JvzwPzE8n2TXXlSRiby1gJWaw9QjmqsA1I&#xA;ifsFlZB9h1IpyVe7/l7+c3krznpSXdlqEazKEF1DLSF4nfaksbM3p1bZTyKMTRXY1AVZ5irsVdir&#xA;sVdirHvOv5geUPJWlnUvMmpRWMJB9CJjymmZaVWGJau53FaDbqaDFXx7+Zv5zeevzn1uLyn5Vsbi&#xA;HRZpP9G0mKhnuSpqJbtgeIVacuNeC9STQHFX0X+Rf5CaN+XGni+uil95ru4wt5fUqkKncwW9RUL/&#xA;ADN1b2FAFXrGKuxV2KuxV2KuxVhX5q/lP5a/MfQP0bqyeleW/N9M1KMVltpWFCR05I1BzQ7H2IBC&#xA;r5CRvzb/AOcePOD/AA1sLtqEkM+nahEnSh2KyKD7Ov8AqndV9N/lv/zkp+W/nOGKCa8TQtaYAPpt&#xA;+6oC5oKQznjHLUmgGzH+XFXq4IIqOmKuxV2KuxVjHnH8zfIXk2EyeY9btrGQAMtqW9S5YHYFLePn&#xA;Kw9wtMVfOHnr/nKDzl55vR5T/K3TLq1a+JiW+AB1CQHY+kqEpbqN6vyJA3qlMVen/kH/AM4+WfkC&#xA;H9O64yX3nC6QhpR8Udojj444iftO1aPJ36DavJV7PirsVdirsVdirsVWyRxyxtHIoeNwVdGAKspF&#xA;CCD1BxV8+/mN/wA4m6bfXz67+Xt+fLWsVZ/qYZ0tSxG/pPH+8grX9nkvYAYq8jXWf+cn/wAoz6Fw&#xA;l/8AoiEg8ZoxqOnhB0VJR6ghX/JR0xVkmi/85v8AmOGLjrXlizvZK/3lncSWgp/qyLdb/TirKLf/&#xA;AJze8qNEDc+Wr+OXeqRzQyL7fE3pn8MVQ+o/85w6Ii/7jfKtzcNT/j4uo4AD/sI564qw7UP+cpfz&#xA;r85XTaZ5N0mOykk/u49PtnvrwKdvidw6U/yhEKYqi/K3/OKv5l+cdRGt/mNq8liJqGVZZfrmouvX&#xA;jUlo4xvtVjT+XFX0x5A/LDyX5C002XlywW3aQD6zeSfvLmcjvLKdz7KKKOwGKsqxV2KuxV2KuxV2&#xA;KuxV2KoHWtD0fXNNm0zWLKG/0+4HGa2uEDo3gaHoR1BG47Yq+cvzB/5wv0u7kkvPI2p/o52qRpV+&#xA;Xkgr4R3C8pUHsyv88VeYf4R/5yg/LQhNOTV4rGAkxjTpDf2dK/a9BDMij/XjGKr7T/nK388tHk9D&#xA;U5ra7mXcpf2SRPSpG4gFt/mMVTWD/nLb879SXhp+lafKxOzW1lcytt1H984/DFVC41f/AJy988AW&#xA;6xa1b28h+EQwLpEZHQgzcbXkv+s5GKpv5O/5wx826hcLdecdWh0yB25y29qfrV05JqwaQ0iQn+ar&#xA;/LFX0v5A/K7yV5CsDaeXNPWB5ABc3sh9S5mp/vyU70/yRRR2GKsrxV2KuxV2KuxV2KuxV2KuxV2K&#xA;pBrP5feRNbdpNX8u6bfzN9qa4tIZJPH7bLy/HFWNTf8AOPP5LzSrI/lS0DKagIZUXrXdUdVP3Yqj&#xA;rP8AJH8orRuUXlDS2Na/vrZJxuKdJQ+Kst0/TNN063Ftp9pDZ2y/Zht41iQfJUAGKonFXYq7FXYq&#xA;7FXYq7FXYq7FXYq7FXYq7FXYq7FXYq7FXYq7FXYq7FXYq7FXYq7FXYq7FXYq7FXYq7FXYq7FXYq7&#xA;FXYq7FXYq7FXYq7FXYq7FXYq7FXYq7FXYq7FXYq7FXYq7FXYq//Z</xmpGImg:image>
               </rdf:li>
            </rdf:Alt>
         </xmp:Thumbnails>
      </rdf:Description>
      <rdf:Description rdf:about=""
            xmlns:xmpTPg="http://ns.adobe.com/xap/1.0/t/pg/"
            xmlns:stDim="http://ns.adobe.com/xap/1.0/sType/Dimensions#"
            xmlns:xmpG="http://ns.adobe.com/xap/1.0/g/">
         <xmpTPg:MaxPageSize rdf:parseType="Resource">
            <stDim:w>897.943359</stDim:w>
            <stDim:h>349.593750</stDim:h>
            <stDim:unit>Pixels</stDim:unit>
         </xmpTPg:MaxPageSize>
         <xmpTPg:NPages>1</xmpTPg:NPages>
         <xmpTPg:HasVisibleTransparency>False</xmpTPg:HasVisibleTransparency>
         <xmpTPg:HasVisibleOverprint>False</xmpTPg:HasVisibleOverprint>
         <xmpTPg:PlateNames>
            <rdf:Seq>
               <rdf:li>Black</rdf:li>
            </rdf:Seq>
         </xmpTPg:PlateNames>
         <xmpTPg:SwatchGroups>
            <rdf:Seq>
               <rdf:li rdf:parseType="Resource">
                  <xmpG:groupName>Grupo de muestras por defecto</xmpG:groupName>
                  <xmpG:groupType>0</xmpG:groupType>
               </rdf:li>
            </rdf:Seq>
         </xmpTPg:SwatchGroups>
      </rdf:Description>
      <rdf:Description rdf:about=""
            xmlns:dc="http://purl.org/dc/elements/1.1/">
         <dc:format>image/svg+xml</dc:format>
      </rdf:Description>
   </rdf:RDF>
</x:xmpmeta>
                                                                                                    
                                                                                                    
                                                                                                    
                                                                                                    
                                                                                                    
                                                                                                    
                                                                                                    
                                                                                                    
                                                                                                    
                                                                                                    
                                                                                                    
                                                                                                    
                                                                                                    
                                                                                                    
                                                                                                    
                                                                                                    
                                                                                                    
                                                                                                    
                                                                                                    
                                                                                                    
                           
<?xpacket end="w"?>
	</metadata>
<g>
	<path display="none" fill-rule="evenodd" clip-rule="evenodd" fill="#FFFFFF" d="M0,71.966C0,31.298,0-9.371,0-50.045
		c300.339-0.005,600.678-0.005,901.11-0.005c0,150.265,0,300.542,0,450.955c-300.307,0-600.708,0-901.11,0
		c0-108.93,0-217.934,0-326.938c0.396,0.529,0.946,1,1.166,1.593c4.963,13.413,14.196,23.758,23.527,34.248
		c3.982,4.477,6.434,10.762,8.18,16.643c1.472,4.956,0.796,10.527,1.285,15.805c1.464,15.807,2.61,31.538,6.723,47.108
		c7.855,29.74,16.908,58.84,33.239,85.208c9.726,15.703,21.29,29.95,35.782,41.346c27.738,21.812,60.562,30.271,94.887,33.236
		c12.806,1.106,25.9-0.096,38.785-1.176c18.405-1.544,35.632-7.984,52.321-15.387c16.912-7.5,33.119-16.469,46.389-29.806
		c7.497-7.534,15.74-14.491,22.238-22.809c6.919-8.858,13.012-18.606,17.952-28.706c6.631-13.558,13.098-27.45,17.292-41.879
		c5.445-18.733,8.581-38.137,12.718-57.25c2.34-10.81,1.919-20.661-4.417-30.797c-9.58-15.324,0.827-34.214,17.2-38.091
		c10.503-2.488,21.747-1.865,32.663-2.583c9.001-0.591,17.387,1.882,25.759,4.894c10.657,3.835,12.13,13.86,15.665,22.453
		c0.626,1.522-0.133,3.961-0.932,5.657c-2.522,5.355-5.427,10.53-8.059,15.834c-1.036,2.089-2.566,4.375-2.475,6.512
		c0.908,21.2,5.13,41.867,11.113,62.154c6.771,22.963,16.961,44.372,29.875,64.561c11.442,17.888,25.504,33.118,42.533,45.851
		c15.387,11.505,32.118,20.227,50.269,26.194c16.478,5.418,33.422,9.448,50.815,9.076c14.047-0.301,28.167-1.761,42.052-3.979
		c19.985-3.192,39.311-9.171,56.675-19.837c22.157-13.61,40.373-31.362,53.851-53.832c9.954-16.597,19.289-33.43,25.363-51.931
		c8.466-25.787,13.031-52.395,16.69-79.158c2.101-15.363,8.017-28.458,18.628-39.807c4.202-4.495,7.545-10.043,10.281-15.603
		c4.566-9.277,0.662-18.609-8.666-23.322c-11.423-5.771-22.572-12.1-34.124-17.591c-12.585-5.983-25.085-12.675-38.354-16.565
		c-21.754-6.377-43.896-12-66.251-15.595c-21.589-3.472-43.629-4.421-65.518-5.657c-19.524-1.103-38.771,2.113-57.927,5.749
		c-22.457,4.263-44.154,10.77-64.622,21.034c-12.034,6.035-23.864,12.476-35.904,18.495c-8.451,4.226-17.183,5.155-26.627,2.808
		c-7.668-1.907-15.716-2.542-23.641-3.089c-7.925-0.547-15.922-0.657-23.857-0.295c-13.565,0.619-27.318,0.575-40.606,2.959
		c-18.741,3.363-34.983-0.026-50.461-11.086c-9.374-6.698-19.526-12.961-30.246-16.964c-15.316-5.719-31.248-10.425-47.32-13.343
		c-26.76-4.857-53.758-9.18-81.19-6.35c-16.329,1.685-32.827,2.58-48.899,5.662c-16.71,3.204-33.168,8.073-49.422,13.21
		c-16.125,5.095-31.959,11.169-47.73,17.306c-12.223,4.756-24.162,10.242-36.205,15.457c-8.021,3.475-15.997,7.028-17.197,17.333
		C1.18,70.606,0.438,71.268,0,71.966z"/>
	<path fill-rule="evenodd" clip-rule="evenodd" d="M0,71.966c0.438-0.698,1.18-1.36,1.267-2.1
		c1.2-10.305,9.175-13.858,17.197-17.333c12.042-5.215,23.982-10.701,36.205-15.457c15.771-6.136,31.605-12.211,47.73-17.306
		c16.254-5.137,32.711-10.006,49.422-13.21c16.072-3.082,32.57-3.977,48.899-5.662c27.432-2.83,54.43,1.493,81.19,6.35
		c16.072,2.918,32.003,7.624,47.32,13.343c10.72,4.003,20.873,10.266,30.246,16.964c15.478,11.06,31.72,14.45,50.461,11.086
		c13.289-2.384,27.042-2.34,40.606-2.959c7.936-0.362,15.933-0.252,23.857,0.295c7.925,0.547,15.973,1.182,23.641,3.089
		c9.444,2.347,18.176,1.418,26.627-2.808c12.04-6.02,23.87-12.46,35.904-18.495C581.039,17.5,602.736,10.993,625.193,6.73
		c19.156-3.636,38.402-6.851,57.927-5.749c21.889,1.236,43.929,2.185,65.518,5.657c22.355,3.596,44.497,9.218,66.251,15.595
		c13.269,3.891,25.769,10.583,38.354,16.565c11.552,5.491,22.701,11.82,34.124,17.591c9.328,4.713,13.232,14.044,8.666,23.322
		c-2.736,5.56-6.079,11.108-10.281,15.603c-10.611,11.35-16.527,24.444-18.628,39.807c-3.659,26.763-8.225,53.371-16.69,79.158
		c-6.074,18.501-15.409,35.334-25.363,51.931c-13.478,22.47-31.693,40.222-53.851,53.832
		c-17.364,10.666-36.689,16.645-56.675,19.837c-13.885,2.218-28.005,3.678-42.052,3.979c-17.394,0.372-34.338-3.658-50.815-9.076
		c-18.15-5.968-34.882-14.689-50.269-26.194c-17.029-12.732-31.091-27.963-42.533-45.851
		c-12.914-20.188-23.104-41.598-29.875-64.561c-5.983-20.287-10.205-40.954-11.113-62.154c-0.092-2.137,1.438-4.423,2.475-6.512
		c2.632-5.305,5.536-10.479,8.059-15.834c0.799-1.696,1.558-4.135,0.932-5.657c-3.535-8.593-5.008-18.618-15.665-22.453
		c-8.372-3.012-16.758-5.485-25.759-4.894c-10.916,0.718-22.16,0.095-32.663,2.583c-16.374,3.877-26.78,22.768-17.2,38.091
		c6.337,10.136,6.758,19.987,4.417,30.797c-4.138,19.113-7.273,38.516-12.718,57.25c-4.194,14.429-10.661,28.321-17.292,41.879
		c-4.94,10.1-11.032,19.848-17.952,28.706c-6.498,8.317-14.741,15.274-22.238,22.809c-13.271,13.337-29.477,22.306-46.389,29.806
		c-16.688,7.402-33.916,13.843-52.321,15.387c-12.884,1.08-25.979,2.282-38.785,1.176c-34.325-2.965-67.148-11.425-94.887-33.236
		c-14.492-11.396-26.056-25.643-35.782-41.346c-16.332-26.368-25.384-55.468-33.239-85.208c-4.113-15.571-5.259-31.302-6.723-47.108
		c-0.489-5.278,0.187-10.849-1.285-15.805c-1.746-5.88-4.198-12.166-8.18-16.643C15.362,99.318,6.129,88.973,1.166,75.56
		C0.946,74.966,0.396,74.496,0,73.967C0,73.3,0,72.634,0,71.966z M52.928,135.563c0.495,25.571,3.718,50.646,9.974,75.265
		c5.828,22.935,15.398,44.229,29.358,63.546c16.934,23.431,39.508,39.122,66.645,47.81c13.219,4.232,27.2,6.764,41.032,8.277
		c45.716,5.005,87.504-5.269,123.215-35.244c29.141-24.461,47.958-55.988,59.53-91.887c6.914-21.447,8.69-43.658,7.679-66.134
		c-0.74-16.428-4.652-32.035-12.701-46.319c-16.524-29.323-42.82-46.465-73.85-56.91c-23.226-7.818-47.499-9.911-71.846-11.313
		c-40.072-2.306-79.12,2.25-116.837,16.451c-6.539,2.462-13.011,5.106-19.582,7.479C71.912,55.12,61.93,74.457,57.111,96.94
		C54.411,109.535,54.239,122.67,52.928,135.563z M691.943,22.079c-0.017-0.415-0.033-0.831-0.049-1.247
		c-16.427,1.102-33.002,1.18-49.248,3.529c-29.2,4.223-57.33,12.408-82.363,28.787c-14.686,9.608-27.005,21.698-35.403,37.32
		c-13.778,25.626-13.878,53.206-10.142,80.898c2.857,21.184,9.138,41.498,18.744,60.85c11.917,24.01,27.936,44.589,48.752,61.269
		c24.209,19.398,52.861,27.792,83.123,30.888c19.828,2.028,39.854,1.001,58.941-4.852c16.331-5.006,33.045-10.386,47.704-18.86
		c25.028-14.469,42.207-37.002,53.811-63.357c10.042-22.812,16.451-46.711,19.282-71.586c2.552-22.412,4.155-44.82,1.285-67.264
		c-2.625-20.528-10.819-38.732-28.811-49.826c-11.155-6.877-23.935-11.951-36.653-15.295
		C751.86,25.688,722.181,21.305,691.943,22.079z M635.29,15.481c56.325-5.073,112.14-2.974,167.257,11.369
		C784.543,12.839,660.658,4.264,635.29,15.481z M249.781,12.771c0.03,0.273,0.061,0.547,0.092,0.82
		c16.645,3.758,33.304,7.454,49.93,11.292c15.178,3.504,29.552,9.039,42.786,17.375c8.442,5.318,16.753,10.884,25.461,15.729
		c5.753,3.2,12.302,3.93,18.827,3.272c-5.576-1.921-11.632-2.621-16.703-5.233c-9.878-5.091-18.924-11.806-28.831-16.827
		c-11.674-5.917-23.574-11.742-35.973-15.774c-11.774-3.828-24.297-5.4-36.532-7.748C262.533,14.466,256.137,13.725,249.781,12.771z
		 M101.382,292.538c10.862,11.844,25.938,21.462,41.1,27.622C129.243,311.263,114.467,301.332,101.382,292.538z M466.62,58.457
		c0.005-0.903,0.009-1.806,0.014-2.709c-5.014,0-10.027,0-15.04,0c-0.017,0.489-0.032,0.979-0.049,1.469
		C456.57,57.629,461.595,58.043,466.62,58.457z M518.612,58.65c-4.84,0-9.68,0-14.521,0c0.034,0.473,0.067,0.945,0.102,1.417
		C509.11,62.187,513.908,61.067,518.612,58.65z"/>
	<path fill-rule="evenodd" clip-rule="evenodd" fill="#FFFFFF" d="M52.928,135.563c1.312-12.893,1.483-26.028,4.183-38.623
		c4.819-22.483,14.801-41.82,38.435-50.355c6.571-2.373,13.043-5.017,19.582-7.479c37.717-14.202,76.765-18.757,116.837-16.451
		c24.347,1.402,48.62,3.494,71.846,11.313c31.029,10.445,57.325,27.587,73.85,56.91c8.049,14.285,11.961,29.892,12.701,46.319
		c1.012,22.476-0.765,44.687-7.679,66.134c-11.573,35.898-30.389,67.426-59.53,91.887c-35.711,29.976-77.5,40.249-123.215,35.244
		c-13.832-1.514-27.813-4.045-41.032-8.277c-27.137-8.688-49.711-24.379-66.645-47.81c-13.96-19.316-23.53-40.611-29.358-63.546
		C56.646,186.209,53.422,161.134,52.928,135.563z"/>
	<path fill-rule="evenodd" clip-rule="evenodd" fill="#FFFFFF" d="M691.943,22.079c30.237-0.774,59.917,3.609,88.974,11.251
		c12.719,3.345,25.498,8.418,36.653,15.295c17.991,11.094,26.186,29.298,28.811,49.826c2.87,22.444,1.267,44.852-1.285,67.264
		c-2.831,24.875-9.24,48.775-19.282,71.586c-11.604,26.355-28.782,48.889-53.811,63.357c-14.659,8.475-31.373,13.854-47.704,18.86
		c-19.088,5.853-39.113,6.88-58.941,4.852c-30.262-3.096-58.914-11.489-83.123-30.888c-20.816-16.68-36.835-37.259-48.752-61.269
		c-9.606-19.352-15.887-39.666-18.744-60.85c-3.736-27.693-3.637-55.272,10.142-80.898c8.398-15.622,20.718-27.711,35.403-37.32
		c25.033-16.379,53.163-24.564,82.363-28.787c16.246-2.349,32.821-2.427,49.248-3.529C691.91,21.248,691.927,21.664,691.943,22.079z
		"/>
	<path fill-rule="evenodd" clip-rule="evenodd" fill="#FFFFFF" d="M635.29,15.481c25.368-11.217,149.253-2.642,167.257,11.369
		C747.43,12.507,691.615,10.408,635.29,15.481z"/>
	<path fill-rule="evenodd" clip-rule="evenodd" fill="#FFFFFF" d="M249.781,12.771c6.355,0.953,12.751,1.695,19.058,2.905
		c12.235,2.348,24.757,3.92,36.532,7.748c12.398,4.032,24.299,9.856,35.973,15.774c9.907,5.021,18.953,11.736,28.831,16.827
		c5.07,2.613,11.127,3.313,16.703,5.233c-6.525,0.658-13.074-0.072-18.827-3.272c-8.708-4.845-17.019-10.411-25.461-15.729
		c-13.233-8.336-27.607-13.871-42.786-17.375c-16.626-3.837-33.285-7.534-49.93-11.292
		C249.842,13.318,249.812,13.045,249.781,12.771z"/>
	<path fill-rule="evenodd" clip-rule="evenodd" fill="#FFFFFF" d="M101.382,292.538c13.085,8.794,27.861,18.725,41.1,27.622
		C127.32,314,112.244,304.382,101.382,292.538z"/>
	<path fill-rule="evenodd" clip-rule="evenodd" fill="#FFFFFF" d="M466.62,58.457c-5.025-0.413-10.05-0.827-15.075-1.241
		c0.017-0.489,0.032-0.979,0.049-1.469c5.013,0,10.026,0,15.04,0C466.629,56.65,466.625,57.553,466.62,58.457z"/>
	<path fill-rule="evenodd" clip-rule="evenodd" fill="#FFFFFF" d="M518.612,58.65c-4.704,2.417-9.502,3.537-14.419,1.417
		c-0.034-0.473-0.067-0.945-0.102-1.417C508.933,58.65,513.772,58.65,518.612,58.65z"/>
</g>
</svg>
