<?xml version="1.0" encoding="iso-8859-1"?>
<!-- Generator: Adobe Illustrator 19.0.0, SVG Export Plug-In . SVG Version: 6.00 Build 0)  -->
<svg version="1.1" id="Layer_1" xmlns="http://www.w3.org/2000/svg" xmlns:xlink="http://www.w3.org/1999/xlink" x="0px" y="0px"
	 viewBox="0 0 383.479 383.479" style="enable-background:new 0 0 383.479 383.479;" xml:space="preserve">
<g id="XMLID_532_">
	<g id="XMLID_533_">
		<rect id="XMLID_42_" y="134.874" style="fill:#FF628B;" width="34" height="44.667"/>
		<rect id="XMLID_41_" x="349.479" y="134.874" style="fill:#CF476A;" width="34" height="44.667"/>
	</g>
	<g id="XMLID_534_">
		<path id="XMLID_783_" style="fill:#FF628B;" d="M191.74,194.319c25.244,0,46.798,15.736,55.429,37.927
			c2.599-6.682,4.041-13.942,4.041-21.543c0-32.844-26.626-59.47-59.47-59.47s-59.47,26.626-59.47,59.47
			c0,7.601,1.441,14.861,4.041,21.543C144.942,210.055,166.496,194.319,191.74,194.319z"/>
		<path id="XMLID_787_" style="fill:#CF476A;" d="M191.74,151.233v43.085c25.244,0,46.798,15.736,55.429,37.927
			c2.599-6.682,4.041-13.942,4.041-21.543C251.21,177.859,224.584,151.233,191.74,151.233z"/>
	</g>
	<g id="XMLID_788_">
		<path id="XMLID_789_" style="fill:#FF628B;" d="M85.128,264.824c-0.753-0.344-18.629-8.585-36.563-22.113
			C20.972,221.897,6.968,199.338,6.943,175.66c-0.036-33.907,27.545-61.522,61.48-61.558c9.429,0,18.53,2.102,26.766,6.081
			c7.973-3.682,16.7-5.63,25.668-5.64c33.949,0,61.546,27.546,61.582,61.404c0.025,23.469-13.838,45.912-41.203,66.706
			c-17.764,13.499-35.482,21.775-36.228,22.121l-9.928,4.604L85.128,264.824z"/>
		<path id="XMLID_35_" style="fill:#C1E8E6;" d="M158.679,175.972c-0.022-20.812-16.966-37.692-37.797-37.67
			c-10.067,0.011-19.162,3.962-25.958,10.398l-0.023-0.023l0,0c-6.81-6.698-16.161-10.826-26.453-10.815
			c-20.859,0.022-37.767,16.938-37.745,37.773c0.04,38.178,64.31,67.584,64.31,67.584S158.719,213.678,158.679,175.972z"/>
	</g>
	<g id="XMLID_790_">
		<path id="XMLID_33_" style="fill:#CF476A;" d="M298.351,264.824c0.753-0.344,18.629-8.585,36.563-22.113
			c27.593-20.814,41.597-43.374,41.622-67.052c0.036-33.907-27.545-61.522-61.48-61.558c-9.429,0-18.53,2.102-26.766,6.081
			c-7.973-3.682-16.7-5.63-25.668-5.64c-33.949,0-61.546,27.546-61.582,61.404c-0.025,23.469,13.838,45.912,41.203,66.706
			c17.764,13.499,35.482,21.775,36.228,22.121l9.928,4.604L298.351,264.824z"/>
		<path id="XMLID_32_" style="fill:#A0CFF1;" d="M224.8,175.972c0.022-20.812,16.966-37.692,37.797-37.67
			c10.067,0.011,19.162,3.962,25.958,10.398l0.023-0.023l0,0c6.81-6.698,16.161-10.826,26.453-10.815
			c20.859,0.022,37.767,16.938,37.745,37.773c-0.04,38.178-64.31,67.584-64.31,67.584S224.76,213.678,224.8,175.972z"/>
	</g>
</g>
<g>
</g>
<g>
</g>
<g>
</g>
<g>
</g>
<g>
</g>
<g>
</g>
<g>
</g>
<g>
</g>
<g>
</g>
<g>
</g>
<g>
</g>
<g>
</g>
<g>
</g>
<g>
</g>
<g>
</g>
</svg>
