<?xml version="1.0" encoding="utf-8"?>
<!-- Generator: Adobe Illustrator 16.0.3, SVG Export Plug-In . SVG Version: 6.00 Build 0)  -->
<!DOCTYPE svg PUBLIC "-//W3C//DTD SVG 1.0//EN" "http://www.w3.org/TR/2001/REC-SVG-20010904/DTD/svg10.dtd" [
	<!ENTITY ns_flows "http://ns.adobe.com/Flows/1.0/">
	<!ENTITY ns_extend "http://ns.adobe.com/Extensibility/1.0/">
	<!ENTITY ns_ai "http://ns.adobe.com/AdobeIllustrator/10.0/">
	<!ENTITY ns_graphs "http://ns.adobe.com/Graphs/1.0/">
]>
<svg version="1.0" id="Capa_1" xmlns:x="&ns_extend;" xmlns:i="&ns_ai;" xmlns:graph="&ns_graphs;"
	 xmlns="http://www.w3.org/2000/svg" xmlns:xlink="http://www.w3.org/1999/xlink" xmlns:a="http://ns.adobe.com/AdobeSVGViewerExtensions/3.0/"
	 x="0px" y="0px" width="835px" height="276px" viewBox="0 0 835 276" enable-background="new 0 0 835 276" xml:space="preserve">
<metadata><?xpacket begin="﻿" id="W5M0MpCehiHzreSzNTczkc9d"?>
<x:xmpmeta xmlns:x="adobe:ns:meta/" x:xmptk="Adobe XMP Core 5.3-c011 66.145661, 2012/02/06-14:56:27        ">
   <rdf:RDF xmlns:rdf="http://www.w3.org/1999/02/22-rdf-syntax-ns#">
      <rdf:Description rdf:about=""
            xmlns:xmp="http://ns.adobe.com/xap/1.0/"
            xmlns:xmpGImg="http://ns.adobe.com/xap/1.0/g/img/">
         <xmp:CreatorTool>Adobe Illustrator CS6 (Windows)</xmp:CreatorTool>
         <xmp:CreateDate>2020-04-04T21:30:32-06:00</xmp:CreateDate>
         <xmp:Thumbnails>
            <rdf:Alt>
               <rdf:li rdf:parseType="Resource">
                  <xmpGImg:width>256</xmpGImg:width>
                  <xmpGImg:height>88</xmpGImg:height>
                  <xmpGImg:format>JPEG</xmpGImg:format>
                  <xmpGImg:image>/9j/4AAQSkZJRgABAgEASABIAAD/7QAsUGhvdG9zaG9wIDMuMAA4QklNA+0AAAAAABAASAAAAAEA&#xA;AQBIAAAAAQAB/+4ADkFkb2JlAGTAAAAAAf/bAIQABgQEBAUEBgUFBgkGBQYJCwgGBggLDAoKCwoK&#xA;DBAMDAwMDAwQDA4PEA8ODBMTFBQTExwbGxscHx8fHx8fHx8fHwEHBwcNDA0YEBAYGhURFRofHx8f&#xA;Hx8fHx8fHx8fHx8fHx8fHx8fHx8fHx8fHx8fHx8fHx8fHx8fHx8fHx8fHx8f/8AAEQgAWAEAAwER&#xA;AAIRAQMRAf/EAaIAAAAHAQEBAQEAAAAAAAAAAAQFAwIGAQAHCAkKCwEAAgIDAQEBAQEAAAAAAAAA&#xA;AQACAwQFBgcICQoLEAACAQMDAgQCBgcDBAIGAnMBAgMRBAAFIRIxQVEGE2EicYEUMpGhBxWxQiPB&#xA;UtHhMxZi8CRygvElQzRTkqKyY3PCNUQnk6OzNhdUZHTD0uIIJoMJChgZhJRFRqS0VtNVKBry4/PE&#xA;1OT0ZXWFlaW1xdXl9WZ2hpamtsbW5vY3R1dnd4eXp7fH1+f3OEhYaHiImKi4yNjo+Ck5SVlpeYmZ&#xA;qbnJ2en5KjpKWmp6ipqqusra6voRAAICAQIDBQUEBQYECAMDbQEAAhEDBCESMUEFURNhIgZxgZEy&#xA;obHwFMHR4SNCFVJicvEzJDRDghaSUyWiY7LCB3PSNeJEgxdUkwgJChgZJjZFGidkdFU38qOzwygp&#xA;0+PzhJSktMTU5PRldYWVpbXF1eX1RlZmdoaWprbG1ub2R1dnd4eXp7fH1+f3OEhYaHiImKi4yNjo&#xA;+DlJWWl5iZmpucnZ6fkqOkpaanqKmqq6ytrq+v/aAAwDAQACEQMRAD8Ak2u/85pfl1aeomkaXqOq&#xA;Sr9h2WK2gf5MzvIPpjxVgWs/85vebJqfoby3YWXj9clmu/u9P6pirDdV/wCcsvzqvnLW+qW+mof9&#xA;12tpAR373Czt38cVYvqX55/nBqLFrjzdqSE9fq07Wo616W/pDFUku/P/AJ7vVK3nmPVLlSCpE17c&#xA;SAhuo+Jz174qkk1xPO/OeRpXpTk7FjTwqcVVl0vU2UMtpMysKqwjcgg9xtiqbabq3n7S1C6ZearY&#xA;qv2RbS3MIG3HbgV7bYqmlt+cH5uadNRfNusLJGR+7nu55QCvQcJmcfRTFWQWX/OT/wCeFoVA8xmd&#xA;F6pPa2klfmxi5/8ADYqzDSf+c1PzGt5EGp6Vpd/APt+mk9vKf9mJJEH/AAGKvQNA/wCc2vKFwAuv&#xA;eX77TnJpytJIrxB7kv8AVmH0KcVepeWvz6/KLzFRdP8AM1pFMaD0L1jZSFm/ZUXIi5n/AFK4qz1W&#xA;V1DKQysKqw3BB8MVbxV2KuxV2KtMyqpZiFVRVmOwAHc4qwPzJ+e/5R+XSyaj5ms3nUlWt7RjeSBh&#xA;1VlthLwP+tTFXl2v/wDObPky2BXQtBv9SkBpyunis4yPFSv1l/vUYq8+1j/nNT8xLiRxpek6Zp8B&#xA;+x6izXMq/wCz9SJD/wAi8VYZff8AOTn533lQ3mVoUPRILa0ip8mWIP8AjirGrn82/wA07kky+b9Z&#xA;NaVVb+5Vdv8AJVwMVSm51zzbrJYXOoX+pEBuQkmmnNH+1XkW+13xVB/onVf+WKf/AJFP/TFVltdX&#xA;+n3Pq200tpdRmnONmjkUg9KqQRQjFU7t/wAx/wAw7YUtvNGrwgHkBHf3KCvjtIMVTnTPz2/OHTWD&#xA;W/m3UZCOn1qY3Y616XAlxVluj/8AOXX5y2H+9V3Zat/zGWiL/wBQptsVZro//OcOsRoq6z5Vt7l9&#xA;uctndPbj3ISRLj/ieKs60j/nM78r7tkTULHVNNc/bkaKKaJf9lHIZD/yLxV8n2/l3y/B+Yk+geY9&#xA;SfR9Ftb+4tL7UI4XnaJYHdRSJeTHkyBe9K13pir3yLyT/wA4aaVo63N55ik1MSCiyG5ne5qaH+4t&#xA;I42X/ZR08cVeAfmF/gH/ABNMPIv139ABV9M6hx9Qyb8ylAD6fTjy+LxxV6b+Tv8Azi35k862tvrm&#xA;vTNoflycCS3PENd3UZOzRI20aMOjv7EKwNcVfTnlf/nHn8oPLkSLbeXbe+nUANdakPrsjMP2qTco&#xA;0P8AqIuKs/tLCxsolis7aK2iUUWOFFjUDwAUAYqr4q7FWnRHXi6hl8CKj8cVSPUvIXkbVDy1Py7p&#xA;l63TlcWdvKe/d0J7nFWH65/zjZ+S+sBzJ5cis5mBCy2MkttxJ7iONhF96HFXkPnb/nCfjE9x5K1t&#xA;ndRUafqoFW6n4bmFVFewDR/NsVfOPm3yV5p8oaq2l+Y9Om068FSiyiqSKDTnFItUkWv7SkjFUR5W&#xA;/MXz15UdT5e1y805Fbn9XilYwFvFoG5RN/slOKvZPK//ADml58sEWLzBpVnraKKetGWsp2PizKJY&#xA;v+BiGKs/sP8AnNzyS8IOoeX9Tt5qbpA1vOtd/wBp3gP/AAuKtX3/ADm55KRCbHy9qU70HETvBCCa&#xA;7glWm7e2KsD81f8AOafnfUIGh8u6RaaFzFDcyub6dT4oXSKIf7KNsVeMeaPzE89eamY+YddvNRjZ&#xA;uX1eWVvQDDusC0iX/Yriqj5R8k+afOGqrpXlzTpdRvCOTrGAEjXpzlkYqka+7EYq+jvJX/OE6mNL&#xA;jzprjKxFWsNKA+E9q3MytX3Ai/2WKvYND/5xw/JjRwph8tQXcoADS3zyXfKncpMzxj6FGKspsvy6&#xA;/L6xZWsvLGk2rK3JWhsbaMhulQVQb4qnVvYWNuoW3tooVXdRGiqAT4UAxVXxV2KqV1Z2l3EYbqCO&#xA;4ib7Ucqq6n5hgRirz7zV/wA48/lD5kjcXPl63sbhgeN3po+pSKzdW4w8Y3b/AF0bFXzJ+cH/ADiz&#xA;5l8mW0+t+X5n13y9DV5xwpeWyV+1Ii7SIo6ulPEqAK4q8w/L3/AZ80Ww88/XB5eIb1msCBIH/Y51&#xA;BYx/zcPi8MVfQMvkn/nDTVtIa4svMT6YIxRpFuZ47gkAkn0LyN2av+TH8sVeCL5c0C5/Mm18vaHq&#xA;Larol3qdvZ2eovE0BlinlRORjb4hTlTtXrQYq9M/5yB/IDzroWv695ytIl1Py5fXlxqEstt/e2q3&#xA;EhlZZojvxQuRzWooKtx6Yq8JxV7v/wA4r/k9ZecvMFx5i1yET6DoboI7Z/sXN4fjVH8UiWjOveqj&#xA;cVGKvt3FXYq7FXYq7FXYq7FXYq7FWL/mN+Xfl7z95ZuNC1mEEOC1ndgVltp6USaM7bjuK0YbHbFX&#xA;5z+Z/L2peW/MOo6DqScL7TZ3t5wK8SUNAy1pVWHxKe4OKpXirsVdirsVTPy15f1HzH5g0/QtNQPf&#xA;alPHbQBq8Q0jU5MQDRVHxMewxV+jP5cfl15e8g+WbfQ9GhACANeXhAEtzPSjSyHfc9hWijYbYqyj&#xA;FXYq7FXYq7FXYq7FXYq7FXxD/wA5Ufk9aeTfMUPmLRIBDoGuu/O2TZLa8A5OiD9lJRV0HajAUAAx&#xA;V4Tir3j/AJx8/wCcf/OeteZNC83anbHTPLVjcQ6hDNP8Mt16DiWNYYvtcHZV+NqArupOKvtqWKKW&#xA;J4pUWSKRSskbAMrKwoQQdiCMVfmx+avleHyt+Y3mHQbdeFpZXsgtE3PG3kPqQrU7mkbqK4q+u/8A&#xA;nD6xitvydjmT7V7qF1PJtT4l4Q/T8MQxV7dirsVdirsVdirsVdirsVdirsVfC/8Azl9pUVl+cc9w&#xA;go2p2FrdSf6yhrfw/ltxirxaKKWaVIolLyyMEjRRUszGgAA7k4q+w9C/5wp8j/oe0Ou6vqjauYlN&#xA;99Tlto4BKRVljEkErcVO1S2/XbpirWv/APOFPkj9DXZ0HV9UXWFjZrL65JbyQNIBVVkWOCFqN0qG&#xA;2679MVfHssUsMrxSqUljYpIjChVlNCCD3BxV7T/ziDpUN9+ccNxIKtplhdXcX+swW38P5bg4q+6M&#xA;VdirsVdirsVdirsVdirsVdirw3/nMb0P+VQp6sfN/wBKW3oNWnB+EtW6b/ByX6cVfJX5TeW7fzL+&#xA;ZXlvRLlBLaXd9F9biPR4Iz6ky7fzRowxV+kyIqKEQBUUAKoFAAOgAxVvFXwL/wA5UWUlt+eGvOyk&#xA;JdJZzxVB3X6pEhO/X40bpir6L/5w9vPrH5PLFt/omo3UOxqdwku/v+9xV7firsVdirsVdirsVdir&#xA;sVdirsVfCv8Azl5fpc/nLdQqxJsbG0gcE1ALIZqDc0FJhiqW/wDOMXkv/E/5taY8yc7HRAdVuvCt&#xA;uQIB4f37IadwDir78xV2KvgL/nJvyX/hf82tUMKcLHWqaraUqRW4J9ceA/frJQdlpiqa/wDOIOor&#xA;a/nJBAzUN/YXduo23Kqs9N/aCu2KvujFXYq7FXYq7FXYq7FXYq7FXYq8I/5zMlRPyltlY0Mmr2yo&#xA;PEiGdqfcpxV4B/zilpr3n526PMoqlhDeXMny+rPCP+HmXFX3tirsVfGX/Oa2jyW/5g6PqoTjBf6Y&#xA;IQ9PtS208hff2SZMVZz/AM4Q60kvlXzJon+7LO+ivfmLuH0vw+qYq+lMVdirsVdirsVdirsVdirs&#xA;Vdir84/zu18a/wDmz5p1JWDxm/kt4XG4aO0pbRsPYpCDir6d/wCcOPJJ0jyBdeZbhON15in/AHJP&#xA;UWloWjj6jblKZD7jjir3/FXYq+fv+cyfJX6V8g2fmaBK3Xl64pOR/wAst4VjfbvxlEXyFcVfMP5L&#xA;eYl8u/mt5Y1V3WOGO+jgnkfZVhuq28rE/wCTHKxxV+j+KuxV2KuxV2KuxV2KuxV2KuxV80f85v60&#xA;IvLXlnRKVN5ezXpNegtYhENvf61+GKsP/wCcJdIebzxr+r/7rstNW2I/yrqdHU/dbNir7HxV2Kvn&#xA;b/nNTy0175G0fX40LSaPemGUjosF4lGY/wDPWGNfpxV5L/ziD5q/RH5rDSpWIt9ftJbUCtFE8I+s&#xA;RMfekboP9bFX3HirsVdirsVdirsVdirsVdirD/zc87xeSvy81nzAXC3UEBi09TSrXc37uAAHrR25&#xA;N/kg4q/PHyt5d1HzP5m03QbAFr3VLmO3jYgsF9RqNI1N+KLVmPgDir9MdD0ex0TRbDR7BPTstOt4&#xA;rW2Q9RHCgRanuaDfFUbirsVS/wAw6HY69oOo6JfqWs9TtpbS4A68JkKEqexFag+OKvzO8x6BqPl3&#xA;zBqGh6inp32mXEltOBWhaNqclrSqt9pT3GKv0P8Ayf8AO0fnT8udF14yB7uWAQ6iNqi7g/dzVA6c&#xA;nXkP8kjFWZYq7FXYq7FXYq7FXYq7FXYq+Gf+cu/NS6z+a76bC/K30G0isyAar68lZ5WHv+9VG/1c&#xA;Veuf84UeXmtPI+t67IhRtVvlgjJFA0VnHswPcepPIv0Yq+isVdirHPzG8ow+cPI2teW5OIbUbV47&#xA;d3rxS4X44HNOySqrfRir84tPvdX8r+Zbe8jVrXV9FvFkEcgo0dxayV4uvs6UYYq/SbyX5r0zzb5W&#xA;0zzHprVtNSgWZVqCY36SRMR+1G4ZG9xiqdYq7FXYq7FXYq7FXYq7FXxX/wA5bfmvH5k8zR+UNKm5&#xA;6PoEjG9dT8M1/Qo3zEC1Qf5Rf2xVlv8Azhz+VcsYn/MPVIePqK9poKuN+JPG4uR4dPSU/wCv7Yq+&#xA;p8VdirsVdir5W/5zF/KiV2i/MTSoeSqsdrr6KNxT4ILk/hE3+w98VYt/ziR+a0XlzzLL5P1WYR6T&#xA;r8itZSMaLFf0CKD7TqAn+sF98VfaWKuxV2KuxV2KuxV2KuxVJPOvm3S/KPlXUvMeptS006FpSlaG&#xA;R/sxxLX9qRyEX3OKvzZvrvV/M3mOe7kVrrWNau2kZIxVpLi6krxRf8p3oBir9G/y08nReTfIei+W&#xA;koX0+2Vbl1JKtcSEyXDrXejTOxHtirJsVdirsVfJX/OWn5KzwXs35iaDBztLjiPMFsg3il2VboAf&#xA;svsJPBvi35GirB/+cd/z4k/LzVH0jWmebyjqD8pwgLPaTmg+sIo3ZSBSRBvTcbijKvuPS9V03VtP&#xA;g1HTLqK8sLlRJb3UDB43U91ZdsVRWKuxV2KuxV2KuxV85f8AOQ//ADkrZaJa3XlPyXdCfXZAYb/V&#xA;oGrHZg7MkTqd5+1R9j/W6KvFfyF/IjVfzF1hNQ1GOS28oWklb28+ybh1IJt4T1q1ficbKPegxV94&#xA;2NlaWFnBZWUKW9naxrDbwRgKiRxgKiKo6BQKDFVbFXYq7FXYqo31laX9nPZXsKXFndRtDcQSAMjx&#xA;yAq6Mp6hgaHFXwf+ff5Dan+XWqtqWmq915SvJD9Tut2a2djUW858R+w/7Q964q9k/wCcev8AnJmz&#xA;1W3tfKXne7EGsRgRafrM7AJdjosc7mgSYCgDMfj7nn9pV9JYq7FXYq7FXYq7FULqmq6bpOnz6jqd&#xA;1FZ2FspkuLqdgkaKO7M22Kvhv/nIn893/MPVY9K0UvF5S05y1uHBV7ucVX6w6ndVANI1O4FSdzRV&#xA;Wdf84m/kjPPeQ/mJ5gt+FrBU+XrWQbySbg3bKf2U6ReLfFtxUlV9aYq7FXYq7FVk8EM8MkE8aywy&#xA;qUlicBlZWFGVlOxBHUYq+Vvzl/5xGnaefXPy6VWRyZLjy9IwQqSak2kjkLT/AIrcin7J6LirxnyX&#xA;+Z/5oflPq01jaNNZBHrfaBqUT+izU6tC/B42Ip8SFSdt6Yq+i/J3/OZ/kbUEjh80addaHdHaS4hH&#xA;1y12/aqgWZa/yiNqeOKvVNI/Oj8p9XiSSy82aZ8f2Y57lLaU0/4qnMcn/C4qyJPMvlyRFkj1WzdH&#xA;AZHW4iIIO4IIbFUp1L80fy103mL7zTpMDpUNE17B6lV2I4By9R8sVeceaP8AnLz8ptJiYaVJda/d&#xA;bhUtYWhiDDpzkuBFt7orYq8H86/85F/mx+ZNwdA8vWsum2d3yQaXpKyTXcyHqskyj1GFOoRUBH2g&#xA;cVZl+U3/ADh7ezyQat+Yb/V7YEOmgW71leh6XMyGiKf5YyW/ylOKvqzT9OsNNsYLDT7eO0srZBHb&#xA;20KhI40XYKqrQAYqiMVdirsVdirsVdiqhf2FjqNlPY39vHd2VyhjuLaZBJHIjChV0YEEH3xV8p/m&#xA;1/zh7eQyTat+Xbie2NXfQLh6Sp7W0zmjj/JkIP8AlN0xVg/kb/nIP81/yxuBoGuW0t/YWtFbR9WW&#xA;SG5hUdFhlYepGKDYMGUDoMVfQHlb/nLn8pNXgX9KXFzoF3sGhu4XljLHrwltxKOI8XC/LFXoFn+b&#xA;P5X3oX6t5t0d2bdUN9bq/Sv2GcN+GKpl/jTyd9V+t/p7TvqtafWPrcHp1rSnPnx64qk2q/nN+VGl&#xA;xPJd+bdL/d/bjhuo7iQf88oDI/8AwuKvLPOf/OZvkXTo3h8rWFzrt10S4lBs7XfvVwZmp/L6a/PF&#xA;Xzd52/M78zPzU1eG0vpJr3m/+gaDp8b+ir709OBObSPQn4nLNTvTFXtP5Lf84k3Anttf/MRFWNCJ&#xA;bfy6pDliDVTduCV4/wDFS1r+0RuuKvqqCCGCGOCCNYoYlCRRIAqqqiiqqjYADoMVX4q7FXYq7FXY&#xA;q7FUk80eSfKPmu0+qeYtJttThUERm4jDPHy6mOQUeM+6MDiryLzB/wA4b/lZqDPJpc+oaK5FEihm&#xA;E8APiVuFklP/ACMxV5zqn/OEPmhLkjSvMtjcW3UPdRTQSD24x+uD86/RiqD/AOhJfP8A/wBX3Svv&#xA;uf8AqliqP0r/AJwg8xSSH9LeZ7S2jBFPqsEtwSO/941vx/HFXoPl7/nDX8sNPeOXVrrUNadR8cMk&#xA;q28DH/VgVZR/yNxV7F5Z8neVfK9n9T8vaVbaXAQA4to1Rn47AyOPjc+7EnFU4xV2KuxV2KuxV2Ku&#xA;xV2KuxV2KpP5m8neVfNFn9T8w6VbapAAQguY1dk5bExufjQ+6kHFXj3mD/nDX8rr93l0u51DRnYf&#xA;BDFKs8C/7GdXlP8AyNxV59q3/OEHmCOQfojzPaXMZJqLuCS3ZR2/u2uOX4Yql/8A0JL5/wD+r7pX&#xA;33P/AFSxVF6b/wA4Q+aXuKan5lsbe3/ntopp3J8OL+gPp5Yq9F8v/wDOGv5X2DRy6rc6hrMij95F&#xA;JKtvAx8QsCrKP+RuKvXvK3kbyf5Utjb+XNHtdLRlCyPbxqskgXp6ku8knzdjiqeYq7FXYq7FX//Z</xmpGImg:image>
               </rdf:li>
            </rdf:Alt>
         </xmp:Thumbnails>
      </rdf:Description>
      <rdf:Description rdf:about=""
            xmlns:xmpTPg="http://ns.adobe.com/xap/1.0/t/pg/"
            xmlns:stDim="http://ns.adobe.com/xap/1.0/sType/Dimensions#"
            xmlns:xmpG="http://ns.adobe.com/xap/1.0/g/">
         <xmpTPg:MaxPageSize rdf:parseType="Resource">
            <stDim:w>835.000000</stDim:w>
            <stDim:h>276.000000</stDim:h>
            <stDim:unit>Pixels</stDim:unit>
         </xmpTPg:MaxPageSize>
         <xmpTPg:NPages>1</xmpTPg:NPages>
         <xmpTPg:HasVisibleTransparency>False</xmpTPg:HasVisibleTransparency>
         <xmpTPg:HasVisibleOverprint>False</xmpTPg:HasVisibleOverprint>
         <xmpTPg:PlateNames>
            <rdf:Seq>
               <rdf:li>Black</rdf:li>
            </rdf:Seq>
         </xmpTPg:PlateNames>
         <xmpTPg:SwatchGroups>
            <rdf:Seq>
               <rdf:li rdf:parseType="Resource">
                  <xmpG:groupName>Grupo de muestras por defecto</xmpG:groupName>
                  <xmpG:groupType>0</xmpG:groupType>
               </rdf:li>
            </rdf:Seq>
         </xmpTPg:SwatchGroups>
      </rdf:Description>
      <rdf:Description rdf:about=""
            xmlns:dc="http://purl.org/dc/elements/1.1/">
         <dc:format>image/svg+xml</dc:format>
      </rdf:Description>
   </rdf:RDF>
</x:xmpmeta>
                                                                                                    
                                                                                                    
                                                                                                    
                                                                                                    
                                                                                                    
                                                                                                    
                                                                                                    
                                                                                                    
                                                                                                    
                                                                                                    
                                                                                                    
                                                                                                    
                                                                                                    
                                                                                                    
                                                                                                    
                                                                                                    
                                                                                                    
                                                                                                    
                                                                                                    
                                                                                                    
                           
<?xpacket end="w"?>
	</metadata>
<g>
	<path fill-rule="evenodd" clip-rule="evenodd" d="M1,34c0-5,0-10,0-15C34.751,11.823,68.823,6.77,103.192,3.757
		C115.448,2.683,127.73,1.91,140,1c15.667,0,31.333,0,47,0c1.973,0.23,3.942,0.505,5.919,0.685
		c20.379,1.854,40.82,3.194,61.126,5.645c39.636,4.781,78.185,14.653,116.131,26.805c14.987,4.799,29.807,8.185,45.831,7.979
		c17.155-0.219,33.802-1.247,49.856-7.725c4.461-1.8,9.209-2.89,13.83-4.285c44.921-13.568,90.625-23.067,137.5-26.505
		C628.134,2.796,639.064,1.869,650,1c15.333,0,30.667,0,46,0c0.976,0.198,1.942,0.502,2.928,0.577
		c18.253,1.399,36.621,1.93,54.738,4.347C781.202,9.597,808.564,14.575,836,19c0,4.667,0,9.333,0,14
		c-0.837,7.268-2.626,14.581-2.273,21.79c0.461,9.438-3.369,14.338-11.714,18.168c-9.334,4.285-14.847,11.874-16.042,22.943
		c-2.356,21.828-5.117,43.653-8.893,65.273c-3.24,18.559-8.543,36.748-18.493,53.033c-16.344,26.748-40.23,44.251-69.75,53.681
		c-13.231,4.228-27.2,6.146-40.835,9.111c-17.333,0-34.667,0-52,0c-13.696-2.681-27.875-3.916-41.003-8.298
		c-49.619-16.564-85.53-48.606-104.901-97.761c-9.521-24.16-18.248-48.639-26.973-73.103c-2.157-6.048-5.959-8.485-11.875-8.53
		c-8.494-0.065-16.99-0.07-25.484-0.003c-5.896,0.047-9.691,2.438-11.912,8.485c-10.103,27.499-19.536,55.32-31.262,82.13
		c-20.592,47.081-57.739,75.958-106.329,90.463c-11.397,3.401-23.489,4.473-35.262,6.616c-17.333,0-34.667,0-52,0
		c-15.206-3.518-30.957-5.542-45.513-10.845c-37.759-13.755-64.229-39.209-76.776-78.348c-8.878-27.691-12.458-56.235-14.763-84.933
		c-1.251-15.577-7.153-26.681-21.757-32.701c-0.307-0.126-0.579-0.338-0.887-0.459c-4.066-1.6-5.449-4.515-5.687-8.918
		C3.133,51.844,1.916,42.93,1,34z M62.046,103.733c-0.424,21.645,2.387,42.914,8.332,63.676
		c4.815,16.816,10.101,33.539,21.359,47.528c13.649,16.963,30.965,28.831,51.453,35.704c38.074,12.771,76.507,12.303,114.353-0.337
		c26.855-8.97,48.613-26.193,63.676-50.059c19.301-30.58,27.535-64.876,27.254-100.915c-0.187-23.829-11.25-41.59-32.961-52.408
		c-15.239-7.594-31.385-12.118-48.095-14.572c-37.509-5.51-75.232-7.233-113.08-4.935c-15.645,0.95-31.178,2.997-45.934,8.84
		c-15.443,6.115-27.745,16.083-37.734,29.362c-8.586,11.415-8.969,24.346-8.622,37.616C62.05,103.4,62.046,103.567,62.046,103.733z
		 M774.781,104.163c0-3.832-0.235-7.681,0.045-11.491c0.795-10.808-3.487-19.884-9.585-28.246
		c-9.998-13.713-23.141-23.319-39.11-29.072c-20.398-7.35-41.779-8.869-63.045-8.693c-26.771,0.221-53.573,1.789-80.272,3.904
		c-20.475,1.623-40.393,6.441-59.207,15.264c-24.079,11.291-35.38,30.409-35.245,56.572c0.15,28.927,6.771,56.518,18.927,82.644
		c15.466,33.242,41.816,54.56,75.92,66.699c13.916,4.954,28.521,6.391,43.198,7.354c27.388,1.801,53.965-1.453,78.959-13.204
		c24.885-11.699,43.576-29.586,53.682-55.805C769.72,162.398,775.148,133.825,774.781,104.163z M800.123,48.851
		c0.102-0.24,0.202-0.479,0.303-0.72c3.765-0.491,7.596-0.711,11.266-1.596c1.671-0.403,3.025-2.119,4.522-3.239
		c-1.341-1.327-2.448-3.256-4.062-3.884c-10.744-4.178-21.854-5.475-33.181-2.887c-1.643,0.375-2.963,2.158-4.433,3.29
		c1.32,1.332,2.428,3.43,3.997,3.866C785.66,45.66,792.915,47.171,800.123,48.851z M38.083,48.593
		c6.168-1.502,13.705-3.21,21.144-5.272c1.285-0.356,2.639-2.082,3.014-3.437c0.192-0.694-1.55-2.584-2.694-2.884
		c-12.483-3.277-24.646-2.014-36.375,3.253c-1.032,0.464-2.413,2.111-2.228,2.866c0.286,1.168,1.635,2.651,2.791,2.929
		C27.888,47.043,32.149,47.588,38.083,48.593z"/>
	<path fill-rule="evenodd" clip-rule="evenodd" fill="#FFFFFF" d="M221,277c11.772-2.144,23.865-3.215,35.262-6.616
		c48.589-14.505,85.736-43.382,106.329-90.463c11.726-26.81,21.159-54.631,31.262-82.13c2.221-6.047,6.016-8.438,11.912-8.485
		c8.494-0.067,16.99-0.063,25.484,0.003c5.916,0.045,9.718,2.482,11.875,8.53c8.725,24.464,17.451,48.942,26.973,73.103
		c19.371,49.154,55.282,81.196,104.901,97.761c13.128,4.382,27.307,5.617,41.003,8.298C484.334,277,352.667,277,221,277z"/>
	<path fill-rule="evenodd" clip-rule="evenodd" fill="#FFFFFF" d="M668,277c13.635-2.966,27.604-4.884,40.835-9.111
		c29.52-9.43,53.406-26.933,69.75-53.681c9.95-16.285,15.253-34.475,18.493-53.033c3.775-21.62,6.536-43.445,8.893-65.273
		c1.195-11.069,6.708-18.658,16.042-22.943c8.345-3.83,12.175-8.73,11.714-18.168C833.374,47.581,835.163,40.268,836,33
		c0,81.333,0,162.667,0,244C780,277,724,277,668,277z"/>
	<path fill-rule="evenodd" clip-rule="evenodd" fill="#FFFFFF" d="M1,34c0.916,8.93,2.133,17.844,2.617,26.797
		c0.238,4.403,1.621,7.318,5.687,8.918c0.308,0.121,0.58,0.333,0.887,0.459c14.604,6.021,20.506,17.124,21.757,32.701
		c2.305,28.697,5.885,57.241,14.763,84.933c12.548,39.139,39.017,64.593,76.776,78.348c14.556,5.303,30.307,7.327,45.513,10.845
		c-55.932,0-111.864,0-168,0C1,196,1,115,1,34z"/>
	<path fill-rule="evenodd" clip-rule="evenodd" fill="#FFFFFF" d="M650,1c-10.936,0.869-21.866,1.796-32.807,2.599
		c-46.875,3.438-92.579,12.937-137.5,26.505c-4.621,1.396-9.369,2.485-13.83,4.285c-16.054,6.478-32.701,7.506-49.856,7.725
		c-16.024,0.205-30.843-3.181-45.831-7.979C332.23,21.982,293.682,12.11,254.046,7.329c-20.307-2.45-40.748-3.79-61.126-5.645
		C190.942,1.505,188.973,1.23,187,1C341.333,1,495.666,1,650,1z"/>
	<path fill-rule="evenodd" clip-rule="evenodd" fill="#FFFFFF" d="M836,19c-27.436-4.425-54.798-9.403-82.334-13.076
		c-18.117-2.417-36.485-2.947-54.738-4.347C697.942,1.502,696.976,1.198,696,1c46.667,0,93.333,0,140,0C836,7,836,13,836,19z"/>
	<path fill-rule="evenodd" clip-rule="evenodd" fill="#FFFFFF" d="M140,1c-12.27,0.91-24.552,1.683-36.808,2.757
		C68.823,6.77,34.751,11.823,1,19C1,13.02,1,7.038,1,1C47.333,1,93.667,1,140,1z"/>
	<path fill-rule="evenodd" clip-rule="evenodd" fill="#FFFFFF" d="M62.046,103.733c0-0.166,0.003-0.333,0-0.499
		c-0.347-13.271,0.036-26.201,8.622-37.616c9.989-13.279,22.291-23.247,37.734-29.362c14.756-5.843,30.29-7.89,45.934-8.84
		c37.848-2.299,75.571-0.575,113.08,4.935c16.71,2.454,32.856,6.979,48.095,14.572c21.711,10.818,32.774,28.579,32.961,52.408
		c0.281,36.039-7.953,70.335-27.254,100.915c-15.063,23.865-36.82,41.089-63.676,50.059c-37.846,12.64-76.279,13.108-114.353,0.337
		c-20.487-6.873-37.803-18.741-51.453-35.704c-11.258-13.989-16.544-30.712-21.359-47.528
		C64.433,146.647,61.623,125.378,62.046,103.733z"/>
	<path fill-rule="evenodd" clip-rule="evenodd" fill="#FFFFFF" d="M774.781,104.163c0.367,29.662-5.062,58.235-15.734,85.926
		c-10.105,26.219-28.797,44.105-53.682,55.805c-24.994,11.751-51.571,15.005-78.959,13.204c-14.677-0.964-29.282-2.4-43.198-7.354
		c-34.104-12.14-60.454-33.457-75.92-66.699c-12.155-26.126-18.776-53.717-18.927-82.644c-0.135-26.163,11.166-45.281,35.245-56.572
		c18.814-8.822,38.732-13.641,59.207-15.264c26.699-2.115,53.501-3.684,80.272-3.904c21.266-0.176,42.646,1.344,63.045,8.693
		c15.97,5.753,29.112,15.359,39.11,29.072c6.098,8.362,10.38,17.438,9.585,28.246C774.546,96.482,774.781,100.331,774.781,104.163z"
		/>
	<path fill-rule="evenodd" clip-rule="evenodd" fill="#FFFFFF" d="M800.123,48.851c-7.208-1.68-14.463-3.19-21.587-5.169
		c-1.569-0.437-2.677-2.534-3.997-3.866c1.47-1.132,2.79-2.915,4.433-3.29c11.327-2.588,22.437-1.291,33.181,2.887
		c1.613,0.628,2.721,2.557,4.062,3.884c-1.497,1.12-2.852,2.836-4.522,3.239c-3.67,0.885-7.501,1.104-11.266,1.596
		C800.325,48.371,800.225,48.61,800.123,48.851z"/>
	<path fill-rule="evenodd" clip-rule="evenodd" fill="#FFFFFF" d="M38.083,48.593c-5.934-1.005-10.195-1.55-14.349-2.545
		c-1.155-0.277-2.504-1.761-2.791-2.929c-0.185-0.755,1.196-2.402,2.228-2.866c11.728-5.267,23.891-6.53,36.375-3.253
		c1.144,0.3,2.886,2.189,2.694,2.884c-0.375,1.354-1.729,3.08-3.014,3.437C51.787,45.383,44.25,47.091,38.083,48.593z"/>
</g>
</svg>
