<?xml version="1.0" encoding="utf-8"?>
<!-- Generator: Adobe Illustrator 16.0.3, SVG Export Plug-In . SVG Version: 6.00 Build 0)  -->
<!DOCTYPE svg PUBLIC "-//W3C//DTD SVG 1.0//EN" "http://www.w3.org/TR/2001/REC-SVG-20010904/DTD/svg10.dtd" [
	<!ENTITY ns_flows "http://ns.adobe.com/Flows/1.0/">
	<!ENTITY ns_extend "http://ns.adobe.com/Extensibility/1.0/">
	<!ENTITY ns_ai "http://ns.adobe.com/AdobeIllustrator/10.0/">
	<!ENTITY ns_graphs "http://ns.adobe.com/Graphs/1.0/">
]>
<svg version="1.0" id="Capa_1" xmlns:x="&ns_extend;" xmlns:i="&ns_ai;" xmlns:graph="&ns_graphs;"
	 xmlns="http://www.w3.org/2000/svg" xmlns:xlink="http://www.w3.org/1999/xlink" xmlns:a="http://ns.adobe.com/AdobeSVGViewerExtensions/3.0/"
	 x="0px" y="0px" width="834.459px" height="154px" viewBox="0 0 834.459 154" enable-background="new 0 0 834.459 154"
	 xml:space="preserve">
<metadata><?xpacket begin="﻿" id="W5M0MpCehiHzreSzNTczkc9d"?>
<x:xmpmeta xmlns:x="adobe:ns:meta/" x:xmptk="Adobe XMP Core 5.3-c011 66.145661, 2012/02/06-14:56:27        ">
   <rdf:RDF xmlns:rdf="http://www.w3.org/1999/02/22-rdf-syntax-ns#">
      <rdf:Description rdf:about=""
            xmlns:xmp="http://ns.adobe.com/xap/1.0/"
            xmlns:xmpGImg="http://ns.adobe.com/xap/1.0/g/img/">
         <xmp:CreatorTool>Adobe Illustrator CS6 (Windows)</xmp:CreatorTool>
         <xmp:CreateDate>2020-04-04T21:45:50-06:00</xmp:CreateDate>
         <xmp:Thumbnails>
            <rdf:Alt>
               <rdf:li rdf:parseType="Resource">
                  <xmpGImg:width>256</xmpGImg:width>
                  <xmpGImg:height>48</xmpGImg:height>
                  <xmpGImg:format>JPEG</xmpGImg:format>
                  <xmpGImg:image>/9j/4AAQSkZJRgABAgEASABIAAD/7QAsUGhvdG9zaG9wIDMuMAA4QklNA+0AAAAAABAASAAAAAEA&#xA;AQBIAAAAAQAB/+4ADkFkb2JlAGTAAAAAAf/bAIQABgQEBAUEBgUFBgkGBQYJCwgGBggLDAoKCwoK&#xA;DBAMDAwMDAwQDA4PEA8ODBMTFBQTExwbGxscHx8fHx8fHx8fHwEHBwcNDA0YEBAYGhURFRofHx8f&#xA;Hx8fHx8fHx8fHx8fHx8fHx8fHx8fHx8fHx8fHx8fHx8fHx8fHx8fHx8fHx8f/8AAEQgAMAEAAwER&#xA;AAIRAQMRAf/EAaIAAAAHAQEBAQEAAAAAAAAAAAQFAwIGAQAHCAkKCwEAAgIDAQEBAQEAAAAAAAAA&#xA;AQACAwQFBgcICQoLEAACAQMDAgQCBgcDBAIGAnMBAgMRBAAFIRIxQVEGE2EicYEUMpGhBxWxQiPB&#xA;UtHhMxZi8CRygvElQzRTkqKyY3PCNUQnk6OzNhdUZHTD0uIIJoMJChgZhJRFRqS0VtNVKBry4/PE&#xA;1OT0ZXWFlaW1xdXl9WZ2hpamtsbW5vY3R1dnd4eXp7fH1+f3OEhYaHiImKi4yNjo+Ck5SVlpeYmZ&#xA;qbnJ2en5KjpKWmp6ipqqusra6voRAAICAQIDBQUEBQYECAMDbQEAAhEDBCESMUEFURNhIgZxgZEy&#xA;obHwFMHR4SNCFVJicvEzJDRDghaSUyWiY7LCB3PSNeJEgxdUkwgJChgZJjZFGidkdFU38qOzwygp&#xA;0+PzhJSktMTU5PRldYWVpbXF1eX1RlZmdoaWprbG1ub2R1dnd4eXp7fH1+f3OEhYaHiImKi4yNjo&#xA;+DlJWWl5iZmpucnZ6fkqOkpaanqKmqq6ytrq+v/aAAwDAQACEQMRAD8A8qkkmp3JxVrFXYq7FXYq&#xA;7FXYq7FXYq7FXYq7FXYq7FXYq7FXYq7FXYq7FXYq7FXYq7FXYq7FXYq7FXYq7FXYq7FXYq7FXYq7&#xA;FXYq7FXYq7FXYq7FXYqnHk2wtNR836Hp94nqWl5qFrb3EdSvKOWZUdaqQRVT2xV923X/ADjP+Sc9&#xA;tLAvluOBpUZBPFPcCRCwpyQtIw5L1FQRir8+sVfYP/OPH5J/lV5m/KjSda1rRE1DVbqS6+tzySzq&#xA;QY7mSNFAR0WgjRegxV6T/wBC3fkl/wBStB/yOuf+quKu/wChbvyS/wCpWg/5HXP/AFVxV51/zkF+&#xA;R/5W+XPyl1vXND0KOw1Sxa0a3uY5ZyR6t3FC4KvIykFJG6jFXx1irsVdirsVdirsVdirsVdirsVf&#xA;Qf8AziZ+WXkfztL5nk8z6aNSOmrZLao8kiIouTOXPGNkJb9wNycVTn/nKv8AKb8vvJ3lPRtS8taS&#xA;mm3U9+beZo5JXDxtC70IkdxsyCmKvmPFXYq+yz/zhL5Artruq07b23/VLFXyl588uQ+WvOmt+X4J&#xA;muINLvZ7WKZwA7JE5VSwG1adaYqkOKuxV2KuxV2KuxV2KuxVm/5Nfl7b+f8Az/Y+W7q5ktLSdJpr&#xA;m4hUNIqQxl6Ly+EcmAWp8cVe5fmB/wA4t+XfIvlG/wDOOha7f/pbQBHf2guFgeMvDIrCoVE+j9Rx&#xA;Vgtx/wA5g/m/LZyW4bTopHjMYuo7ZhKpIpzWsjJyHX7NPbFXiGKvvX/nE/8A8klpH/Ge8/6iXxV6&#xA;/irsVeVf85R/+SJ8zf8ARj/3ULfFXwBirsVdirsVdirsVdirsVdir6I/Iz/nGjy3+YHkceY9W1a8&#xA;tZpbmWCOC1EQVUioKsZFkJJNfDFWvONzr3/ONnm5tN8l3639jr9jDc3MepwLIyvDLLGvxRGI7fFT&#xA;p9rcHY4q85/Mz88fPP5i2dnZa+1slnZSGaKC0iMamQqV5sWZ2JCkgb0xVjnkPy5D5l86aJ5fnma3&#xA;g1S9gtZZkALqkrhWKg7Vp0rir6s/6El8g/8AV91X77b/AKpYq+isVfK/5hf84jecvMnnjXNfsda0&#xA;6K11S8lu4o5/XWRRK3LiwVHXYmmxxV4D+aH5a6x+Xfmf/D+q3FvdXBt47pJrUuUKSFgPtqhBBQ9s&#xA;VYjirsVdirsVdirsVeg/lH+TOvfmbc6lBpF7aWR0tInmN2ZBy9YsF4emj9OBrXFXpMP5Z+bv+cet&#xA;V038xdSmsdbsIp2sJ7C1lmilYXUMgDBni40XjX50+YVVvzI/5y4tfNvknVfLdr5aezk1SIQG6luh&#xA;IqKWBY8FiSpoNt8VfN+KvefLn/OHvn7WtA07WF1bTbVNRt4rqO3kaZnRJlDoGKRsteLCtDir6l/J&#xA;ryDeeQvy+07y1e3Md3d2rTyTTQhhGTNM0gC8gG2DAbjFWbYq7FWHfm/5IvvPH5dav5XsbiK1u9QF&#xA;v6U8/IxqYLmKc8uILbiKmwxV8uar/wA4aefdP0u8v21nS5Vs4ZJ2jU3ALCJS5AJipU0xV8/4q7FX&#xA;Yq7FXYq7FXYq928q/wDOIfnvzD5b0zXotW022h1W2ivIIJWnLrFOgkj5cIytSjA0rtiqfeTPzvu/&#xA;yNt9R/LfXNCXVbvSb2R/rtpdemjrOqyD4XiY9CCOnWlNsVeY/nh+bg/M3zNaavHpv6LgsrRbSOFp&#xA;fWdqO0hdmCoBu9KUxVJvyw/LbWfzD8zjy/pM8FtcCCS5knuSwjWOKgP2FdiSzgdMVe/fl9/ziP5z&#xA;8t+d9D1+81nTpbXS7yK6lih9cyMsTcuK8o1FTTucVfVOKuxV2KvlP/nJ/wDJ38yPNn5iwav5d0V9&#xA;R086dDAZ45YFpLHJKWUrI6N0cHpTFXz75y/LXzz5LW0bzPpMumrfFxas7RuHMXHmKxs9Kcx1xVjO&#xA;KuxV2KuxV2KvdP8AnFz81vJP5f3vmFvM80tt+ko7UWk8cTzL+4MpkVhGGYE+otNuxxVlX/OSX57f&#xA;l1528gQaJ5bvJru+/SENw6vbywqscccgJLSKvdxsMVfNNhY3eoX1tYWcRnvLuVILaFftPLKwRFFe&#xA;5Y0xV6GP+cbvztJp/haf/kda/wDVXFX3n5Q0660zynomm3ahbqysLW3uFBDASRQqjgEbH4lxVNsV&#xA;dirsVdiqA8w2k95oGpWluvOe4tZ4oUqBV3jZVFTQDc4q+Bj/AM42/ncG4/4WmrWn9/a0+/1aYq87&#xA;1HT73TtQudPvoWt72zle3uoH+1HLExR0b3VgRiqHxV2KuxV2KuxV9pflz/zk9+UeleQfLmk6lqFx&#xA;a3+m6baWV1CbWZ6SW0KxMQ0aupUlKjfpir5e/N/zZpnm38yde8w6WJBp99OptjKOLlI40iDFd6cu&#xA;FQMVQnk38tvPHnQXZ8saTLqQseH1po2jQIZeXAEyMg34Hpir6F/5xf8AyZ/Mbyp+YF1rfmPSTplg&#xA;lhLbq0ssTM8kskZUIsbP0EZrXFX1TirsVdirsVdir5q/5zV0rU9Q0zyoLCznuzHPeGQQRvIVBSGl&#xA;eANK0xV8q/4T80/9Wa+/6Rpv+acVd/hPzT/1Zr7/AKRpv+acVd/hPzT/ANWa+/6Rpv8AmnFXf4T8&#xA;0/8AVmvv+kab/mnFXf4T80/9Wa+/6Rpv+acVd/hPzT/1Zr7/AKRpv+acVd/hPzT/ANWa+/6Rpv8A&#xA;mnFWS/lp5S8xH8x/KguNKvYYP0xp/rSm3lUIn1qPk3IrQUG9Tir9GsVdirsVdirsVdirsVdir86P&#xA;zT8seZJvzO83zQ6TeSRSa3qLxyJbysrK13IQykLQgjFWL/4T80/9Wa+/6Rpv+acVd/hPzT/1Zr7/&#xA;AKRpv+acVd/hPzT/ANWa+/6Rpv8AmnFXf4T80/8AVmvv+kab/mnFXf4T80/9Wa+/6Rpv+acVd/hP&#xA;zT/1Zr7/AKRpv+acVd/hPzT/ANWa+/6Rpv8AmnFX1D/zhPper6evnJb+0uLRZDppiWeN4wxH1rlx&#xA;5gV7Vpir6exV2KuxV//Z</xmpGImg:image>
               </rdf:li>
            </rdf:Alt>
         </xmp:Thumbnails>
      </rdf:Description>
      <rdf:Description rdf:about=""
            xmlns:xmpTPg="http://ns.adobe.com/xap/1.0/t/pg/"
            xmlns:stDim="http://ns.adobe.com/xap/1.0/sType/Dimensions#"
            xmlns:xmpG="http://ns.adobe.com/xap/1.0/g/">
         <xmpTPg:MaxPageSize rdf:parseType="Resource">
            <stDim:w>834.458984</stDim:w>
            <stDim:h>154.000000</stDim:h>
            <stDim:unit>Pixels</stDim:unit>
         </xmpTPg:MaxPageSize>
         <xmpTPg:NPages>1</xmpTPg:NPages>
         <xmpTPg:HasVisibleTransparency>False</xmpTPg:HasVisibleTransparency>
         <xmpTPg:HasVisibleOverprint>False</xmpTPg:HasVisibleOverprint>
         <xmpTPg:PlateNames>
            <rdf:Seq>
               <rdf:li>Black</rdf:li>
            </rdf:Seq>
         </xmpTPg:PlateNames>
         <xmpTPg:SwatchGroups>
            <rdf:Seq>
               <rdf:li rdf:parseType="Resource">
                  <xmpG:groupName>Grupo de muestras por defecto</xmpG:groupName>
                  <xmpG:groupType>0</xmpG:groupType>
               </rdf:li>
            </rdf:Seq>
         </xmpTPg:SwatchGroups>
      </rdf:Description>
      <rdf:Description rdf:about=""
            xmlns:dc="http://purl.org/dc/elements/1.1/">
         <dc:format>image/svg+xml</dc:format>
      </rdf:Description>
   </rdf:RDF>
</x:xmpmeta>
                                                                                                    
                                                                                                    
                                                                                                    
                                                                                                    
                                                                                                    
                                                                                                    
                                                                                                    
                                                                                                    
                                                                                                    
                                                                                                    
                                                                                                    
                                                                                                    
                                                                                                    
                                                                                                    
                                                                                                    
                                                                                                    
                                                                                                    
                                                                                                    
                                                                                                    
                                                                                                    
                           
<?xpacket end="w"?>
	</metadata>
<g>
	<path fill-rule="evenodd" clip-rule="evenodd" d="M309.459,154c-72.333,0-144.667,0-217,0c-0.029-8.499-0.178-17-0.033-25.495
		c0.063-3.686-1.413-5.12-4.997-5.07c-6.998,0.096-14.004-0.15-20.996,0.085c-3.751,0.126-5.028-1.319-4.961-4.917
		c0.13-6.997-0.089-14,0.036-20.997c0.062-3.445-1.358-4.785-4.744-4.716c-5.831,0.118-11.665,0.018-17.498,0.007
		c-8.563-0.016-8.563-0.016-8.58-8.816c-0.011-5.666-0.118-11.334,0.007-16.997c0.079-3.554-1.21-5.149-4.958-5.029
		c-6.16,0.196-12.331,0.054-18.497,0.035c-7.217-0.021-7.229-0.03-7.233-7.028C-0.002,39.063,0,23.063,0.004,7.064
		c0.002-7.512,0.008-7.52,7.572-7.52c273.48-0.001,546.96-0.002,820.44,0.018c2.148,0,4.296,0.285,6.443,0.438
		c0,20.667,0,41.333,0,62c-8.645,0.035-17.29,0.161-25.933,0.06c-3.446-0.041-4.765,1.349-4.709,4.735
		c0.117,7.146-0.121,14.301,0.09,21.443c0.104,3.531-1.304,4.712-4.644,4.659c-6.648-0.104-13.311,0.226-19.946-0.068
		c-4.872-0.215-6.445,1.784-6.282,6.429c0.234,6.642-0.073,13.3,0.042,19.947c0.056,3.206-1.151,4.386-4.391,4.3
		c-6.812-0.181-13.635,0.087-20.446-0.098c-4.119-0.111-6.123,1.143-5.97,5.661c0.281,8.303,0.148,16.62,0.188,24.932
		c-72.333,0-144.667,0-217,0c-0.097-8.152-0.439-16.312-0.193-24.453c0.138-4.58-1.374-6.319-5.969-6.153
		c-6.818,0.246-13.656-0.069-20.479,0.109c-3.385,0.088-4.783-0.979-4.674-4.537c0.209-6.82-0.201-13.666,0.141-20.476
		c0.228-4.539-1.585-5.792-5.791-5.647c-6.653,0.229-13.326-0.126-19.979,0.099c-4.187,0.141-5.399-1.522-5.356-5.576
		c0.178-16.817-0.047-33.64,0.154-50.456c0.051-4.235-1.005-5.834-5.55-5.802c-26.81,0.192-53.622,0.209-80.431-0.012
		c-4.813-0.039-5.849,1.71-5.799,6.084c0.192,16.816-0.017,33.638,0.134,50.456c0.035,3.891-1.319,5.371-5.188,5.287
		c-7.157-0.153-14.321,0.058-21.48-0.021c-3.192-0.036-4.434,1.263-4.371,4.478c0.139,7.157-0.092,14.323,0.075,21.479
		c0.08,3.443-1.153,4.735-4.63,4.645c-6.989-0.183-13.99,0.08-20.98-0.091c-4.104-0.101-5.552,1.512-5.465,5.626
		C309.805,137.354,309.541,145.679,309.459,154z M262.665,123.144c0.011-0.136,0.021-0.271,0.033-0.407
		c3.499,0,7.004-0.129,10.495,0.037c3.357,0.159,4.941-1.107,4.891-4.588c-0.099-6.829-0.112-13.663,0.007-20.492
		c0.059-3.362-1.234-4.866-4.689-4.808c-6.996,0.119-13.996,0.114-20.992,0c-3.328-0.054-4.929,1.075-4.696,4.646
		c0.226,3.484-0.041,6.997,0.066,10.493c0.141,4.613-1.301,11.092,1.121,13.341C251.66,123.929,257.924,122.716,262.665,123.144z
		 M324.55,60.886c3.486,0,6.976-0.104,10.457,0.031c3.11,0.122,4.598-1.052,4.555-4.298c-0.094-7.137-0.076-14.275-0.015-21.413
		c0.026-2.997-1.352-4.073-4.27-4.028c-7.136,0.11-14.278,0.146-21.413-0.013c-3.383-0.076-4.328,1.455-4.191,4.527
		c0.155,3.479,0.031,6.971,0.03,10.456C309.704,60.9,309.704,60.9,324.55,60.886z M757.483,30.901
		c-0.006,0.104-0.013,0.21-0.019,0.314c-3.652,0-7.31,0.107-10.956-0.033c-3.029-0.116-4.175,1.265-4.152,4.15
		c0.055,7.139,0.057,14.278,0.002,21.417c-0.022,2.904,1.188,4.251,4.175,4.16c3.649-0.111,7.305-0.004,10.957-0.004
		c14.724,0.003,14.797,0.001,14.681-14.883c-0.036-4.732,1.1-10.964-1.39-13.74C768.577,29.824,762.084,31.212,757.483,30.901z
		 M293.742,91.778c3.659,0,7.319-0.074,10.975,0.023c2.734,0.073,4.017-1.174,4.021-3.836c0.009-7.316,0.009-14.633,0-21.949
		c-0.003-2.635-1.245-3.929-3.983-3.906c-7.483,0.06-14.974-0.142-22.443,0.182c-1.234,0.054-3.348,2.19-3.401,3.436
		c-0.322,7.47-0.322,14.968-0.004,22.438c0.053,1.249,2.08,3.283,3.381,3.444C286.054,92.077,289.917,91.775,293.742,91.778z
		 M741.226,76.695c0-3.665,0.315-7.373-0.165-10.975c-0.177-1.326-2.19-3.378-3.438-3.432c-7.483-0.32-14.995-0.321-22.478,0.009
		c-1.255,0.055-3.402,2.202-3.457,3.456c-0.327,7.482-0.326,14.994,0.003,22.478c0.054,1.229,2.23,3.33,3.496,3.384
		c7.483,0.322,14.995,0.321,22.479-0.001c1.234-0.053,3.237-2.122,3.399-3.442C741.529,84.396,741.229,80.527,741.226,76.695z
		 M695.654,122.731c3.486,0,6.976-0.105,10.456,0.033c2.914,0.115,4.259-0.927,4.21-3.997c-0.114-7.302-0.088-14.607-0.016-21.91
		c0.027-2.738-1.164-3.932-3.859-3.919c-7.304,0.035-14.607,0.033-21.91-0.002c-2.637-0.013-3.975,1.045-3.948,3.84
		c0.07,7.469-0.137,14.945,0.187,22.401c0.054,1.229,2.126,3.22,3.447,3.382C687.981,123.021,691.837,122.722,695.654,122.731z"/>
</g>
</svg>
