<?xml version="1.0" encoding="iso-8859-1"?>
<!-- Generator: Adobe Illustrator 19.0.0, SVG Export Plug-In . SVG Version: 6.00 Build 0)  -->
<svg version="1.1" id="Capa_1" xmlns="http://www.w3.org/2000/svg" xmlns:xlink="http://www.w3.org/1999/xlink" x="0px" y="0px"
	 viewBox="0 0 512 512" style="enable-background:new 0 0 512 512;" xml:space="preserve">
<g>
	<g>
		<path d="M497,208.285h-15.616c-4.312-10.76-10.158-18.468-15.463-23.773c-13.429-13.431-28.593-17.138-32.92-17.953
			c-13.158-2.481-34.251-3.131-55.481-2.976c-0.063-0.001-0.124-0.01-0.187-0.01c-0.001,0-0.002,0-0.003,0l-238.324,0.048
			c-0.031,0-0.06,0.004-0.09,0.005c-22.688-0.281-45.843,0.279-59.917,2.933c-4.327,0.815-19.491,4.522-32.92,17.953
			c-5.305,5.306-11.152,13.013-15.463,23.773H15c-8.284,0-15,6.716-15,15s6.716,15,15,15h9.366c-0.097,1.931-0.15,3.913-0.15,5.952
			c0,64.701,43.484,99.008,83.887,103.503c4.212,0.469,8.424,0.7,12.62,0.7c27.416-0.001,54.09-9.878,74.692-27.969
			c16.256-14.273,35.162-39.473,42.698-82.187h35.774c7.536,42.713,26.442,67.914,42.698,82.187
			c20.604,18.092,47.274,27.969,74.692,27.969c4.194-0.001,8.41-0.231,12.62-0.7c40.402-4.495,83.887-38.802,83.887-103.503
			c0-2.039-0.053-4.021-0.15-5.952H497c8.284,0,15-6.716,15-15S505.284,208.285,497,208.285z M175.621,297.928
			c-17.433,15.308-40.828,22.599-64.202,19.995c-21.246-2.363-57.203-20.543-57.203-73.687c0-41.285,27.236-47.612,30.342-48.198
			c9.731-1.835,25.877-2.478,43.475-2.478c28.298,0,60.341,1.663,75.426,2.702c0.343,0.023,0.688,0.035,1.031,0.035
			c2.778,0,4.508,1.339,5.291,2.138c0.771,0.785,1.682,2.106,1.647,3.943C210.622,245.027,198.24,278.068,175.621,297.928z
			 M270.741,208.286H241.26v-0.001c0.069-1.759,0.128-3.533,0.162-5.339c0.06-3.191-0.314-6.325-1.08-9.345l31.319-0.006
			c-0.767,3.022-1.143,6.158-1.082,9.352C270.613,204.753,270.672,206.527,270.741,208.286z M400.581,317.924
			c-23.366,2.602-46.77-4.688-64.202-19.995c-22.619-19.86-35.001-52.901-35.807-95.549c-0.034-1.837,0.877-3.158,1.647-3.943
			c0.783-0.799,2.513-2.138,5.291-2.138c0.344,0,0.688-0.012,1.031-0.035c15.083-1.04,47.115-2.704,75.416-2.704
			c17.595,0,33.748,0.644,43.484,2.479c3.105,0.586,30.342,6.913,30.342,48.198C457.784,297.381,421.827,315.56,400.581,317.924z"/>
	</g>
</g>
<g>
</g>
<g>
</g>
<g>
</g>
<g>
</g>
<g>
</g>
<g>
</g>
<g>
</g>
<g>
</g>
<g>
</g>
<g>
</g>
<g>
</g>
<g>
</g>
<g>
</g>
<g>
</g>
<g>
</g>
</svg>
