<?xml version='1.0' encoding='utf-8'?>
<!DOCTYPE svg PUBLIC '-//W3C//DTD SVG 1.1//EN' 'http://www.w3.org/Graphics/SVG/1.1/DTD/svg11.dtd'>
<svg version="1.1" xmlns="http://www.w3.org/2000/svg" viewBox="0 0 512 512" xmlns:xlink="http://www.w3.org/1999/xlink" enable-background="new 0 0 512 512">
  <g>
    <g>
      <path d="m480.6,235.6h-10.9c-9.4-43.7-48.3-76.6-94.8-76.6-38.8,0-72.3,23-87.7,56-11.7-8.1-23.8-11.9-36.1-11-9.9,0.8-18.5,4.4-25.7,9.3-15.8-32.1-48.8-54.3-86.9-54.3-46.5,0-85.4,32.9-94.8,76.6h-12.3c-11.3,0-20.4,9.1-20.4,20.4 0,11.3 9.1,20.4 20.4,20.4h12.2c9.4,43.7 48.3,76.6 94.8,76.6 51.5,0 93.7-40.5 96.7-91.3 4.1-6.8 12.2-11.5 19.1-12 6.2-0.5 15,1.3 24.1,13.4 3.7,50.2 45.5,89.9 96.6,89.9 46.5,0 85.4-32.9 94.8-76.6h10.9c11.3,0 20.4-9.1 20.4-20.4 5.68434e-14-11.3-9.1-20.4-20.4-20.4z"/>
    </g>
  </g>
</svg>
