<?xml version="1.0" encoding="iso-8859-1"?>
<!-- Generator: Adobe Illustrator 19.0.0, SVG Export Plug-In . SVG Version: 6.00 Build 0)  -->
<svg version="1.1" id="Layer_1" xmlns="http://www.w3.org/2000/svg" xmlns:xlink="http://www.w3.org/1999/xlink" x="0px" y="0px"
	 viewBox="0 0 512.002 512.002" style="enable-background:new 0 0 512.002 512.002;" xml:space="preserve">
<path style="fill:#FAD06A;" d="M147.058,345.001H89.342c-45.2,0-81.842-36.642-81.842-81.842v-38.683
	c0-31.743,25.732-57.475,57.474-57.475H175.51c35.902,0,65.007,29.105,65.007,65.007v19.534
	C240.517,303.158,198.674,345.001,147.058,345.001z"/>
<path style="fill:#D95291;" d="M27.337,263.076v-38.517c0-20.741,16.814-37.555,37.555-37.555h110.702
	c24.901,0,45.087,20.186,45.087,45.087v19.367c0,40.615-32.925,73.54-73.54,73.54H89.26
	C55.061,324.998,27.337,297.275,27.337,263.076z"/>
<path style="fill:#A63F70;" d="M175.593,187.004H155.53c24.901,0,45.087,20.186,45.087,45.087v19.367
	c0,40.615-32.925,73.54-73.54,73.54h20.063c40.615,0,73.54-32.925,73.54-73.54v-19.367
	C220.68,207.19,200.494,187.004,175.593,187.004z"/>
<path style="fill:#FAD06A;" d="M364.942,345.001h57.716c45.2,0,81.842-36.642,81.842-81.842v-38.683
	c0-31.742-25.732-57.474-57.474-57.474H336.489c-35.902,0-65.007,29.105-65.007,65.007v19.534
	C271.483,303.158,313.326,345.001,364.942,345.001z"/>
<path style="fill:#D95291;" d="M484.663,263.076v-38.517c0-20.741-16.814-37.555-37.555-37.555H336.407
	c-24.901,0-45.087,20.186-45.087,45.087v19.367c0,40.615,32.925,73.54,73.54,73.54h57.881
	C456.939,324.998,484.663,297.275,484.663,263.076z"/>
<path style="fill:#A63F70;" d="M447.108,187.004h-20c20.741,0,37.555,16.814,37.555,37.555v38.517
	c0,34.199-27.724,61.923-61.923,61.923h20c34.199,0,61.923-27.724,61.923-61.923v-38.517
	C484.663,203.818,467.849,187.004,447.108,187.004z"/>
<rect x="240.43" y="233.891" style="fill:#F5B348;" width="31.07" height="24.07"/>
<path d="M175.593,179.504H64.892c-24.843,0-45.055,20.211-45.055,45.055v38.517c0,38.28,31.143,69.423,69.423,69.423h57.881
	c44.686,0,81.04-36.354,81.04-81.04v-8.741c0-0.003,0-0.006,0-0.01s0-0.006,0-0.01v-10.607
	C228.181,203.094,204.59,179.504,175.593,179.504z M201.873,288.376H41.097c-1.92-3.64-3.447-7.517-4.507-11.583h171.53
	C206.418,280.875,204.324,284.754,201.873,288.376z M213.181,232.091v3.117H34.837v-10.649c0-0.313,0.014-0.623,0.024-0.934h177.347
	C212.837,226.348,213.181,229.179,213.181,232.091z M34.837,261.792v-11.584h178.344v1.25c0,3.515-0.283,6.965-0.814,10.333H34.837
	V261.792z M64.892,194.504h110.702c11.854,0,22.436,5.521,29.331,14.121H39.426C44.747,200.152,54.169,194.504,64.892,194.504z
	 M89.26,317.499c-14.049,0-26.871-5.352-36.537-14.123h135.16c-11.232,8.834-25.377,14.123-40.742,14.123H89.26z"/>
<path d="M447.026,159.501H336.489c-38.089,0-69.39,29.528-72.268,66.892h-16.442c-2.878-37.364-34.179-66.892-72.268-66.892H105.25
	c-4.142,0-7.5,3.358-7.5,7.5s3.358,7.5,7.5,7.5h70.261c31.709,0,57.507,25.797,57.507,57.507v0.815
	c-0.05,0.35-0.085,0.706-0.085,1.07v20.997c-1.768,45.85-39.599,82.611-85.875,82.611H89.342C48.35,337.501,15,304.151,15,263.159
	v-38.684c0-27.556,22.418-49.974,49.974-49.974c4.142,0,7.5-3.358,7.5-7.5s-3.358-7.5-7.5-7.5C29.147,159.501,0,188.648,0,224.475
	v38.684c0,49.263,40.079,89.342,89.342,89.342h57.716c50.947,0,93.194-37.935,99.996-87.041h17.893
	c6.802,49.106,49.048,87.041,99.996,87.041h57.716c17.903,0,35.178-5.278,49.958-15.263c3.432-2.319,4.335-6.981,2.016-10.414
	c-2.319-3.432-6.98-4.333-10.414-2.016c-12.29,8.304-26.661,12.692-41.56,12.692h-57.716c-47.114,0-85.48-38.104-85.938-85.113
	v-18.495c0-0.144-0.013-0.284-0.021-0.426v-1.459c0-31.709,25.797-57.507,57.507-57.507h110.537
	c27.556,0,49.974,22.418,49.974,49.974v38.684c0,13.423-3.614,26.574-10.45,38.032c-2.123,3.557-0.959,8.162,2.597,10.284
	c3.559,2.124,8.162,0.959,10.284-2.597c8.223-13.781,12.569-29.59,12.569-45.718v-38.684
	C512,188.648,482.853,159.501,447.026,159.501z M248.018,241.393h15.965v9.067h-15.965V241.393z"/>
<path d="M364.859,332.499h57.881c38.28,0,69.423-31.143,69.423-69.423v-38.517c0-24.843-20.211-45.055-45.055-45.055H336.407
	c-28.997,0-52.587,23.59-52.587,52.587v10.607c0,0.003,0,0.006,0,0.01s0,0.006,0,0.01v8.741
	C283.819,296.144,320.174,332.499,364.859,332.499z M477.163,261.792h-177.53c-0.532-3.368-0.814-6.818-0.814-10.333v-1.25h178.344
	V261.792z M470.903,288.376H310.127c-2.45-3.621-4.545-7.501-6.247-11.583h171.529C474.35,280.858,472.823,284.736,470.903,288.376z
	 M364.859,317.499c-15.365,0-29.51-5.289-40.742-14.123h135.16c-9.666,8.771-22.488,14.123-36.537,14.123H364.859z M336.407,194.504
	h110.702c10.722,0,20.145,5.648,25.466,14.121H363c-4.142,0-7.5,3.358-7.5,7.5s3.358,7.5,7.5,7.5h114.139
	c0.01,0.311,0.024,0.621,0.024,0.934v10.649H298.819v-3.117c0-2.912,0.344-5.743,0.973-8.466H326c4.142,0,7.5-3.358,7.5-7.5
	s-3.358-7.5-7.5-7.5h-18.923C313.97,200.025,324.553,194.504,336.407,194.504z"/>
<g>
</g>
<g>
</g>
<g>
</g>
<g>
</g>
<g>
</g>
<g>
</g>
<g>
</g>
<g>
</g>
<g>
</g>
<g>
</g>
<g>
</g>
<g>
</g>
<g>
</g>
<g>
</g>
<g>
</g>
</svg>
