<?xml version="1.0" encoding="utf-8"?>
<!-- Generator: Adobe Illustrator 16.0.3, SVG Export Plug-In . SVG Version: 6.00 Build 0)  -->
<!DOCTYPE svg PUBLIC "-//W3C//DTD SVG 1.0//EN" "http://www.w3.org/TR/2001/REC-SVG-20010904/DTD/svg10.dtd" [
	<!ENTITY ns_flows "http://ns.adobe.com/Flows/1.0/">
	<!ENTITY ns_extend "http://ns.adobe.com/Extensibility/1.0/">
	<!ENTITY ns_ai "http://ns.adobe.com/AdobeIllustrator/10.0/">
	<!ENTITY ns_graphs "http://ns.adobe.com/Graphs/1.0/">
]>
<svg version="1.0" id="Capa_1" xmlns:x="&ns_extend;" xmlns:i="&ns_ai;" xmlns:graph="&ns_graphs;"
	 xmlns="http://www.w3.org/2000/svg" xmlns:xlink="http://www.w3.org/1999/xlink" xmlns:a="http://ns.adobe.com/AdobeSVGViewerExtensions/3.0/"
	 x="0px" y="0px" width="1348px" height="482px" viewBox="0 0 1348 482" enable-background="new 0 0 1348 482" xml:space="preserve"
	>
<metadata><?xpacket begin="﻿" id="W5M0MpCehiHzreSzNTczkc9d"?>
<x:xmpmeta xmlns:x="adobe:ns:meta/" x:xmptk="Adobe XMP Core 5.3-c011 66.145661, 2012/02/06-14:56:27        ">
   <rdf:RDF xmlns:rdf="http://www.w3.org/1999/02/22-rdf-syntax-ns#">
      <rdf:Description rdf:about=""
            xmlns:xmp="http://ns.adobe.com/xap/1.0/"
            xmlns:xmpGImg="http://ns.adobe.com/xap/1.0/g/img/">
         <xmp:CreatorTool>Adobe Illustrator CS6 (Windows)</xmp:CreatorTool>
         <xmp:CreateDate>2020-04-04T21:31:59-06:00</xmp:CreateDate>
         <xmp:Thumbnails>
            <rdf:Alt>
               <rdf:li rdf:parseType="Resource">
                  <xmpGImg:width>256</xmpGImg:width>
                  <xmpGImg:height>92</xmpGImg:height>
                  <xmpGImg:format>JPEG</xmpGImg:format>
                  <xmpGImg:image>/9j/4AAQSkZJRgABAgEASABIAAD/7QAsUGhvdG9zaG9wIDMuMAA4QklNA+0AAAAAABAASAAAAAEA&#xA;AQBIAAAAAQAB/+4ADkFkb2JlAGTAAAAAAf/bAIQABgQEBAUEBgUFBgkGBQYJCwgGBggLDAoKCwoK&#xA;DBAMDAwMDAwQDA4PEA8ODBMTFBQTExwbGxscHx8fHx8fHx8fHwEHBwcNDA0YEBAYGhURFRofHx8f&#xA;Hx8fHx8fHx8fHx8fHx8fHx8fHx8fHx8fHx8fHx8fHx8fHx8fHx8fHx8fHx8f/8AAEQgAXAEAAwER&#xA;AAIRAQMRAf/EAaIAAAAHAQEBAQEAAAAAAAAAAAQFAwIGAQAHCAkKCwEAAgIDAQEBAQEAAAAAAAAA&#xA;AQACAwQFBgcICQoLEAACAQMDAgQCBgcDBAIGAnMBAgMRBAAFIRIxQVEGE2EicYEUMpGhBxWxQiPB&#xA;UtHhMxZi8CRygvElQzRTkqKyY3PCNUQnk6OzNhdUZHTD0uIIJoMJChgZhJRFRqS0VtNVKBry4/PE&#xA;1OT0ZXWFlaW1xdXl9WZ2hpamtsbW5vY3R1dnd4eXp7fH1+f3OEhYaHiImKi4yNjo+Ck5SVlpeYmZ&#xA;qbnJ2en5KjpKWmp6ipqqusra6voRAAICAQIDBQUEBQYECAMDbQEAAhEDBCESMUEFURNhIgZxgZEy&#xA;obHwFMHR4SNCFVJicvEzJDRDghaSUyWiY7LCB3PSNeJEgxdUkwgJChgZJjZFGidkdFU38qOzwygp&#xA;0+PzhJSktMTU5PRldYWVpbXF1eX1RlZmdoaWprbG1ub2R1dnd4eXp7fH1+f3OEhYaHiImKi4yNjo&#xA;+DlJWWl5iZmpucnZ6fkqOkpaanqKmqq6ytrq+v/aAAwDAQACEQMRAD8A9UYq7FUHqesaRpVv9Z1S&#xA;+t7C2HWa6lSFP+CcqMVef65/zkj+TGjl0l8yQ3cqdI7FJbrkfASRK0X3virANZ/5zY8j2/JdI0PU&#xA;b9h0acw2qE+xDTtT/Y4qw++/5zd8zTORpvla0gr9hZ7iW4PX/IWCu2ICCaS2X/nK789L9eVjotlE&#xA;j1CNb2N1J37F5ZAT2ywYZnkD8mqWpxx5yiPiEDN/zkN/zkpI/JIZYh/ImlAj/h42P45P8tl/my+R&#xA;a/z2D+fD/TBqP/nIX/nJVHDNHNIB1RtKWh+fGJT+OE6TKOcJfIsR2hpzyyQ/0w/WiV/5y3/OvSyF&#xA;1LTNPelQRd2dxET8XX4JYt+3TKpY5R5ghyIZoT+kg+4p5pn/ADnBraEDVPKttcD9o2t1JB9IEiT/&#xA;AK8g2Mx0r/nNX8vpwq6no2p2LnqYhBcRg03q3qRN/wAJirMtI/5yd/JXU2VBr4s5W/YvIJ4QPnIU&#xA;Mf8Aw2Ks90Pzd5U15Q2iazZamKciLS4imIHuEZiPpxVN8VdirsVWSyxRLzldY0HVmIA+84qwHzP+&#xA;fv5R+W5pbfUfMVu93CSklraB7qQOpoUb0FdVYH+YjFXm2uf85r+RrYsujaJqGpMvR52itI2+RBne&#xA;nzTFWD6p/wA5uecJeX6K8u6faA/Z+syTXJH/AABtsVYvc/8AOUH59auzfo27S3A+0ljYRSU67VlS&#xA;dh9+RMgOZbceDJk+iJl7haUT/mj/AM5CaoeL65q8Zb/fZ+pjYU6oIaZWc8B1Dmw7G1cuWKfyI+9K&#xA;7iX8570MbrV9Un57t62psxJHSvObI/msfe3j2e1p/wAmfs/WhJdJ/NCVDHLc3kkbfaRr5SD8wZcf&#xA;zWPvT/od13+pn5j9aGPlnz+ATSbbwuoz/wAzMfzWPvQfZ7W/6mfmP1tCf8zLN1WK41eNotkMMtwQ&#xA;vH+UxsR92TGeB6hxsnZOqhzxT/0pRNr+bP5taVJ6cfmrWIWT/dM13O4HX/dcrMB92WA24MoGJoii&#xA;yTTf+cofztseKnXxdxr/ALruba2kr83Eaydv5sLFmuh/85r+eLbiutaHp+oovVrdpbSRh7sTcJX5&#xA;Jir0vy7/AM5mflrflI9Ysr/RpT9qQotzAv8Asoj6p/5FYq9Z8qfmP5E82pXy7rlpqL0qYI5OM4Hi&#xA;0L8ZV+lcVeIedv8AnNDQtPmnsvK2iTahcRM0Zu75hbwhlNCVjTnI4+ZTFXivmj/nJ384tfLoNZ/R&#xA;Fs9f9H0tBb8flN8c/wDyUxV5nqGp6lqVy11qN3Ne3LfanuJGlkPzZyTirNfJv5U32sQx3+qyNZaf&#xA;IOUUagevIp6MOQIRT2JBr4U3zc6HsiWUcU/TH7S812p7RwwEwxjjn9g/X+N3pem/l95O09aRaZDK&#xA;xA5PcD1ySO/7zkB/sQM3+LszBDlEH37vI5+3NXl5zI/q7fcn8MEMEaxQxrFEooqIAqgewGZkYCPI&#xA;U6yeSUzciT71+TYOxV2KuwKg7zRdHvm5Xtjb3TDoZokkP/DA5TPTY5c4xPwcnHrc0PpnIe4lINS/&#xA;K/yZfBz9R+qyv/u22do+PyTeP/hcw8vZGnn04fd+Kdng9otXj/i4h/SH4P2vO/Nf5S6rpMEl7psv&#xA;6Qs4/ieMLxnRd9+IqHAHUj7qZo9Z2PPEOKJ4o/a9T2d7SYs5EJjgmfkf1fjdOP8AnHGQJ57uwTQv&#xA;p0oX5iaFtvuzTvSPuXQZvV0WyetT6KKT7qOJ/EYqj6nxxVJNRllF7KA7AVBpU9wDirDPNE/+ncpH&#xA;+GOIEsx6CpJO+KvhHWtRbU9Zv9SYcWvbiW5K+BlcvT/hsVZL5b/L+S9hW71N2ggcVjgSgkYHoWJB&#xA;4j6PuzBz6wRNR3L1/ZHstLPEZMxMYHkBzP6ma2XlnQLKn1exiDA8g7j1HB9mfkw+g5gT1E5cy9lp&#xA;uxNJh+nHG+8+o/baZ5S7UCnYFdirsVdirsVWTQQzxGKeNZYm+1G4DKfmDtkhIjk15cMMgqYEh5i2&#xA;L67+X+mXqtLp4FldbniK+k3sV/Z/2P3ZmYdbIbS3Dy/afsphygyw/u5938J/V8Pk83vbK6srqS1u&#xA;ozFPEaOh7d+3UHsc2kZCQsPnWfBPFMwmKkFDJNSL0ksNVsyrMrevHRlJVh8Y6EUI+jFXat/x1bz/&#xA;AIzyf8TOKoTFWa/lb5Ti1zWmubxA+n6fxeSNhUSSMT6aEd1+Ek/Kh65teydGM2S5fTF0HtD2kdNh&#xA;4Yn1z2HkOpe752L5q7CrsVdirsVdirsVdirsVdgV53pelweVfzn0i5ipBpmsmWNEUUUSyxlDEAO3&#xA;qsjDsK07Zxva2kGLLY+mW/630v2f7QOowVI+uGx/Qfx3PrzyJeerpT2xPxW0hoP8l/iH48s1bvmS&#xA;YqlOsQ8ZVlHRxQ/Mf2Yq8a/O7WRpvlLzDdd/qv1WOhoQ1wBCCP8AVMtcVfKPkrSE1PXI1lAa3th6&#xA;8qno3EgKu4I3Yio8K5j6rLwQ25l3ns9oBqdUBL6I+o/Dp8S9bzRvrTsVdirsVdirsVdirsVdirsV&#xA;Yl+YeiLdaaNRiX/SbP7ZA3aEncbD9knl7CuZ2iy1LhPIvI+1nZoyYfHiPXDn5x/Z+t5lm2fN0XpX&#xA;/HUs/wDjPH/xMYqzj80/yY8/+SLy5vtZ0/lpM1w4h1S2YSwHm1V5EfFGTyoPUUVPSuKvPMVe8flF&#xA;Yx2/kuCZd2vJZppPmrmID7ohnYdi4+HAD/OJ/V+h839p8xlqzH+YAP0/pZpm3eedirsVdirsVdir&#xA;sVdirsVdirAvzgMlvounanb/AAXljfxvBN3T4Wbb/ZouaPt6F4ge6T1PsnkIzyj0MPuI/WX0P+Vf&#xA;ma31FbDUIDS21e2VwtQeLsvIKaftK1VPvnKPoD1LFVG7tfrMBjBAfqhPSoxV8j/85Ua/Jbi28usC&#xA;lzcXDXd1HWjLFFVIgR3DsxI/1cVea/ldERDqMtDRmiQNTaqhiQD/ALLNb2geQe89i8YrLL+qPvZ1&#xA;mte6dirsVdirsVdirsVdirsVdiqnc2yXVvLbSf3c6NE/yccT+vJwNSBaNVjE8UonlKJH2PCc6F8Q&#xA;fVX/ADjt/wA44aTcaVZecvOFubqa7Cz6TpMlREsRo0c8w/bL/aVT8PHc1rsq+n9T0zT9U0+40/UL&#xA;dLqyuo2iuLeUBkdHFGVgexxV+avn/wAtnyz531zQOLLHpt7PBBzPJjCrn0mJoK8o+JxV7F+VhB8i&#xA;aZ7evX/pIkztOxzenj8fvL5l7RxrWz8+H/chlebN0bsVdirsVdirsVdirsVdirsVYL+crIPKChhU&#xA;tdRBN6b8XP07A5pu3D+4/wA4fpek9lgfzX+Yf0My/wCcNtaur+TUtHuomktdGT6zZT0qiNcsQYmP&#xA;ueTr/svDORfRX1TFHX4m+jFVUqp6gYq+Sv8AnNnyn6OqeX/NUSMVuYpNNu5P2Q0J9WCvuyySf8Di&#xA;ryT8rp2a11CCnwxyRuD7yBh/zLzWdoDcF772LyenLHzifv8A1M4zXPcOxV2KuxV2KuxV2KuxV2Ku&#xA;xVbLMsMbzMQFjUuxPQBRXJQFkNOplw45HuifueP+TtCbX/NmjaIASNSvbe1bjsQssiqx+hSTnRPh&#xA;79M7OCKGFY4kEccYCRoooqqooAAOwxVEYq+Iv+cxPLI0z80YtXjWkOu2UUzt2M9v+4cf8i0jP04q&#xA;p/k3ctN5QaM9La6liX5FUk/XJnXdhyvCR3SP6Hzv2qhWqB74D9IZ1m5eadirsVdirsVdirsVdirs&#xA;VdirzD88b8rY6Xp4IIllkuHHcekoRfv9Vs53t/JtGPvL2Xsjh9WTJ5AfpP3B9A/84keTv0P+Wa6r&#xA;MnG78wXD3RJFGFvF+6hU+3ws4/1s5p7d7qBQUGKuxV5V/wA5OeWP09+TmtcE53Gk+nqcHt9WP71v&#xA;ogeTFXxf+Wt6ItZmtWei3UR4r/NJGeQ+5eWYWujcL7nq/ZDUcGqMD/HH7Rv91vTM1D6W7FXYq7FX&#xA;Yq7FXYq7FXYq7FUu8xTJDoGoux4j6vKoPT4mQqv4nLtOLmPe6ztnJwaTKf6BHz2Qv/OKugDVvzhs&#xA;J3XnFpFvcX8gPSoT0EP0STqR8s3z44+8oxRBiq7FXz5/zmf5YN/+X2m69GnKXRL3jI1PswXihHNf&#xA;+MqRDFXgn5HagA2qacz7kR3EUfsKpIfxTOi7Aybyj7i8b7XYdseT3j9I/S9XzpXiHYq7FXYq7FXY&#xA;q7FXYq7FXYq8Q83fWvOP5mW+iaeeTyXEOlWhANOZk4ux9hI7b+Azie1c/iZzXKO34+L6f2BpPB0s&#xA;b+qXqPx5fZT9A/Luj2mj6PZaVZrws9Pt4rW3XwSFAi/gua53SZ4q7FVC+s7e+sriyuU9S2uo3hnj&#xA;PRkkUqw+kHFX5s+ZdE1DyJ5+v9Jm5fWNFvGjUn4fViBqjdvhliIPyORnASBB6uRpNRLDljkjzibe&#xA;oW1xDc28dxC3KKZQ8beKsKjOflEg0X2nBmjlgJx+mQtUyLa7FXYq7FXYq7FXYq7FXYqxf8xL1YPL&#xA;xg2L3ciR0rvxU+oWH0qB9OZuhhc77nlva3U8Gl4Os5D5Df8AU9a/5wo8t8bHzH5kdd5pYdOtn8PT&#xA;X1ph9PqR/dm3fMn1PirsVY3+ZPlZfNfkLXfL1AZNQs5Y7atKCdRzgY1/llVTir89/wAvdYOi+b7R&#xA;5yYopmNpdBvhosh4/FXoFcKx+WZ3Zufws0SeR2PxdV23pPH0soj6huPh+zZ9C53L5W7FXYq7FXYq&#xA;7FXYq7FXYqxvz95nTy/5fmnRgL64rDZL39Rhu9N9kHxfOg75r+0tX4OIkfUdh+PJ2/YvZ/5nOAfo&#xA;jvL9XxU/+cQPIEmqebLrzjeR1sdFVobJmGz3s60JFevpRE192U5xD6k+zY14oBiq7FXYq7FXy/8A&#xA;85kfli9xbWn5gabDV7VVs9bVBv6RNIJzT+Vm9Nj7r4Yq8L/LnXwVOjTtuOUlmT3HV0/42H05rddh&#xA;/jHxe69ku1P+Q0z5x/SP0/Nnea17x2KuxV2KuxV2KuxV2KuxV5f+Yeqi81kWsbVisVKHpT1W3f8A&#xA;UF+jNzosfDC+98v9qtd42p4B9OPb49f1fB9vf849eUz5a/KnQbOROF1dQ/pC7qKH1Ls+qA3usbKv&#xA;0ZlvMvS8VdirsVfnr/zkP5P/AMLfm1rlpGnCzv5P0lZdh6d3V2CjwSXmg+WKs6/LrzSuv+X4zK9d&#xA;QswIbwE1LED4ZP8AZgffXO17M1fjYt/qjsf1vmHbvZ35bOaHonuP0j4fcynNk6V2KuxV2KuxV2Ku&#xA;xVRvLu2s7WW6upFht4VLyysaBQMhOYhEykaAbMWKWSQjEXIvD7+bXfzL882ml6RC0jXMn1bTbY9E&#xA;jrV5ZKV47Dm57Ae2cRr9Yc+Ti/h6PqXZPZ0dJhEf4jvI+f6g+8/y58j6b5M8qad5d08corKP99PS&#xA;hmnbeWVvd3qadht2zCdmyrFXYq7FXYqoX9hZ6hYz2N7CtxZ3UbRXELiqujijKfmMVfB/58/kxqf5&#xA;aeZl1LTAzeWb2YyaVdrU/V5KlxbSEljyQD4CftL7hsBFiizx5JQkJRNSG4X+V/M1trdp2jvogPrE&#xA;H4c0/wAk/h0+el1GnOM+T6v2J2zDWY99so+ofpHl9yd5jO8dirsVdirsVdirsVSbzT5gj0bTWlBB&#xA;u5apaxnu3diPBa1P3d8yNPh8SXk6XtztUaPDY/vJbRH6fcGJflF5Jn88/mLpWjOrSW0k31nVJDU0&#xA;tYTzmLHsXHwA/wAzDN4+SEkmzzfo1bIqR0UBVGygbAAeGKFXFXYq7FXz7/zl5+WN15h8sWnmvSoD&#xA;NqOgB1vo0FXexf4manU+i45U/lZj2xV8ieWPMl95e1aPULT4qfBPCTRZIz1U0+8HscyNLqZYZiUf&#xA;7XC1+hhqcRxz+B7j3voHy75m0nzBYi70+UNQD1oW2kiYj7Lr/Hoe2drpdXDNG4n4dz5jr+z8ulnw&#xA;zHuPQprmU4LsVdirsVdiqW655j0bQ7Y3GpXKwihMcdayPTsiD4m6/R3zH1Gqx4RczX3uZo9Bm1Eu&#xA;HHG/PoPeXkOteYfNH5ia3b6FoNjNLHLJSz06EcpJCP8Adkx+yKDc1PFR1PfOR1/aMs5rlDu/W+h9&#xA;k9iw0gv6sh5n9A/G762/Ib8i7D8vdMN3elLrzTfRgX12u6Qod/q8JP7IP2m/aPtQZrndPYFUKKDF&#xA;W8VdirsVdirsVSfzb5U0TzX5fvNB1qAXGn3qcJF6Mp6rIh34ujfEp8cVfD35sfkP50/LLUjqdi0u&#xA;oeX1blbaxApDRA/sXKLX0z25fYb6eIEogii2Yc08chOB4ZDqEo0P8x7eRVh1dPSkFB9ajBKHbqyj&#xA;dT8q/RmtzaE84vd9m+10SBHUCj/OHL4j9XyZja3tpdxerazJPH0LxsGAPWhp0OYMoGPMU9hp9Viz&#xA;C8chIeRVsg3uxV2KuxVIte836TpCshcXF4NhbRncH/LbcL+v2zJw6WU/IOi7U9oMGlBAPHk/mj9J&#xA;6ff5PN5ZNc8zayqxQy32oXLBLe0t0Z29kjRamg/tzcY8YgKD5hrdbk1OQ5Mhsn7PIPtD/nGz8l7n&#xA;yHoc+pa1Gq+ZdXCieIEN9Wt1+JYeQqCxPxPTatB2rk3Fe3AUFBirsVdirsVaZVZSrAMrCjKdwQex&#xA;xV8xfnT/AM4lx30kmufl5HHb3Lb3OgsRHE+xq1u7HijdPgai96joVXzFc2nmryjrPp3MF1o2qwHd&#xA;JUeF6V8GA5Iae4OTx5ZQPFE0WrNghljwzAlHzZZpv51a/AipfWkF4FFPUWsLsfFiOSfcozcYu3co&#xA;FSAl9jzmf2U08jcDKP2j9f2pl/yvX/tSf9PX/XnLx7QH+Z9v7HFPshHpk/2P7Vy/nohry0Ujbalz&#xA;Xf8A5FDJD2g/of7L9jA+yB6Zf9j/AMeUZ/zzuChEGjoj0NGecuK9thGn68rl2/LpAfNth7Iw/iyE&#xA;+4V+koGHz/8AmZ5nuBYaDZs9wagw6bbPNKQ229fWK08RTMTL2znnyIj7nY6f2a0mM2QZ/wBY/qpn&#xA;vk3/AJxO/MHzHdpqPnO9/Q9tLRpVkf61fuOwoCUSo7s9R/LmslMyNk2XeY8cYDhiAB5Pp/8AL38q&#xA;vJ3kTTzaeXrEQvIALm+lPqXU1P8AfklBt/krRR2GRZsyVQooMVbxV2KuxV2KuxV2KuxVZLDFNG0U&#xA;qCSNwVdGAIIIoQQexxV4j+YH/OJn5e+Y5JbzRS/lzUZCWJtVElqzHu1sxUD/AJ5soxV4hrv/ADiN&#xA;+bOk3Bk0d7TVkU1iktp/q0wp0qs/pKp+Tn54kWyjIxNg0WM3X5d/n/o7sJND1iVuh9KJr4b+Bj9c&#xA;ZUcED0DsMfbGrhyyz+d/elptfzlBodJ1YEdR+j5P+qWR/LY+5s/l3W/6pJTGifnLdTUj0jXHlb9i&#xA;KyuR0HZUjH6sP5fH3Bie2tYf8rP5sj0r8jfz/wBb+A6be21vLtI19crboAf5o3kDkfJDkhigOQDj&#xA;5O0dRMVLJMj+sXpHk/8A5wtmMiTeb9dUIKFrHS1JJ9vrEyin0RH55Y4b6E8k/lj5L8mWvoeXdKhs&#xA;SwCzXNC9xJT+eZ+TnxpWngMVZWqBRt9+KrsVdirsVdirsVdirGfPX/Kv/wBFH/Gf6N/Ru9P0p6Pp&#xA;V78fW25f6u+KvmLzl/0Jv9Yf6r9e9bbn+hvrPCtR0+tfuun8m304qwI/9Cu1NP8AG1Pb9E/xxVF6&#xA;b/0Kp6p+sf4v41X/AHp+oceu/wDvP8Xz/DFXqnkb/oTf1Y/q31b65UV/Tv1nj/svrP8AouKvoTy/&#xA;/hr9HJ/h/wCp/o3/AHX+j/S9D/Y+j8GKpzH6VNuvviqpirsVdirsVdirsVdirsVdirsVdirTcafF&#xA;0xVYfRxVZ+598Vd+598VXD0P9uuKqg49qfRireKuxV2KuxV//9k=</xmpGImg:image>
               </rdf:li>
            </rdf:Alt>
         </xmp:Thumbnails>
      </rdf:Description>
      <rdf:Description rdf:about=""
            xmlns:xmpTPg="http://ns.adobe.com/xap/1.0/t/pg/"
            xmlns:stDim="http://ns.adobe.com/xap/1.0/sType/Dimensions#"
            xmlns:xmpG="http://ns.adobe.com/xap/1.0/g/">
         <xmpTPg:MaxPageSize rdf:parseType="Resource">
            <stDim:w>1348.000000</stDim:w>
            <stDim:h>482.000000</stDim:h>
            <stDim:unit>Pixels</stDim:unit>
         </xmpTPg:MaxPageSize>
         <xmpTPg:NPages>1</xmpTPg:NPages>
         <xmpTPg:HasVisibleTransparency>False</xmpTPg:HasVisibleTransparency>
         <xmpTPg:HasVisibleOverprint>False</xmpTPg:HasVisibleOverprint>
         <xmpTPg:PlateNames>
            <rdf:Seq>
               <rdf:li>Cyan</rdf:li>
               <rdf:li>Magenta</rdf:li>
               <rdf:li>Yellow</rdf:li>
               <rdf:li>Black</rdf:li>
            </rdf:Seq>
         </xmpTPg:PlateNames>
         <xmpTPg:SwatchGroups>
            <rdf:Seq>
               <rdf:li rdf:parseType="Resource">
                  <xmpG:groupName>Grupo de muestras por defecto</xmpG:groupName>
                  <xmpG:groupType>0</xmpG:groupType>
               </rdf:li>
            </rdf:Seq>
         </xmpTPg:SwatchGroups>
      </rdf:Description>
      <rdf:Description rdf:about=""
            xmlns:dc="http://purl.org/dc/elements/1.1/">
         <dc:format>image/svg+xml</dc:format>
      </rdf:Description>
   </rdf:RDF>
</x:xmpmeta>
                                                                                                    
                                                                                                    
                                                                                                    
                                                                                                    
                                                                                                    
                                                                                                    
                                                                                                    
                                                                                                    
                                                                                                    
                                                                                                    
                                                                                                    
                                                                                                    
                                                                                                    
                                                                                                    
                                                                                                    
                                                                                                    
                                                                                                    
                                                                                                    
                                                                                                    
                                                                                                    
                           
<?xpacket end="w"?>
	</metadata>
<g>
	<path fill-rule="evenodd" clip-rule="evenodd" fill="#FEFEFE" d="M1349,159c0,107.957,0,215.914,0,324c-308.667,0-617.333,0-926,0
		c0.332-0.668,0.664-1.336,0.996-2.004c5.054-1.084,10.726-1.241,12.004-7.995c1.333,0,2.667,0,4,0
		c0.167,0.435,0.333,0.869,0.5,1.304c0.167-0.435,0.333-0.869,0.5-1.304c0.333,0,0.667,0,1,0c2.905,1.923,8.767-0.031,12-4
		c1.332-0.001,2.664-0.003,3.996-0.005c2.668-1.665,5.336-3.33,8.004-4.995c0.333,0.001,0.667,0.001,1,0.001
		c6.925-3.163,13.855-6.315,20.729-9.589c0.115-0.055-0.469-1.576-0.727-2.413c-0.002-1-0.004-2-0.006-3
		c1.335-0.335,2.67-0.67,4.005-1.005c0.333,0.669,0.666,1.338,0.999,2.007c2.828,0.561,4.762-1.373,6.001-6.002
		c1-1.001,2-2.003,2.999-3.004c0.667,0.002,1.333,0.004,2,0.005c0.333,0,0.667,0,1,0c0.334-0.333,0.668-0.666,1.001-1
		c3.399,0.135,6.948,0.567,7.997-3.999c0.14,0.076,0.279,0.152,0.42,0.228c-0.139-0.077-0.277-0.154-0.416-0.231
		c0.001-0.332,0.001-0.664,0-0.996c1-0.333,1.999-0.667,2.998-1c1.334-0.667,2.668-1.335,4.002-2.002
		c2.879-2.414,6.54-4.306,5.998-8.999c0.667,0,1.333,0,2,0c0.139,0.076,0.278,0.151,0.417,0.228
		c-0.139-0.076-0.278-0.152-0.417-0.229c0.334-1,0.668-1.999,1.001-2.999c1.333-0.333,2.666-0.666,3.999-1
		c1.667-1.999,3.333-3.999,5-5.999c0.066,0.315,0.104,0.64,0.213,0.938c0.039,0.108,0.349,0.235,0.36,0.22
		c2.819-3.712,5.623-7.436,8.427-11.159h0.002c0.667-0.666,1.334-1.332,2-1.999c0.666-0.333,1.332-0.666,1.998-1
		c2.667-3,5.333-6.001,8-9.002c0.667-1.333,1.333-2.667,2-4c2.667-4,5.333-8,8-12c1-1,2-2,3-3c0.332-0.334,0.664-0.668,0.996-1.003
		c2.669-5.332,5.338-10.665,8.006-15.997c1-2.333,1.999-4.666,2.998-6.998c0.333,0,0.667,0,1-0.001
		c0.35,0.119,0.699,0.237,1.049,0.355c-0.016-0.452-0.031-0.904-0.047-1.356c0.667-1.333,1.334-2.667,2-4
		c0.667-1.667,1.334-3.333,2-5c-0.335-1-0.671-2-1.007-3c0-0.999,0-1.999,0-2.999c0-0.334,0-0.667,0-1.001
		c0.335-0.001,0.671-0.002,1.006-0.003c0.334-0.333,0.668-0.665,1.001-0.998c-0.002-0.334-0.004-0.668-0.007-1.002
		c0.335,0.001,0.67,0.003,1.005,0.004c0.405,0.532,0.81,1.063,1.215,1.595c0.263-0.865,0.525-1.73,0.787-2.596c0.334-1,0.667-2,1-3
		c0.502-1.05,0.828-2.244,1.545-3.116c1.175-1.428,1.282-1.339-0.555-2.884c0.335-0.668,0.669-1.335,1.003-2.002
		c0.335,0.001,0.67,0.002,1.005,0.003c0.979-1.149,2.376-2.146,2.862-3.477c1.87-5.116,3.448-10.339,5.136-15.522
		c0.056,0.731,0.112,1.463,0.168,2.194c0.229-0.063,0.457-0.126,0.685-0.188c-0.282-0.67-0.565-1.34-0.849-2.009
		c-0.334-0.333-0.668-0.666-1.002-0.999c-0.333-0.333-0.667-0.667-1-1c-0.664-0.001-1.328-0.002-1.992-0.004
		c0.664-0.332,1.328-0.664,1.992-0.996c0.333,0,0.667,0,1,0c0.331,0,0.663-0.002,0.994-0.004c5.563-3.92,5.559-10.276,7.004-15.998
		c0.665-2,1.331-4,1.997-6c1.334-4,2.667-8.001,4-12.002c0.003-0.665,0.005-1.331,0.007-1.996c0.685-0.589,1.714-1.048,1.993-1.789
		c1.209-3.212,2.194-6.508,3.269-9.771c2.243-6.813,4.491-13.626,6.736-20.438c0.333-0.334,0.667-0.667,1-1c0.667-1,1.333-2,2-3
		c0-0.334,0-0.668,0-1.002c0.668-0.999,1.335-1.999,2.002-2.999c0.666-1,1.332-1.999,1.998-2.999c0.667-0.667,1.333-1.334,2-2.001
		c2-3.666,4-7.333,6-10.999c1.332-3.333,2.663-6.667,3.995-10c-0.33,0-0.66,0-0.99,0c-0.337,0-0.673,0-1.01,0.001
		c0.335-0.669,0.67-1.337,1.005-2.006c1,0.002,2,0.004,3,0.006c0.843,0.129,2.352,0.537,2.432,0.345
		c2.878-6.85,9.751-8.861,15.05-12.807c2.214-1.648,5.725-2.67,5.519-6.539c1,0,2-0.001,3-0.002c6,0,12,0,18,0
		c5.43,1.054,11.12,1.428,16.206,3.378c3.985,1.528,7.224,5.008,10.794,7.621c0.664,0.001,1.328,0.002,1.992,0.003
		c1.003,1.333,2.006,2.665,3.008,3.997c0.666,0.001,1.332,0.003,1.998,0.004c0.362,1.055,0.726,2.109,1.089,3.164
		c0.304-0.118,0.607-0.236,0.911-0.354c0-0.938,0-1.876,0-2.813c1.031-0.016,2.063-0.031,3.095-0.046l-0.041-0.034
		c0.538,1.307,1.077,2.614,1.615,3.922l0.112,0.432c0.446,1.228,0.894,2.455,1.341,3.682c1.294,3.205,2.9,6.321,3.829,9.628
		c5.032,17.906,9.44,36.001,14.923,53.766c9.198,29.809,23.214,57.407,40.171,83.54c0.69,1.023,1.38,2.046,2.07,3.069
		c0.908,1.014,1.817,2.027,2.726,3.04c-0.484,0.788-1.572,1.924-1.353,2.304c1.174,2.031,2.674,3.873,4.232,6.016
		c0.425-0.782,0.873-1.607,1.321-2.433c0.369,0.701,0.739,1.402,1.109,2.104c0.282,1.337,0.565,2.674,0.849,4.012
		c-0.283,0.67-0.565,1.339-0.849,2.009c0.229,0.063,0.456,0.126,0.685,0.188c0.057-0.731,0.112-1.464,0.168-2.195
		c7.33,13.75,18.063,24.809,28.243,36.9c0.822-1.827,1.289-2.864,1.755-3.9c1.733,2.102,3.537,4.15,5.159,6.334
		c0.524,0.706,0.572,1.767,0.839,2.665c0.334,0.334,0.668,0.667,1.002,1.001c0.667,0.333,1.333,0.667,2,1
		c1.07,6.594,6.803,9.194,11.18,12.896c5.167,4.368,10.519,8.519,15.711,12.699c0.204-0.293,0.656-0.944,1.109-1.595
		c0.667,0,1.333,0,2,0c0.922,2.12,1.844,4.24,2.767,6.36c0.411-0.156,0.822-0.313,1.233-0.468c0-0.964,0-1.929,0-2.893
		c0.333,0,0.667,0,1,0c-0.494,3.245,0.985,4.124,4.009,5.668c6.377,3.257,11.935,8.117,18.291,12.649
		c0.324-1.536,0.513-2.427,0.7-3.317c0.334-0.001,0.668-0.002,1.002-0.003c0.067,0.737,0.134,1.476,0.2,2.213
		c0.198,0,0.396,0.001,0.593,0.001c0.068-0.737,0.137-1.474,0.205-2.211c0.333,1,0.667,2,1,3c1.333,0.667,2.667,1.334,4,2
		c0.333,0.334,0.667,0.667,1,1c5.89,2.688,11.778,5.377,18.277,8.344c-0.492-1.674-0.885-3.009-1.277-4.344
		c0.654,0.612,1.873,1.229,1.87,1.837c-0.022,3.728,3.164,3.804,5.361,4.778c1.778,0.788,3.835,0.946,5.769,1.384
		c5.998,1.668,11.997,3.337,17.995,5.005c0.725,0.524,1.989,1.599,2.095,1.494c3.42-3.366,5.494-0.044,7.91,1.501
		c3.812,0.637,7.608,1.386,11.438,1.89c10.842,1.426,21.694,2.778,32.549,4.104c4.973,0.607,10.279,0.225,14.837,1.908
		c3.267,1.207,3.926,0.018,5.177-1.9c0.425,0.576,0.726,1.398,1.296,1.685c2.07,1.041,3.662,0.35,4.704-1.686
		c0.333-0.333,0.667-0.667,1-1.001v-0.001c0.333,0,0.667,0,1,0V477c0.067,1.045,0.136,2.09,0.203,3.134c0.198,0,0.396,0,0.594,0
		c0.067-1.044,0.136-2.089,0.203-3.134v-0.001c0.333,0,0.667,0,1,0V477c0.067,1.045,0.136,2.09,0.203,3.134c0.198,0,0.396,0,0.594,0
		c0.067-1.044,0.136-2.089,0.203-3.134v-0.001c0.333,0,0.667,0,1,0V477c0.067,1.045,0.136,2.09,0.203,3.134c0.198,0,0.396,0,0.594,0
		c0.067-1.044,0.136-2.089,0.203-3.134v-0.001c0.333,0,0.667,0,1,0l0,0c0,0.994,0,1.988,0,3.023c4.36,0,8.64,0,13,0
		c0-1.035,0-2.029,0-3.023c0.333,0,0.667,0,1,0V477c0.067,1.045,0.135,2.09,0.203,3.134c0.198,0,0.396,0,0.594,0
		c0.068-1.044,0.136-2.089,0.203-3.134v-0.001c0.333,0,0.667,0,1,0V477c0,0.965,0,1.93,0,2.954c1.03,0,1.97,0,3,0
		c0-1.024,0-1.989,0-2.954v-0.001c0.333,0,0.667,0,1,0V477c0.067,1.045,0.135,2.09,0.203,3.134c0.197,0,0.396,0,0.594,0
		c0.067-1.044,0.136-2.089,0.203-3.134v-0.001c0.333,0,0.667,0,1,0V477c0.067,1.045,0.136,2.09,0.203,3.134c0.198,0,0.396,0,0.594,0
		c0.067-1.044,0.136-2.089,0.203-3.134v-0.001c0.333,0,0.667,0,1,0s0.667,0,1,0s0.667,0,1,0V477c0.067,1.045,0.135,2.09,0.203,3.134
		c0.198,0,0.396,0,0.594,0c0.067-1.044,0.136-2.089,0.203-3.134v-0.001c0.333,0,0.667,0,1,0V477c0.067,1.045,0.136,2.09,0.203,3.134
		c0.198,0,0.396,0,0.594,0c0.067-1.044,0.136-2.089,0.203-3.134v-0.001c0.333,0,0.667,0,1,0l0,0c0,0.994,0,1.989,0,3.511
		c2.109-0.53,4.055-1.021,5.992-1.664c0.016,0.309-0.037,0.519,0.044,0.607c0.206,0.229,0.472,0.403,0.713,0.6
		c-0.21-0.373-0.42-0.746-0.757-1.207c0.008-0.513,0.008-1.18,0.008-1.847c0.333,0,0.667,0,1,0s0.667,0,1,0
		c5.252-0.499,10.58-0.607,15.733-1.61c4.919-0.957,9.438-4.42,14.822-1.549c0.834,0.445,2.249-0.135,3.381-0.325
		c3.104-0.522,5.98-3.881,9.42-0.703c0.228,0.21,1.372-0.175,1.755-0.591c4.385-4.765,10.865-2.7,16.174-4.908
		c5.051-2.1,11.253-1.24,16.754-2.52c2.942-0.684,5.442-3.188,8.207-4.758c1.034-0.588,2.229-1.136,3.387-1.219
		c5.552-0.398,9.623-4.852,15.208-5.335c2.25-0.194,4.608-1.365,6.529-2.665c4.2-2.842,8.397-5.48,13.63-5.815
		c1.59-0.18,3.315-0.026,4.744-0.605c3.629-1.473,6.979-3.974,10.714-4.75c3.922-0.814,6.884-1.679,6.956-6.264
		c4.371,1.306,9.087-2.014,9.586-6.382c0.864-1.697,1.508-3.56,2.638-5.057c2.287-3.028,5.235-5.616,7.187-8.826
		c3.053-5.021,5.478-10.422,8.218-15.637c2.649-5.043,5.146-10.186,8.116-15.036c2.172-3.547,5.692-6.382,7.351-10.098
		c1.757-3.935-0.291-8.749,3.247-12.905c2.176-2.557,1.62-7.257,3.01-10.705c2.57-6.373,1.794-14.13,7.94-19.122
		c0.771-0.626,0.188-2.949,0.189-4.486c0.003-1.576-0.418-3.259-0.004-4.709c1.566-5.483,3.338-10.909,5.142-16.32
		c2.123-6.368,4.451-12.668,6.511-19.055c1.224-3.794,2.521-7.646,3.024-11.569c0.599-4.657-0.252-9.547,0.661-14.108
		c1.417-7.085,4.313-13.881,5.639-20.976c1.855-9.93,3.587-19.822,7.155-29.339c1.319-3.517,0.875-7.963,2.85-10.9
		c2.817-4.193,3.636-7.967,2.327-12.357c1.013-1.445,1.023-3.32,1.911-4.576c3.763-5.32,7.217-11.071,11.928-15.428
		C1341.823,163.215,1343.622,158.104,1349,159z M733.3,190.23c0.135,0,0.27-0.001,0.404-0.001c0-0.493,0-0.986,0-1.479
		c-0.135,0-0.27,0-0.404,0C733.3,189.244,733.3,189.737,733.3,190.23z M875.753,430.031c-0.072-0.134-0.145-0.267-0.217-0.4
		c-0.096,0.116-0.257,0.227-0.268,0.35c-0.011,0.126,0.127,0.265,0.2,0.397C875.563,430.263,875.658,430.146,875.753,430.031z
		 M1041.387,479.719c-0.05,0.142-0.135,0.284-0.13,0.425c0.001,0.047,0.228,0.087,0.351,0.131c0.05-0.142,0.135-0.284,0.13-0.425
		C1041.735,479.803,1041.51,479.762,1041.387,479.719z M1073.614,480.28c0.05-0.142,0.134-0.284,0.129-0.425
		c-0.001-0.047-0.228-0.087-0.351-0.131c-0.05,0.142-0.134,0.284-0.129,0.425C1073.265,480.196,1073.49,480.237,1073.614,480.28z"/>
	<path fill-rule="evenodd" clip-rule="evenodd" fill="#FEFEFE" d="M198,483c-65.667,0-131.333,0-197,0C1,322.333,1,161.667,1,1
		c449.333,0,898.666,0,1348,0c0,17.333,0,34.667,0,52c-0.611-0.002-1.222-0.004-1.833-0.007c2.899-6.873-2.51-7.553-6.769-8.981
		c-10.022-3.364-19.907-7.319-30.143-9.84c-23.43-5.771-46.939-11.312-70.604-16.003c-16.213-3.214-32.715-5.046-49.136-7.119
		c-15.374-1.941-30.794-3.577-46.228-4.984c-10.966-1.001-21.98-1.557-32.985-2.022c-12.236-0.519-24.486-0.986-36.729-0.97
		c-14.076,0.02-28.152,0.568-42.227,0.935c-11.245,0.294-22.491,0.604-33.732,1.017c-5.42,0.199-10.844,0.517-16.243,1.021
		c-13.337,1.244-26.66,2.639-39.991,3.952c-10.407,1.024-20.845,1.8-31.22,3.086c-11.268,1.397-22.475,3.286-33.716,4.909
		c-11.888,1.718-23.83,3.112-35.667,5.127c-13.84,2.356-27.617,5.107-41.375,7.919c-11.943,2.441-23.821,5.206-35.728,7.827
		c-1.609,0.236-3.236,0.386-4.824,0.721c-8.593,1.811-17.176,3.668-25.763,5.509c-3.109,0.301-6.214,0.77-9.33,0.872
		c-12.413,0.407-24.829,0.689-37.243,1.047c-1.418,0.041-2.83,0.263-5.43,0.517c1.021,5.991,2.541,11.389,2.69,16.823
		c0.134,4.835,0.212,9.48,2.062,14.026c0.223,0.547-1.158,1.746-1.795,2.643c-3.296-8.633-6.609-17.258-9.876-25.9
		c-1.111-2.94-1.286-7.043-3.38-8.575c-2.076-1.52-6.032-0.471-9.163-0.548c-13.588-0.335-27.185-0.463-40.759-1.088
		c-7.563-0.348-15.15-1.173-22.606-2.476c-3.761-0.656-4.488,0.506-4.284,3.647c-6.698-1.33-13.397-2.661-20.096-3.992
		c-14.441-2.696-28.848-5.609-43.335-8.027c-13.768-2.299-27.626-4.047-41.436-6.096c-15.41-2.287-30.777-4.884-46.222-6.897
		c-15.208-1.981-30.462-3.755-45.748-4.975c-17.556-1.401-35.162-2.731-52.758-2.913c-16.994-0.176-34.021,0.874-51.001,1.897
		c-15.858,0.956-31.688,2.457-47.508,3.961c-11.848,1.125-23.714,2.274-35.474,4.063c-15.028,2.287-29.987,5.072-44.921,7.929
		c-17.111,3.273-34.282,6.364-51.216,10.412C77.035,50.582,39.102,60.81,3,74.099c0,23.328,0.156,46.236-0.104,69.139
		c-0.069,6.066,0.125,10.865,7.63,12.135c2.633,0.446,4.936,2.844,7.389,4.351c-3.063,2.195-2.312,4.688-0.479,7.174
		c2.134,2.896,4.259,5.811,6.606,8.527c0.59,0.684,2.208,1.148,3.021,0.839c2.058-0.781,8.926,2.064,9.535,4.264
		c2.068,7.461,2.068,7.461,10.22,7.48c2.071,7.721,4.158,15.438,6.211,23.162c8.124,30.555,15.792,61.239,24.497,91.627
		c6.833,23.852,14.693,47.422,22.601,70.947c3.46,10.292,7.3,20.651,12.576,30.08c5.01,8.953,12.12,16.73,18.306,25.025
		c2.292,2.843,4.353,5.927,6.974,8.423c1.256,1.197,3.573,1.281,5.409,1.869c0.428,0.459,0.856,0.917,1.285,1.375
		c-0.087-0.103-0.174-0.205-0.26-0.308c-0.031,0.058-0.093,0.161-0.086,0.166c0.172,0.117,0.352,0.225,0.53,0.334
		c0.382,0.05,0.765,0.099,1.147,0.148c0.33,1.381,0.659,2.763,0.988,4.145c1.001,1,2.002,2.001,3.003,3.001
		c0.797-0.952,1.594-1.904,2.391-2.856l0.153,0.064c0.772,2.994,1.237,6.126,2.485,8.906c0.425,0.947,3.001,0.723,4.275,1.534
		c3.423,2.18,5.257,6.929,10.456,6.321c0.329-0.038,0.821,1.319,1.238,2.028c0.001,0.335,0.002,0.67,0.003,1.005
		c0,0.997-0.001,1.994-0.001,2.991c0.332-1.332,0.664-2.665,0.996-3.997c1.333,0.334,2.667,0.668,4.001,1.002
		c-0.001,0.333-0.001,0.666,0.002,0.999c1.571,0.561,3.229,0.955,4.693,1.72c2.5,1.305,4.878,2.842,7.308,4.281
		c0.334,0.334,0.667,0.667,1.001,1.001l0.499,0.003l0.499-0.001c0,0.956,0,1.912,0,1.786c3.056,0.843,5.531,1.526,8.007,2.209
		C198.003,478.999,198.001,481,198,483z"/>
	<path fill-rule="evenodd" clip-rule="evenodd" fill="#F6F6F6" d="M1347.167,52.993c0.611,0.003,1.222,0.005,1.833,0.007
		c0,35.333,0,70.667,0,106c-5.378-0.896-7.177,4.215-9.961,6.79c-4.711,4.356-8.165,10.107-11.928,15.428
		c-0.888,1.256-0.898,3.131-1.911,4.576c1.309,4.391,0.49,8.164-2.327,12.357c-1.975,2.938-1.53,7.384-2.85,10.9
		c-3.568,9.517-5.3,19.409-7.155,29.339c-1.325,7.095-4.222,13.891-5.639,20.976c-0.913,4.562-0.063,9.451-0.661,14.108
		c-0.504,3.924-1.801,7.775-3.024,11.569c-2.06,6.387-4.388,12.687-6.511,19.055c-1.804,5.411-3.575,10.837-5.142,16.32
		c-0.414,1.45,0.007,3.133,0.004,4.709c-0.002,1.537,0.582,3.86-0.189,4.486c-6.146,4.992-5.37,12.749-7.94,19.122
		c-1.39,3.448-0.834,8.148-3.01,10.705c-3.538,4.156-1.49,8.971-3.247,12.905c-1.658,3.716-5.179,6.551-7.351,10.098
		c-2.971,4.851-5.467,9.993-8.116,15.036c-2.74,5.215-5.165,10.615-8.218,15.637c-1.951,3.21-4.899,5.798-7.187,8.826
		c-1.13,1.497-1.773,3.359-2.638,5.057c-2.099,0.556-4.529,0.621-6.228,1.769c-3.504,2.367-6.354,5.762-9.97,7.888
		c-3.34,1.963-7.482,2.518-10.969,4.29c-1.761,0.896-5.393,0.211-4.834,4.055c-5.232,0.335-9.43,2.974-13.63,5.815
		c-1.921,1.3-4.279,2.471-6.529,2.665c-5.585,0.483-9.656,4.937-15.208,5.335c-1.157,0.083-2.353,0.631-3.387,1.219
		c-2.765,1.569-5.265,4.074-8.207,4.758c-5.501,1.279-11.703,0.42-16.754,2.52c-5.309,2.208-11.789,0.144-16.174,4.908
		c-0.383,0.416-1.527,0.801-1.755,0.591c-3.439-3.178-6.315,0.181-9.42,0.703c-1.132,0.19-2.547,0.771-3.381,0.325
		c-5.384-2.871-9.903,0.592-14.822,1.549c-5.153,1.003-10.481,1.111-15.733,1.61c-0.333,0-0.667,0-1,0s-0.667,0-1,0c-2,0-4,0-6,0
		l0,0c-0.333,0-0.667,0-1,0V477c-0.333,0-0.667,0-1,0v-0.001c-0.333,0-0.667,0-1,0V477c-0.333,0-0.667,0-1,0v-0.001
		c-0.333,0-0.667,0-1,0s-0.667,0-1,0s-0.667,0-1,0V477c-0.333,0-0.667,0-1,0v-0.001c-0.333,0-0.667,0-1,0V477c-0.333,0-0.667,0-1,0
		v-0.001c-0.333,0-0.667,0-1,0V477c-0.333-0.001-0.667-0.002-1-0.002s-0.667,0-1,0s-0.667,0.001-1,0.002v-0.001
		c-0.333,0-0.667,0-1,0V477c-0.333,0-0.667,0-1,0v-0.001c-0.333,0-0.667,0-1,0c-4.333,0-8.667,0-13,0l0,0c-0.333,0-0.667,0-1,0V477
		c-0.333,0-0.667,0-1,0v-0.001c-0.333,0-0.667,0-1,0V477c-0.333,0-0.667,0-1,0v-0.001c-0.333,0-0.667,0-1,0V477
		c-0.333,0-0.667,0-1,0v-0.001c-0.333,0-0.667,0-1,0V477c-0.333,0-0.667-0.001-1-0.001c-1.667-0.001-3.333-0.001-5-0.001
		c-0.965-0.81-1.974-2.366-2.886-2.312c-8.054,0.484-15.982,0.818-23.934-1.556c-4.602-1.373-9.589-1.479-14.412-2.082
		c-8.092-1.012-16.19-1.965-24.258-2.939c0.125,0.991,0.307,2.441,0.489,3.891c-2.416-1.545-4.49-4.867-7.91-1.501
		c-0.105,0.104-1.37-0.97-2.095-1.494c-3.574-7.845-11.574-5.819-17.995-8.806c0,1.842,0,2.821,0,3.801
		c-1.934-0.438-3.99-0.596-5.769-1.384c-2.197-0.975-5.384-1.051-5.361-4.778c0.003-0.608-1.216-1.225-1.87-1.837
		c-3.116-1.411-6.38-2.571-9.305-4.305c-2.812-1.666-5.193-1.383-7.695,0.305c-0.333-0.333-0.667-0.666-1-1
		c-0.423-1.161-0.845-2.322-1.268-3.483c-0.911,0.494-1.821,0.989-2.732,1.483c-0.333-1-0.667-2-1-3
		c-0.332-0.002-0.665-0.003-0.998-0.003c-0.334,0.001-0.668,0.002-1.002,0.003c-0.578-1.017-0.906-2.53-1.775-2.966
		c-4.33-2.167-8.803-4.051-13.225-6.034c-0.667-0.336-1.333-0.672-2-1.009c-2-1.663-4-3.327-6-4.991c-0.333,0-0.667,0-1,0
		c-1.333-1-2.667-2-4-3c-0.667,0-1.333,0-2,0c-0.967-1.619-1.677-3.493-2.966-4.792c-1.578-1.59-3.745-2.575-5.478-4.036
		c-5.762-4.856-11.421-9.834-17.188-14.684c-0.543-0.456-1.567-0.339-2.368-0.488c-0.667-0.333-1.333-0.667-2-1
		c-0.334-0.334-0.668-0.667-1.002-1.001c-0.267-0.898-0.314-1.959-0.839-2.665c-1.622-2.184-3.426-4.232-5.159-6.334
		c-2.494-3.819-8.082-5.425-7.961-11.118c6.642,6.196,12.919,12.85,19.998,18.497c16.416,13.096,33.929,24.483,53.099,33.346
		c18.063,8.35,36.834,14.615,56.284,18.026c21.145,3.707,42.552,6.966,63.953,7.888c25.371,1.093,50.866,1.372,76.256-2.441
		c19.38-2.911,38.341-7.035,56.94-13.104c20.699-6.754,40.189-16.231,59.474-26.164c3.7-1.905,7.268-4.289,10.414-7.008
		c11.328-9.788,17.873-22.841,24.19-36.066c13.276-27.793,22.29-57.142,30.062-86.741c8.789-33.479,15.937-67.405,23.156-101.274
		c5.332-25.014,18.906-43.092,43.136-54.937c0-14.774-0.021-30.353,0.007-45.932C1347.027,74.979,1347.111,63.986,1347.167,52.993z
		 M962.29,467.248c0.14,0,0.279,0,0.419,0c0-0.499,0-0.997,0-1.496c-0.14,0-0.279,0-0.419,0
		C962.29,466.251,962.29,466.749,962.29,467.248z"/>
	<path fill-rule="evenodd" clip-rule="evenodd" fill="#F5F5F5" d="M198.005,476.999c-2.476-0.683-4.951-1.366-8.007-2.209
		c0,0.126,0-0.83,0-1.786c0.059-0.741,0.117-1.483,0.176-2.225c-0.392,0.075-0.783,0.15-1.175,0.225
		c-0.333,0.332-0.665,0.663-0.998,0.995l-0.002,0.002c-2.429-1.439-4.808-2.977-7.308-4.281c-1.465-0.765-3.123-1.159-4.693-1.72
		c0-0.333-0.001-0.666-0.002-0.999c-1.333-0.334-2.667-0.668-4.001-1.002c-0.333,0-0.665,0.001-0.998,0.001
		c-0.417-0.709-0.909-2.066-1.238-2.028c-5.199,0.607-7.033-4.142-10.456-6.321c-1.274-0.812-3.851-0.587-4.275-1.534
		c-1.248-2.78-1.713-5.912-2.485-8.906c1.162,0.759,2.264,1.635,3.495,2.258c9.603,4.862,18.957,10.351,28.902,14.374
		c26.429,10.691,54.184,16.635,82.529,17.842c21.596,0.92,43.398-0.087,64.951-2.006c15.686-1.397,31.248-5.12,46.629-8.795
		c32.131-7.675,63.138-18.493,92.048-34.852c22.554-12.762,42.339-28.742,59.043-48.604c14.004-16.649,25.523-34.995,35.793-54.005
		c13.539-25.064,21.997-52.287,31.092-79.189c6.244-18.47,12.611-36.897,18.924-55.345c1.911,3.11,3.573,6.673,7.21,5.097
		c4.123-9.753,7.727-18.746,11.748-27.548c1.54-3.371,4.034-6.305,6.095-9.438L641,165.001c1.003-0.667,2.006-1.334,3.01-2.002
		c2.079-1.037,4.169-2.055,6.236-3.115c14.869-7.626,30.247-11.186,46.742-5.883c4.683,3.339,9.7,6.303,13.957,10.116
		c4.715,4.224,8.735,9.223,13.058,13.884c-0.334,1.666-0.669,3.331-1.003,4.997c-3.57-2.613-6.809-6.093-10.794-7.621
		c-5.086-1.95-10.776-2.324-16.206-3.378c-0.905-5.316-4.255-7.933-6.46-5.067c-2.393,3.107-5.062,2.296-7.378,1.783
		c-3.354-0.742-4.225,0.344-4.162,3.284c-1,0.001-2,0.002-3,0.002c-2.219-4.124-5.177-1.14-6.695,0.065
		c-4.086,3.242-7.578,7.234-11.306,10.929c-0.333,0-0.665,0-0.998,0c-0.669,0.669-1.337,1.337-2.006,2.006
		c-2.181,0.957-4.361,1.914-6.544,2.872c0.555,1.119,1.052,2.121,1.549,3.123c-0.335,0.669-0.67,1.337-1.005,2.006
		c-2.332,3.997-4.663,7.995-6.995,11.992l-0.005,0.005C640.663,205,640.332,205,640,205c-0.667,0.334-1.333,0.667-2,1.001
		c-0.249-0.351-0.497-0.701-0.746-1.052c0.249,0.35,0.497,0.7,0.746,1.05c-0.333,1.334-0.667,2.667-1,4.001
		c-4.762,4.34-9.061,8.94-9,15.994c-1.609,3.764-3.326,7.486-4.795,11.305c-1.222,3.176-2.151,6.465-3.21,9.703
		c0.002,0.998,0.003,1.995,0.005,2.993c-1,0.335-2,0.67-3,1.006c-0.333,0.664-0.666,1.329-1,1.993
		c-0.002,2.003-0.004,4.005-0.006,6.007c-3.056,2.326-2.891,5.055-0.999,7.999c-0.668,1-1.335,2-2.003,3
		c-4.542,3.486-6.623,8.487-4.992,15.995c-4.979,1.382-3.815,5.493-4,9.005c-0.664,0.332-1.328,0.664-1.993,0.996
		c-0.004,1.668-0.008,3.336-0.012,5.004c-1.592,1.517-3.184,3.033-5.362,5.109c1.977,0.403,3.169,0.647,4.361,0.891
		c-2.181,2.347-5.497,3.982-4.999,8.002c0.333,0.665,0.667,1.33,1,1.996c-0.334,0.667-0.668,1.334-1.002,2.002
		c-3.251,1.139-2.034,3.767-2.001,6c-1.231-0.401-2.463-0.803-4.549-1.483c0.66,2.333,1.106,3.907,1.552,5.48
		c0.003,0.334,0.005,0.668,0.007,1.003c-0.333,0.332-0.667,0.664-1.001,0.997c-0.335,0.001-0.671,0.002-1.006,0.003
		c-0.332,0.333-0.663,0.666-0.995,0.999c-0.351,0.249-0.701,0.498-1.052,0.748c0.351-0.249,0.701-0.497,1.052-0.746h0.498h0.497
		c0,1,0,2,0,2.999c-0.638-0.15-1.343-0.535-1.893-0.379c-0.461,0.131-0.742,0.896-1.103,1.379c-0.668,2.334-1.337,4.669-2.005,7.003
		c-0.332,1.33-0.663,2.661-0.995,3.991c-0.667,0.669-1.333,1.337-2,2.006c-3.118,1.657-3.31,2.418-1.006,4
		c-0.001,0.667-0.001,1.333-0.002,2c-3.217,1.176-7.253,1.29-7.125,6.42c0.026,1.089-1.552,2.175-2.279,3.333
		c-2.555,4.066-5.061,8.165-7.586,12.251c0,1.332-0.001,2.664-0.002,3.996c-0.333,0.665-0.667,1.329-1,1.994
		c-0.104-1.501-0.209-3.002-0.375-5.382c-2.096,3.392-3.446,5.809-5.024,8.066c-1.64,2.344-3.136,5.021-5.351,6.674
		c-3.197,2.387-3.564,4.27-0.25,6.642c-1.667,0.336-3.333,0.671-5,1.007c-5.155,2.18-9.477,5.193-11.008,11
		c-3.29,0.388-3.064,1.86-1.572,3.272c-1.454,0.896-2.938,1.809-4.42,2.722c-0.333,0.335-0.667,0.67-1,1.005
		c-1.333,1.333-2.667,2.667-4,4c-0.333,0-0.667,0-1,0c-1.333,1.333-2.667,2.667-4,4c-0.669,1.667-1.338,3.333-2.008,5
		c-1.33,0.665-2.661,1.33-3.992,1.995l-0.005,0.004c-0.998,0.665-1.997,1.331-2.995,1.996c-1.669,0.668-3.338,1.336-5.006,2.004
		c-2.867-0.201-4.198,1.131-3.994,3.997c-1,1.001-1.999,2.003-2.999,3.004c-1.669,0.333-3.338,0.666-5.007,0.999
		c-0.665,0.999-1.329,1.997-1.993,2.996c-1.335,0.335-2.67,0.67-4.004,1.005c-0.999,0.998-1.998,1.997-2.997,2.995
		c-0.784-0.168-1.756-0.722-2.321-0.444c-4.352,2.136-8.668,4.356-12.886,6.744c-0.841,0.477-1.212,1.782-1.799,2.705
		c-1.331,0.332-2.661,0.663-3.992,0.994c-1.336,0.336-2.671,0.671-4.007,1.006c-1.999,1-3.997,1.999-5.995,2.999
		c-3.335,1-6.67,2.001-10.005,3.001c-0.999,0.998-1.997,1.996-2.996,2.994c0,0.336,0,0.671,0.001,1.007c-1.333,0-2.667,0-4,0
		c-1.667,0.333-3.334,0.666-5.001,0.999c-2.1,0.274-5.195-1.111-4.999,2.995c-0.335,0.001-0.67,0.003-1.005,0.004
		c-0.921-0.5-2.01-1.604-2.737-1.403c-4.701,1.303-9.367,2.771-13.935,4.477c-1,0.373-1.561,1.921-2.323,2.928
		c-63.667,0-127.333,0-191,0c-0.394-0.444-0.788-0.89-1.182-1.334c-0.272,0.444-0.545,0.89-0.818,1.334c-1,0-2,0-3,0
		C206.001,481,202.003,478.999,198.005,476.999z M575.997,349.996c-0.075,0.141-0.15,0.28-0.226,0.421
		c0.078-0.138,0.155-0.276,0.233-0.414c0.074-0.14,0.149-0.28,0.225-0.42C576.152,349.721,576.074,349.858,575.997,349.996z
		 M704.745,170.173c-0.042-0.144-0.054-0.311-0.141-0.417c-0.034-0.041-0.237,0.057-0.363,0.092c0.043,0.143,0.057,0.31,0.144,0.417
		C704.417,170.305,704.62,170.207,704.745,170.173z"/>
	<path fill-rule="evenodd" clip-rule="evenodd" fill="#F6F6F6" d="M406,483c0.763-1.007,1.324-2.555,2.323-2.928
		c4.568-1.705,9.234-3.174,13.935-4.477c0.727-0.201,1.815,0.903,2.737,1.403c-0.333,1.332-0.666,2.664-0.999,3.997
		c-0.332,0.668-0.664,1.336-0.996,2.004C417.333,483,411.667,483,406,483z"/>
	<path fill-rule="evenodd" clip-rule="evenodd" fill="#F6F6F6" d="M198.005,476.999c3.999,2,7.997,4.001,11.995,6.001c-4,0-8,0-12,0
		C198.001,481,198.003,478.999,198.005,476.999z M200.528,479.624c-0.021,0.247-0.043,0.495-0.064,0.742
		c0.095-0.115,0.255-0.225,0.266-0.347C200.74,479.895,200.604,479.757,200.528,479.624z"/>
	<path fill-rule="evenodd" clip-rule="evenodd" fill="#F6F6F6" d="M213,483c0.272-0.444,0.545-0.89,0.818-1.334
		c0.394,0.444,0.788,0.89,1.182,1.334C214.333,483,213.667,483,213,483z"/>
	<path fill-rule="evenodd" clip-rule="evenodd" d="M1347.167,52.993c-0.056,10.993-0.14,21.986-0.159,32.979
		c-0.027,15.579-0.007,31.157-0.007,45.932c-24.229,11.845-37.804,29.923-43.136,54.937c-7.22,33.869-14.367,67.796-23.156,101.274
		c-7.771,29.6-16.785,58.948-30.062,86.741c-6.317,13.226-12.862,26.278-24.19,36.066c-3.146,2.719-6.714,5.103-10.414,7.008
		c-19.284,9.933-38.774,19.41-59.474,26.164c-18.6,6.068-37.561,10.192-56.94,13.104c-25.39,3.813-50.885,3.534-76.256,2.441
		c-21.401-0.922-42.809-4.181-63.953-7.888c-19.45-3.411-38.221-9.677-56.284-18.026c-19.17-8.862-36.683-20.25-53.099-33.346
		c-7.079-5.647-13.356-12.301-19.998-18.497c-3.021-3.411-6.046-6.819-9.063-10.234c-4.611-5.218-9.218-10.44-13.826-15.661
		c-0.37-0.701-0.74-1.402-1.109-2.104c-1.4-1.962-2.801-3.924-4.201-5.887c-0.908-1.013-1.817-2.026-2.726-3.04
		c-0.69-1.023-1.38-2.046-2.07-3.069c-16.957-26.133-30.973-53.731-40.171-83.54c-5.482-17.765-9.891-35.859-14.923-53.766
		c-0.929-3.307-2.535-6.423-3.829-9.628c-0.095-0.655-0.188-1.312-0.282-1.967c-0.295-0.403-0.59-0.807-0.885-1.21
		c-0.002-0.188-0.06-0.356-0.174-0.505c0,0-0.112-0.432-0.114-0.447c-0.001-0.017-0.016-0.146-0.016-0.146
		c-0.205-0.594-0.41-1.188-0.615-1.781c-0.327-0.659-0.655-1.319-0.982-1.979l0.041,0.034c-1.755-3.981-3.51-7.963-5.265-11.944
		c0.075-0.333,0.15-0.665,0.225-0.998c4.649-13.329,10.177-26.428,13.754-40.038c6.324-24.063,11.565-48.414,17.032-72.695
		c1.663-7.385,2.579-14.937,3.837-22.412c11.906-2.621,23.784-5.386,35.728-7.827c13.758-2.812,27.535-5.563,41.375-7.919
		c11.837-2.015,23.779-3.409,35.667-5.127c11.241-1.623,22.448-3.512,33.716-4.909c10.375-1.286,20.813-2.062,31.22-3.086
		c13.331-1.313,26.654-2.708,39.991-3.952c5.399-0.504,10.823-0.821,16.243-1.021c11.241-0.413,22.487-0.723,33.732-1.017
		c14.074-0.366,28.15-0.915,42.227-0.935c12.242-0.017,24.492,0.451,36.729,0.97c11.005,0.466,22.02,1.021,32.985,2.022
		c15.434,1.407,30.854,3.043,46.228,4.984c16.421,2.073,32.923,3.905,49.136,7.119c23.665,4.691,47.175,10.232,70.604,16.003
		c10.235,2.521,20.12,6.476,30.143,9.84C1344.657,45.44,1350.066,46.12,1347.167,52.993z M779.015,173.098
		c-0.404,0.049-0.81,0.099-1.214,0.147c1.729,13.847,3.097,27.749,5.262,41.526c4.319,27.492,13.785,53.456,26.587,77.943
		c9.28,17.752,20.243,34.719,31.536,51.301c12.515,18.378,28.479,33.615,46.708,46.511c19.717,13.949,41.31,23.769,64.487,30.118
		c20.451,5.603,41.377,9.109,62.56,9.178c25.532,0.083,51.07-1.125,76.604-1.842c7.271-0.204,14.54-0.539,21.799-0.997
		c12.572-0.792,24.34-4.679,35.614-10.015c20.105-9.516,36.723-23.402,51.083-40.36c17.69-20.89,30.368-44.531,39.63-70.062
		c7.574-20.881,13.49-42.257,16.383-64.362c1.679-12.826,3.4-25.647,4.902-38.495c0.631-5.401,0.507-10.891,1.136-16.292
		c2.002-17.191,1.773-34.344-2.54-51.102c-6.467-25.12-18.409-47.089-38.701-64.061c-10.425-8.721-21.85-15.555-34.525-20.203
		c-24.931-9.144-51.157-11.95-77.282-14.927c-13.904-1.585-27.925-2.848-41.903-2.946c-27.928-0.198-55.869,0.237-83.792,0.949
		c-14.319,0.364-28.628,1.686-42.908,2.951c-11.758,1.043-23.581,2.017-35.173,4.131c-20.826,3.797-41.473,8.244-61.604,15.281
		c-27.559,9.633-44.603,28.885-54.666,55.329C781.612,132.202,778.452,152.354,779.015,173.098z"/>
	<path fill-rule="evenodd" clip-rule="evenodd" fill="#F9F9F9" d="M971,472c-0.183-1.449-0.364-2.899-0.489-3.891
		c8.067,0.975,16.166,1.928,24.258,2.939c4.823,0.603,9.811,0.709,14.412,2.082c7.951,2.374,15.88,2.04,23.934,1.556
		c0.912-0.055,1.921,1.502,2.886,2.312c-0.333,0.335-0.667,0.67-1,1.004c-1.251,1.918-1.91,3.107-5.177,1.9
		c-4.558-1.684-9.864-1.301-14.837-1.908c-10.854-1.326-21.707-2.679-32.549-4.104C978.608,473.386,974.812,472.637,971,472z"/>
	<path fill-rule="evenodd" clip-rule="evenodd" fill="#FAFAFA" d="M807.149,355.987c4.608,5.221,9.215,10.443,13.826,15.661
		c3.018,3.415,6.042,6.823,9.063,10.234c-0.121,5.693,5.467,7.299,7.961,11.118c-0.466,1.036-0.933,2.073-1.755,3.9
		c-10.181-12.092-20.913-23.15-28.243-36.9l-0.004-0.002C807.715,358.661,807.432,357.324,807.149,355.987z"/>
	<path fill-rule="evenodd" clip-rule="evenodd" fill="#FAFAFA" d="M617,251.001c1-0.336,2-0.671,3-1.006
		c1.568-1,3.146-2-0.005-2.993c1.059-3.238,1.988-6.527,3.21-9.703c1.469-3.818,3.186-7.541,4.795-11.305c1,0.335,2,0.671,3,1.007
		c-2.245,6.813-4.493,13.625-6.736,20.438c-1.074,3.264-2.06,6.56-3.269,9.771c-0.279,0.741-1.309,1.2-1.993,1.789
		c-1.002,0-2.005,0-3.008,0.001c0.002-2.002,0.004-4.004,0.006-6.006C616.333,252.33,616.667,251.665,617,251.001z"/>
	<path fill-rule="evenodd" clip-rule="evenodd" fill="#FAFAFA" d="M1212,445.001c-0.559-3.844,3.073-3.159,4.834-4.055
		c3.486-1.772,7.629-2.327,10.969-4.29c3.616-2.126,6.466-5.521,9.97-7.888c1.698-1.147,4.129-1.213,6.228-1.769
		c-0.499,4.368-5.215,7.688-9.586,6.382c-0.072,4.585-3.034,5.449-6.956,6.264c-3.734,0.776-7.085,3.277-10.714,4.75
		C1215.315,444.975,1213.59,444.821,1212,445.001z"/>
	<path fill-rule="evenodd" clip-rule="evenodd" fill="#FAFAFA" d="M847,404.001c0.801,0.149,1.825,0.032,2.368,0.488
		c5.768,4.85,11.427,9.827,17.188,14.684c1.732,1.461,3.899,2.446,5.478,4.036c1.289,1.299,1.999,3.173,2.966,4.792
		c-0.453,0.65-0.905,1.302-1.109,1.595c-5.192-4.181-10.544-8.331-15.711-12.699C853.803,413.195,848.07,410.595,847,404.001z"/>
	<path fill-rule="evenodd" clip-rule="evenodd" fill="#FAFAFA" d="M656.999,182.995c3.728-3.694,7.22-7.687,11.306-10.929
		c1.519-1.205,4.477-4.189,6.695-0.065c0.206,3.869-3.305,4.891-5.519,6.539c-5.299,3.945-12.172,5.957-15.05,12.807
		c-0.08,0.192-1.589-0.216-2.432-0.345c0.665-2,1.33-4.001,1.995-6.001c0.669-0.669,1.337-1.337,2.006-2.006l0.499,0.002
		L656.999,182.995z"/>
	<path fill-rule="evenodd" clip-rule="evenodd" fill="#F6F6F6" d="M563.002,377.004c2.525-4.086,5.031-8.185,7.586-12.251
		c0.728-1.158,2.306-2.244,2.279-3.333c-0.128-5.13,3.908-5.244,7.126-6.42c0.336,0,0.673,0,1.009,0
		c-2.668,5.332-5.337,10.665-8.006,15.997c-0.332,0.335-0.664,0.669-0.996,1.003c-1,1-2,2-3,3c-1.667,0.667-3.333,1.333-5,2
		C563.668,377,563.335,377.002,563.002,377.004z"/>
	<path fill-rule="evenodd" clip-rule="evenodd" fill="#FBFBFB" d="M466.994,461c0.587-0.923,0.958-2.229,1.799-2.705
		c4.218-2.388,8.534-4.608,12.886-6.744c0.565-0.277,1.537,0.276,2.321,0.444c1.001,0.002,2.001,0.003,3.002,0.005
		c0.258,0.837,0.841,2.358,0.727,2.413c-6.874,3.273-13.804,6.426-20.729,9.589C466.998,463.002,466.996,462.001,466.994,461z"/>
	<path fill-rule="evenodd" clip-rule="evenodd" fill="#FAFAFA" d="M882,431.001c2,1.664,4,3.328,6,4.992
		c0.667,0.336,1.333,0.672,2,1.008c4.422,1.983,8.895,3.867,13.225,6.034c0.869,0.436,1.197,1.949,1.775,2.966
		c-0.188,0.891-0.376,1.781-0.7,3.317c-6.356-4.532-11.914-9.393-18.291-12.649C882.985,435.125,881.506,434.246,882,431.001z"/>
	<path fill-rule="evenodd" clip-rule="evenodd" fill="#F6F6F6" d="M551,398.994c-3.314-2.372-2.947-4.255,0.25-6.642
		c2.215-1.653,3.711-4.33,5.351-6.674c1.578-2.258,2.929-4.675,5.024-8.066c0.166,2.38,0.271,3.881,0.375,5.382
		c-0.333,1.335-0.667,2.671-1,4.006c-0.667,1.333-1.333,2.667-2,4c-2.667,3.001-5.333,6.002-8,9.002
		C551,399.666,551,399.33,551,398.994z"/>
	<path fill-rule="evenodd" clip-rule="evenodd" fill="#F6F6F6" d="M631,227.001c-1-0.336-2-0.672-3-1.007
		c-0.061-7.054,4.238-11.654,9-15.994c1,1.334,2,2.667,3,4c-0.667,0.667-1.333,1.334-2,2.001c-0.855-0.105-1.711-0.212-2.567-0.317
		c0.19,1.105,0.38,2.211,0.569,3.316c-0.667,1-1.334,2-2.002,2.999c0,0.334,0,0.668,0,1.002c-0.667,1-1.333,2-2,3
		C631.667,226.334,631.333,226.667,631,227.001z"/>
	<path fill-rule="evenodd" clip-rule="evenodd" fill="#FBFBFB" d="M534.992,411.001c1.531-5.807,5.853-8.82,11.008-11l-0.002-0.002
		c1.001,0.333,2.002,0.667,3.002,1.001l0.002,0.002c-0.666,0.667-1.333,1.333-2,1.999c-0.433-0.124-0.865-0.247-1.298-0.371
		c0.432,0.124,0.864,0.247,1.296,0.371c-2.804,3.724-5.607,7.447-8.427,11.159c-0.012,0.016-0.321-0.111-0.36-0.22
		c-0.108-0.299-0.146-0.623-0.213-0.938C536.998,412.335,535.995,411.668,534.992,411.001z M544.172,404.256
		c-0.143,0.042-0.309,0.055-0.416,0.141c-0.04,0.031,0.058,0.234,0.092,0.359c0.143-0.042,0.308-0.056,0.416-0.142
		C544.303,404.583,544.206,404.38,544.172,404.256z"/>
	<path fill-rule="evenodd" clip-rule="evenodd" fill="#F9F9F9" d="M678,171.999c-0.063-2.94,0.809-4.026,4.162-3.284
		c2.316,0.513,4.985,1.324,7.378-1.783c2.205-2.865,5.555-0.249,6.46,5.067C690,171.999,684,171.999,678,171.999z"/>
	<path fill-rule="evenodd" clip-rule="evenodd" fill="#F8F8F8" d="M729.828,175.01c1.755,3.98,3.51,7.962,5.265,11.943
		c-1.031,0.015-2.063,0.03-3.095,0.046c-0.667,0.001-1.334,0.002-2,0.003c-0.666-0.001-1.332-0.003-1.998-0.004
		c-1.002-1.332-2.005-2.664-3.008-3.997c-0.664-0.001-1.328-0.002-1.992-0.003c0.334-1.666,0.669-3.331,1.003-4.997
		C727.763,180.544,728.045,176.314,729.828,175.01z"/>
	<path fill-rule="evenodd" clip-rule="evenodd" fill="#FAFAFA" d="M943,464c0-0.979,0-1.959,0-3.801
		c6.421,2.986,14.421,0.961,17.995,8.806C954.997,467.337,948.998,465.668,943,464z"/>
	<path fill-rule="evenodd" clip-rule="evenodd" fill="#F6F6F6" d="M608,285.995c-1.631-7.508,0.45-12.509,4.993-15.995
		c0.667,0.999,1.335,1.999,2.002,2.998c-0.666,2-1.332,4-1.997,6c-0.667-0.001-1.334-0.002-2-0.003
		c-0.139-0.075-0.277-0.15-0.415-0.226c0.138,0.076,0.274,0.152,0.412,0.229C609.997,281.33,608.998,283.663,608,285.995z"/>
	<path fill-rule="evenodd" clip-rule="evenodd" fill="#FAFAFA" d="M595.995,315.002c-0.498-4.02,2.818-5.655,4.999-8.002
		c0.334-2,0.667-4,1.001-6c0.004-1.668,0.008-3.336,0.012-5.004c0.665,0.002,1.329,0.003,1.993,0.004c0.333,0.333,0.667,0.667,1,1
		c0.334,0.333,0.668,0.666,1.002,0.999l-0.004,0.003c-1.688,5.184-3.266,10.406-5.136,15.522c-0.486,1.33-1.884,2.327-2.862,3.477
		C597.332,316.335,596.663,315.669,595.995,315.002z"/>
	<path fill-rule="evenodd" clip-rule="evenodd" fill="#FAFAFA" d="M442.995,469c3.335-1,6.67-2.001,10.005-3.001
		c0.333,1.001,0.667,2.001,1,3.002c-3.233,3.969-9.095,5.923-12,4C442.332,471.667,442.664,470.334,442.995,469z"/>
	<path fill-rule="evenodd" clip-rule="evenodd" fill="#FAFAFA" d="M913,452.001c2.502-1.688,4.884-1.971,7.695-0.305
		c2.925,1.733,6.188,2.894,9.305,4.305c0.393,1.335,0.785,2.67,1.277,4.344C924.778,457.378,918.89,454.689,913,452.001z"/>
	<path fill-rule="evenodd" clip-rule="evenodd" fill="#FAFAFA" d="M608,285.995c0.998-2.332,1.997-4.665,2.995-6.997l0.003-0.003
		c0.666,0.001,1.333,0.002,2,0.003c-1.445,5.722-1.44,12.078-7.004,15.998c-0.331,0.001-0.663,0.003-0.994,0.004
		c-0.333,0-0.667,0-1,0C604.185,291.488,603.021,287.377,608,285.995z"/>
	<path fill-rule="evenodd" clip-rule="evenodd" fill="#F6F6F6" d="M641,204.994c2.332-3.997,4.663-7.995,6.995-11.992
		c0.337-0.001,0.673-0.001,1.01-0.001h0.495h0.495c-1.332,3.333-2.663,6.667-3.995,10C644.333,203.665,642.667,204.33,641,204.994z"
		/>
	<path fill-rule="evenodd" clip-rule="evenodd" fill="#F8F8F8" d="M1049,476.999c4.333,0,8.667,0,13,0c0,0.994,0,1.988,0,3.023
		c-4.36,0-8.64,0-13,0C1049,478.987,1049,477.993,1049,476.999z"/>
	<path fill-rule="evenodd" clip-rule="evenodd" fill="#FAFAFA" d="M423.996,480.996c0.333-1.333,0.666-2.665,0.999-3.997
		c0.335-0.001,0.67-0.003,1.005-0.004c1.667-0.998,3.333-1.997,4.999-2.995c1.667-0.333,3.334-0.666,5.001-0.999
		C434.722,479.755,429.05,479.912,423.996,480.996z"/>
	<path fill-rule="evenodd" clip-rule="evenodd" fill="#FAFAFA" d="M641,204.994c1.667-0.664,3.333-1.329,5-1.993
		c-2,3.666-4,7.333-6,10.999c-1-1.333-2-2.666-3-4c0.333-1.334,0.667-2.667,1-4.001v0.002c0.667-0.334,1.333-0.667,2-1.001
		c0.332,0,0.663,0,0.995-0.001L641,204.994z"/>
	<path fill-rule="evenodd" clip-rule="evenodd" fill="#FBFBFB" d="M516.992,431c0.67-1.667,1.339-3.333,2.008-5
		c2.871,0.204,4.202-1.131,4-4c0.333,0,0.667,0,1,0c0.667,0.334,1.333,0.668,2,1.001c0.542,4.693-3.119,6.585-5.998,8.999
		C518.999,431.667,517.996,431.333,516.992,431z"/>
	<path fill-rule="evenodd" clip-rule="evenodd" fill="#FAFAFA" d="M583.995,343.003c0.668-2.334,1.337-4.669,2.005-7.003
		c0.668,0,1.337,0.001,2.005,0.001c0.331,0.331,0.662,0.662,0.994,0.993c0.334,0.335,0.669,0.671,1.003,1.006
		c-0.666,1.667-1.333,3.333-2,5C586.667,343.001,585.331,343.002,583.995,343.003z"/>
	<path fill-rule="evenodd" clip-rule="evenodd" fill="#FAFAFA" d="M458.995,463c1.336-0.335,2.671-0.67,4.007-1.006
		c0.999,0.669,1.999,1.338,2.998,2.007c-2.668,1.665-5.336,3.33-8.003,4.995C458.329,466.998,458.662,464.999,458.995,463z"/>
	<path fill-rule="evenodd" clip-rule="evenodd" fill="#F6F6F6" d="M534.992,411.001c1.003,0.667,2.006,1.334,3.008,2.001
		c-1.667,2-3.333,4-5,5.999c-0.001-0.669-0.001-1.338-0.002-2.007c-0.665,0-1.33,0.001-1.996,0.001c-0.667,0-1.335,0-2.002,0
		c1.482-0.913,2.966-1.826,4.42-2.722C531.928,412.861,531.702,411.389,534.992,411.001z"/>
	<path fill-rule="evenodd" clip-rule="evenodd" fill="#FAFAFA" d="M561,387c0.333-1.335,0.667-2.671,1-4.006
		c0.333-0.665,0.667-1.329,1-1.994c0.333-1.333,0.667-2.667,1-4c1.667-0.667,3.333-1.333,5-2C566.333,379,563.667,383,561,387z"/>
	<path fill-rule="evenodd" clip-rule="evenodd" fill="#F6F6F6" d="M458.995,463c-0.333,1.999-0.666,3.998-0.999,5.996
		c-1.333,0.002-2.665,0.004-3.997,0.005c-0.333-1.001-0.667-2.001-1-3.002C454.999,464.999,456.997,464,458.995,463z"/>
	<path fill-rule="evenodd" clip-rule="evenodd" fill="#FBFBFB" d="M504.994,436.999c1.668-0.668,3.337-1.336,5.006-2.004
		c1,0.002,2,0.003,3,0.005l0.002,0.002c0.001,0.332,0.001,0.664,0,0.996l-0.004,0.004c-1.049,4.566-4.598,4.134-7.997,3.999
		C504.999,439,504.996,438,504.994,436.999z"/>
	<path fill-rule="evenodd" clip-rule="evenodd" fill="#F6F6F6" d="M615.994,259.001C616.997,259,618,259,619.002,259
		c-0.002,0.665-0.004,1.331-0.007,1.996c-0.666,0-1.332-0.001-1.997-0.001c-0.139-0.075-0.277-0.15-0.415-0.226
		c0.138,0.076,0.274,0.152,0.412,0.229c-0.667,2.001-1.333,4.001-2,6.002C613.104,264.056,612.938,261.327,615.994,259.001z"/>
	<path fill-rule="evenodd" clip-rule="evenodd" fill="#F6F6F6" d="M653.995,185.001c-0.665,2-1.33,4.001-1.995,6.001
		c-1-0.002-2-0.004-3-0.006c-0.497-1.002-0.994-2.004-1.549-3.123C649.634,186.915,651.814,185.958,653.995,185.001z"/>
	<path fill-rule="evenodd" clip-rule="evenodd" fill="#FAFAFA" d="M616.998,260.995c0.665,0,1.331,0.001,1.997,0.001
		c-1.333,4.001-2.666,8.002-4,12.002c-0.667-0.999-1.335-1.999-2.002-2.998c0.667-1,1.334-2,2.002-3
		c0.667-2.001,1.333-4.001,2-6.002L616.998,260.995z"/>
	<path fill-rule="evenodd" clip-rule="evenodd" fill="#FBFBFB" d="M492.994,444.999c1.669-0.333,3.338-0.666,5.007-0.999
		c-1.239,4.629-3.173,6.563-6.001,6.002c0-0.669,0-1.339,0.001-2.008c0.333,0.002,0.667,0.004,1,0.006c0-0.333,0-0.667,0-1
		l-0.006,0.002C492.995,446.335,492.994,445.667,492.994,444.999z"/>
	<path fill-rule="evenodd" clip-rule="evenodd" fill="#F8F8F8" d="M1079,476.999c2,0,4,0,6,0c0,0.667,0,1.334,0,2.001
		c-1.945,0.489-3.891,0.979-6,1.51C1079,478.988,1079,477.993,1079,476.999z"/>
	<path fill-rule="evenodd" clip-rule="evenodd" fill="#FBFBFB" d="M581.002,355c-0.336,0-0.673,0-1.009,0c0-0.667,0-1.333,0.001-2
		c0.335-1.333,0.671-2.667,1.006-4c0.667-0.669,1.333-1.337,2-2.006c0.333,0.336,0.667,0.672,1,1.008
		C583.001,350.334,582.002,352.667,581.002,355z"/>
	<path fill-rule="evenodd" clip-rule="evenodd" fill="#FAFAFA" d="M801.839,347.997c1.4,1.963,2.801,3.925,4.201,5.887
		c-0.448,0.825-0.896,1.65-1.321,2.433c-1.559-2.143-3.059-3.984-4.232-6.016C800.267,349.921,801.354,348.785,801.839,347.997z"/>
	<path fill-rule="evenodd" clip-rule="evenodd" fill="#FAFAFA" d="M877,428.001c1.333,1,2.667,2,4,3c0,0.964,0,1.929,0,2.893
		c-0.411,0.155-0.822,0.312-1.233,0.468C878.844,432.241,877.922,430.121,877,428.001z"/>
	<path fill-rule="evenodd" clip-rule="evenodd" fill="#F6F6F6" d="M590.995,328.997c-0.445-1.573-0.892-3.147-1.552-5.48
		c2.086,0.681,3.317,1.082,4.55,1.483c0.336,0,0.673,0,1.009,0c-0.333,1-0.666,2-1,3c-0.667,0.334-1.334,0.668-2.002,1.001
		C591.665,329,591.33,328.998,590.995,328.997z"/>
	<path fill-rule="evenodd" clip-rule="evenodd" fill="#FAFAFA" d="M595.002,325c-0.336,0-0.673,0-1.009,0
		c-0.034-2.233-1.251-4.861,2-6c1.836,1.545,1.729,1.456,0.554,2.884C595.83,322.756,595.504,323.95,595.002,325z"/>
	<path fill-rule="evenodd" clip-rule="evenodd" fill="#F6F6F6" d="M526,423.001c-0.667-0.333-1.333-0.667-2-1.001
		c1.333-1.333,2.667-2.667,4-4c0.334,0.667,0.668,1.334,1.001,2.001c-0.333,1-0.667,1.999-1.001,2.999v0.001
		C527.333,423.001,526.667,423.001,526,423.001z"/>
	<path fill-rule="evenodd" clip-rule="evenodd" fill="#F6F6F6" d="M584,348.002c-0.333-0.336-0.667-0.672-1-1.008
		c0.332-1.33,0.663-2.661,0.995-3.991c1.336-0.001,2.672-0.002,4.007-0.003c-0.666,1.333-1.333,2.667-2,4
		c-0.334,0.334-0.668,0.668-1.002,1.001C584.667,348.002,584.333,348.002,584,348.002z"/>
	<path fill-rule="evenodd" clip-rule="evenodd" fill="#FBFBFB" d="M529.001,420.001c-0.333-0.667-0.667-1.334-1.001-2.001
		c0.333-0.335,0.667-0.67,1-1.005c0.667,0,1.335,0,2.002,0c0.666,0,1.331-0.001,1.996-0.001c0.001,0.669,0.001,1.338,0.002,2.007
		C531.667,419.335,530.334,419.668,529.001,420.001z"/>
	<path fill-rule="evenodd" clip-rule="evenodd" fill="#FBFBFB" d="M1035,478.002c0.333-0.334,0.667-0.669,1-1.004
		c1.667,0,3.333,0,5,0.001c0,0.334,0,0.668,0,1.002c-1.042,2.035-2.634,2.727-4.704,1.686
		C1035.726,479.4,1035.425,478.578,1035,478.002z"/>
	<path fill-rule="evenodd" clip-rule="evenodd" fill="#F6F6F6" d="M516.992,431c1.004,0.333,2.007,0.667,3.01,1
		c-1.334,0.667-2.668,1.335-4.002,2.002c-1-0.336-2-0.671-3-1.007C514.331,432.33,515.662,431.665,516.992,431z"/>
	<path fill-rule="evenodd" clip-rule="evenodd" fill="#F6F6F6" d="M504.994,436.999c0.002,1.001,0.005,2.001,0.007,3.002
		c-0.333,0.334-0.667,0.667-1.001,1c-0.333,0-0.667,0-1,0c-0.667-0.001-1.333-0.003-2-0.005
		C500.796,438.13,502.127,436.798,504.994,436.999z"/>
	<path fill-rule="evenodd" clip-rule="evenodd" fill="#FAFAFA" d="M908,449.001c0.911-0.494,1.821-0.989,2.732-1.483
		c0.423,1.161,0.845,2.322,1.268,3.483C910.667,450.335,909.333,449.668,908,449.001z"/>
	<path fill-rule="evenodd" clip-rule="evenodd" fill="#FAFAFA" d="M636.002,219c-0.189-1.105-0.379-2.211-0.569-3.316
		c0.856,0.105,1.712,0.212,2.567,0.317C637.334,217.001,636.668,218,636.002,219z"/>
	<path fill-rule="evenodd" clip-rule="evenodd" fill="#F6F6F6" d="M466,464.001c-0.999-0.669-1.999-1.338-2.998-2.007
		c1.331-0.331,2.661-0.662,3.992-0.994c0.002,1.001,0.004,2.002,0.006,3.002C466.667,464.002,466.333,464.002,466,464.001z"/>
	<path fill-rule="evenodd" clip-rule="evenodd" fill="#F6F6F6" d="M442.995,469c-0.332,1.334-0.664,2.667-0.995,4.001
		c-0.333,0-0.667,0-1,0c-0.333-0.336-0.667-0.671-1.001-1.007C440.998,470.996,441.997,469.998,442.995,469z"/>
	<path fill-rule="evenodd" clip-rule="evenodd" fill="#F5F5F5" d="M724.992,183.001c1.003,1.333,2.006,2.665,3.008,3.997
		C726.998,185.666,725.995,184.334,724.992,183.001z"/>
	<path fill-rule="evenodd" clip-rule="evenodd" fill="#F6F6F6" d="M588.005,336.001c-0.668,0-1.337-0.001-2.005-0.001
		c0.36-0.483,0.642-1.248,1.103-1.379c0.55-0.156,1.255,0.229,1.893,0.379c0.336,1,0.672,2,1.007,3
		c-0.334-0.335-0.669-0.671-1.003-1.006C588.667,336.663,588.336,336.332,588.005,336.001z"/>
	<path fill-rule="evenodd" clip-rule="evenodd" fill="#F6F6F6" d="M487.002,452c-1.001-0.002-2.001-0.003-3.002-0.005
		c0.999-0.998,1.998-1.997,2.997-2.995C486.999,450,487,451,487.002,452z"/>
	<path fill-rule="evenodd" clip-rule="evenodd" fill="#F8F8F8" d="M1067,476.998c0.333,0,0.667,0.001,1,0.002
		c0,0.965,0,1.93,0,2.954c-1.03,0-1.97,0-3,0c0-1.024,0-1.989,0-2.954c0.333-0.001,0.667-0.002,1-0.002V477c0.333,0,0.667,0,1,0
		V476.998z"/>
	<path fill-rule="evenodd" clip-rule="evenodd" fill="#FAFAFA" d="M559,391c0.667-1.333,1.333-2.667,2-4
		C560.333,388.333,559.667,389.667,559,391z"/>
	<path fill-rule="evenodd" clip-rule="evenodd" fill="#FAFAFA" d="M729.998,187.002c0.666-0.001,1.333-0.002,2-0.003
		c0,0.938,0,1.875,0,2.813c-0.304,0.117-0.607,0.235-0.911,0.354C730.724,189.111,730.36,188.057,729.998,187.002z"/>
	<path fill-rule="evenodd" clip-rule="evenodd" fill="#FBFBFB" d="M551,398.994c0,0.336,0,0.672,0,1.008
		c-0.666,0.334-1.332,0.667-1.998,1L549,401c-1-0.334-2.001-0.668-3.002-1.001l0.002,0.002
		C547.667,399.665,549.333,399.33,551,398.994z"/>
	<path fill-rule="evenodd" clip-rule="evenodd" fill="#F6F6F6" d="M492.001,447.994c0,0.669,0,1.339-0.001,2.008
		c-0.333-0.669-0.666-1.338-0.999-2.007c0.665-0.999,1.329-1.997,1.993-2.996c0,0.668,0,1.336,0.001,2.003
		C492.664,447.333,492.333,447.663,492.001,447.994z"/>
	<path fill-rule="evenodd" clip-rule="evenodd" fill="#FAFAFA" d="M592,329.001c0.668-0.333,1.335-0.667,2.002-1.001
		c-0.262,0.865-0.524,1.73-0.787,2.596C592.81,330.064,592.405,329.533,592,329.001z"/>
	<path fill-rule="evenodd" clip-rule="evenodd" fill="#FBFBFB" d="M513,432.995c1,0.336,2,0.671,3,1.007
		c-0.999,0.333-1.998,0.667-2.998,1L513,435c-0.002-0.667-0.003-1.334-0.005-2.001L513,432.995z"/>
	<path fill-rule="evenodd" clip-rule="evenodd" fill="#F6F6F6" d="M595.995,315.002c0.668,0.667,1.337,1.333,2.005,1.999
		c-0.335-0.001-0.67-0.002-1.005-0.003C596.662,316.332,596.328,315.667,595.995,315.002z"/>
	<path fill-rule="evenodd" clip-rule="evenodd" fill="#FAFAFA" d="M736.779,191.272c0.114,0.148,0.172,0.317,0.175,0.505
		c0.295,0.404,0.59,0.807,0.884,1.21c0.094,0.655,0.188,1.312,0.282,1.967C737.673,193.728,737.226,192.5,736.779,191.272z"/>
	<path fill-rule="evenodd" clip-rule="evenodd" fill="#FAFAFA" d="M632,226.001c0.667-1,1.333-2,2-3
		C633.333,224.001,632.667,225.001,632,226.001z"/>
	<path fill-rule="evenodd" clip-rule="evenodd" fill="#FAFAFA" d="M797.043,341.888c0.69,1.023,1.38,2.046,2.07,3.069
		C798.423,343.934,797.733,342.911,797.043,341.888z"/>
	<path fill-rule="evenodd" clip-rule="evenodd" fill="#FAFAFA" d="M736.649,190.679c0,0,0.015,0.13,0.016,0.146
		c-0.536-1.292-1.075-2.6-1.613-3.906c0.327,0.659,0.655,1.319,0.982,1.979C736.239,189.491,736.444,190.085,736.649,190.679z"/>
	<path fill-rule="evenodd" clip-rule="evenodd" fill="#F8F8F8" d="M1045,477c0.333,0,0.667,0,1,0
		c-0.067,1.045-0.136,2.09-0.203,3.134c-0.198,0-0.396,0-0.594,0C1045.136,479.09,1045.067,478.045,1045,477z"/>
	<path fill-rule="evenodd" clip-rule="evenodd" fill="#F8F8F8" d="M1071,477c0.333,0,0.667,0,1,0
		c-0.067,1.045-0.136,2.09-0.203,3.134c-0.198,0-0.396,0-0.594,0C1071.136,479.09,1071.067,478.045,1071,477z"/>
	<path fill-rule="evenodd" clip-rule="evenodd" fill="#F8F8F8" d="M1043,477c0.333,0,0.667,0,1,0
		c-0.067,1.045-0.136,2.09-0.203,3.134c-0.198,0-0.396,0-0.594,0C1043.136,479.09,1043.067,478.045,1043,477z"/>
	<path fill-rule="evenodd" clip-rule="evenodd" fill="#F8F8F8" d="M1047,477c0.333,0,0.667,0,1,0
		c-0.067,1.045-0.136,2.09-0.203,3.134c-0.198,0-0.396,0-0.594,0C1047.136,479.09,1047.067,478.045,1047,477z"/>
	<path fill-rule="evenodd" clip-rule="evenodd" fill="#F8F8F8" d="M1063,477c0.333,0,0.667,0,1,0
		c-0.067,1.045-0.135,2.09-0.203,3.134c-0.198,0-0.396,0-0.594,0C1063.135,479.09,1063.067,478.045,1063,477z"/>
	<path fill-rule="evenodd" clip-rule="evenodd" fill="#F8F8F8" d="M1069,477c0.333,0,0.667,0,1,0
		c-0.067,1.045-0.136,2.09-0.203,3.134c-0.198,0-0.396,0-0.594,0C1069.135,479.09,1069.067,478.045,1069,477z"/>
	<path fill-rule="evenodd" clip-rule="evenodd" fill="#F8F8F8" d="M1075,477c0.333,0,0.667,0,1,0
		c-0.067,1.045-0.136,2.09-0.203,3.134c-0.198,0-0.396,0-0.594,0C1075.135,479.09,1075.067,478.045,1075,477z"/>
	<path fill-rule="evenodd" clip-rule="evenodd" fill="#F8F8F8" d="M1077,477c0.333,0,0.667,0,1,0
		c-0.067,1.045-0.136,2.09-0.203,3.134c-0.198,0-0.396,0-0.594,0C1077.136,479.09,1077.067,478.045,1077,477z"/>
	<path fill-rule="evenodd" clip-rule="evenodd" fill="#FAFAFA" d="M439.999,471.994c0.334,0.336,0.667,0.671,1.001,1.007
		c-0.167,0.435-0.333,0.869-0.5,1.304c-0.167-0.435-0.333-0.869-0.5-1.304C440,472.665,440,472.33,439.999,471.994z"/>
	<path fill-rule="evenodd" clip-rule="evenodd" fill="#FAFAFA" d="M606.002,297.999c0.283,0.669,0.566,1.339,0.849,2.009
		c-0.228,0.063-0.456,0.126-0.685,0.188c-0.056-0.731-0.112-1.463-0.168-2.194L606.002,297.999z"/>
	<path fill-rule="evenodd" clip-rule="evenodd" fill="#FAFAFA" d="M733.3,190.23c0-0.493,0-0.986,0-1.479c0.135,0,0.27,0,0.404,0
		c0,0.492,0,0.985,0,1.479C733.569,190.229,733.435,190.23,733.3,190.23z"/>
	<path fill-rule="evenodd" clip-rule="evenodd" fill="#FAFAFA" d="M808.002,360.001c-0.056,0.731-0.111,1.464-0.168,2.195
		c-0.229-0.063-0.456-0.126-0.685-0.188c0.283-0.67,0.565-1.339,0.849-2.009L808.002,360.001z"/>
	<path fill-rule="evenodd" clip-rule="evenodd" fill="#FAFAFA" d="M906.002,445.998c0.333,0,0.666,0.001,0.998,0.003
		c-0.068,0.737-0.137,1.474-0.205,2.211c-0.197,0-0.395-0.001-0.593-0.001C906.136,447.474,906.069,446.735,906.002,445.998z"/>
	<path fill-rule="evenodd" clip-rule="evenodd" fill="#FBFBFB" d="M585,348.001c0.334-0.333,0.668-0.667,1.002-1.001
		c0.016,0.452,0.031,0.904,0.047,1.356C585.699,348.238,585.35,348.12,585,348.001z"/>
	<path fill-rule="evenodd" clip-rule="evenodd" fill="#FAFAFA" d="M875.753,430.031c-0.095,0.115-0.189,0.231-0.284,0.347
		c-0.073-0.133-0.211-0.271-0.2-0.397c0.011-0.123,0.172-0.233,0.268-0.35C875.608,429.765,875.681,429.897,875.753,430.031z"/>
	<path fill-rule="evenodd" clip-rule="evenodd" fill="#FAFAFA" d="M843.998,402c0.334,0.334,0.668,0.667,1.002,1.001
		C844.666,402.667,844.332,402.334,843.998,402z"/>
	<path fill-rule="evenodd" clip-rule="evenodd" fill="#F8F8F8" d="M1041.387,479.719c0.123,0.043,0.349,0.084,0.351,0.131
		c0.005,0.141-0.08,0.283-0.13,0.425c-0.123-0.044-0.35-0.084-0.351-0.131C1041.252,480.003,1041.337,479.86,1041.387,479.719z"/>
	<path fill-rule="evenodd" clip-rule="evenodd" fill="#F8F8F8" d="M1073.614,480.28c-0.124-0.043-0.35-0.084-0.351-0.131
		c-0.005-0.141,0.079-0.283,0.129-0.425c0.123,0.044,0.35,0.084,0.351,0.131C1073.748,479.996,1073.664,480.139,1073.614,480.28z"/>
	<path fill-rule="evenodd" clip-rule="evenodd" fill="#F8F8F8" d="M1084.984,478.69c0.345,0.616,0.555,0.989,0.765,1.362
		c-0.241-0.196-0.507-0.371-0.713-0.6C1084.955,479.364,1085.008,479.154,1084.984,478.69z"/>
	<path fill-rule="evenodd" clip-rule="evenodd" fill="#F5F5F5" d="M649.995,193.001H649.5h-0.495
		C649.335,193.001,649.665,193.001,649.995,193.001z"/>
	<path fill-rule="evenodd" clip-rule="evenodd" fill="#F6F6F6" d="M588,331.999c0.332-0.333,0.663-0.666,0.995-0.999
		c0,0.334,0,0.667,0,1.001h-0.497H588V331.999z"/>
	<path fill-rule="evenodd" clip-rule="evenodd" fill="#F6F6F6" d="M590.001,330.997c0.334-0.333,0.668-0.665,1.001-0.997
		C590.669,330.332,590.335,330.664,590.001,330.997z"/>
	<path fill-rule="evenodd" clip-rule="evenodd" fill="#FAFAFA" d="M634,223.001c0-0.334,0-0.668,0-1.002
		C634,222.333,634,222.667,634,223.001z"/>
	<path fill-rule="evenodd" clip-rule="evenodd" fill="#F8F8F8" d="M1042,476.999c0.333,0,0.667,0,1,0
		C1042.667,476.999,1042.333,476.999,1042,476.999z"/>
	<path fill-rule="evenodd" clip-rule="evenodd" fill="#F8F8F8" d="M1044,476.999c0.333,0,0.667,0,1,0
		C1044.667,476.999,1044.333,476.999,1044,476.999z"/>
	<path fill-rule="evenodd" clip-rule="evenodd" fill="#F8F8F8" d="M1046,476.999c0.333,0,0.667,0,1,0
		C1046.667,476.999,1046.333,476.999,1046,476.999z"/>
	<path fill-rule="evenodd" clip-rule="evenodd" fill="#F8F8F8" d="M1048,476.999c0.333,0,0.667,0,1,0
		C1048.667,476.999,1048.333,476.999,1048,476.999z"/>
	<path fill-rule="evenodd" clip-rule="evenodd" fill="#F5F5F5" d="M605,297c-0.333-0.333-0.667-0.667-1-1
		C604.333,296.333,604.667,296.667,605,297z"/>
	<path fill-rule="evenodd" clip-rule="evenodd" fill="#F8F8F8" d="M1062,476.999c0.333,0,0.667,0,1,0
		C1062.667,476.999,1062.333,476.999,1062,476.999z"/>
	<path fill-rule="evenodd" clip-rule="evenodd" fill="#F8F8F8" d="M1064,476.999c0.333,0,0.667,0,1,0
		C1064.667,476.999,1064.333,476.999,1064,476.999z"/>
	<path fill-rule="evenodd" clip-rule="evenodd" fill="#F8F8F8" d="M1068,476.999c0.333,0,0.667,0,1,0
		C1068.667,476.999,1068.333,476.999,1068,476.999z"/>
	<path fill-rule="evenodd" clip-rule="evenodd" fill="#F8F8F8" d="M1070,476.999c0.333,0,0.667,0,1,0
		C1070.667,476.999,1070.333,476.999,1070,476.999z"/>
	<path fill-rule="evenodd" clip-rule="evenodd" fill="#FBFBFB" d="M528,423c0.139,0.076,0.278,0.152,0.417,0.229
		C528.278,423.152,528.139,423.077,528,423L528,423z"/>
	<path fill-rule="evenodd" clip-rule="evenodd" fill="#F8F8F8" d="M1074,476.999c0.333,0,0.667,0,1,0
		C1074.667,476.999,1074.333,476.999,1074,476.999z"/>
	<path fill-rule="evenodd" clip-rule="evenodd" fill="#F8F8F8" d="M1076,476.999c0.333,0,0.667,0,1,0
		C1076.667,476.999,1076.333,476.999,1076,476.999z"/>
	<path fill-rule="evenodd" clip-rule="evenodd" fill="#F8F8F8" d="M1078,476.999c0.333,0,0.667,0,1,0
		C1078.667,476.999,1078.333,476.999,1078,476.999z"/>
	<path fill-rule="evenodd" clip-rule="evenodd" fill="#F5F5F5" d="M605,295c0.331-0.001,0.663-0.003,0.994-0.004
		C605.663,294.998,605.331,295,605,295z"/>
	<path fill-rule="evenodd" clip-rule="evenodd" fill="#F8F8F8" d="M1086,476.999c0.333,0,0.667,0,1,0
		C1086.667,476.999,1086.333,476.999,1086,476.999z"/>
	<path fill-rule="evenodd" clip-rule="evenodd" fill="#F8F8F8" d="M1041,478.001c0-0.334,0-0.668,0-1.002
		c0.333,0,0.667,0.001,1,0.001C1041.667,477.334,1041.333,477.668,1041,478.001z"/>
	<path fill-rule="evenodd" clip-rule="evenodd" fill="#FBFBFB" d="M513.002,435.998c0.139,0.077,0.277,0.154,0.416,0.231
		c-0.141-0.075-0.28-0.151-0.42-0.228L513.002,435.998z"/>
	<path fill-rule="evenodd" clip-rule="evenodd" fill="#FAFAFA" d="M572,372c0.332-0.334,0.664-0.668,0.996-1.003
		C572.664,371.332,572.332,371.666,572,372z"/>
	<path fill-rule="evenodd" clip-rule="evenodd" fill="#FBFBFB" d="M503,441.001c0.333,0,0.667,0,1,0
		C503.667,441.001,503.333,441.001,503,441.001z"/>
	<path fill-rule="evenodd" clip-rule="evenodd" fill="#F8F8F8" d="M1072,476.999c0.333,0,0.667,0,1,0
		C1072.667,476.999,1072.333,476.999,1072,476.999z"/>
	<path fill-rule="evenodd" clip-rule="evenodd" d="M615.949,196.889c-6.313,18.447-12.68,36.875-18.924,55.345
		c-9.095,26.902-17.553,54.125-31.092,79.189c-10.27,19.01-21.789,37.355-35.793,54.005c-16.704,19.861-36.489,35.842-59.043,48.604
		c-28.91,16.358-59.917,27.177-92.048,34.852c-15.381,3.675-30.943,7.397-46.629,8.795c-21.553,1.919-43.354,2.926-64.951,2.006
		c-28.345-1.207-56.1-7.15-82.529-17.842c-9.945-4.023-19.3-9.512-28.902-14.374c-1.23-0.623-2.333-1.499-3.495-2.258
		c0,0-0.153-0.064-0.153-0.063c-0.525-0.325-1.051-0.651-1.577-0.979l-0.177-0.001c-1.542-1.104-3.085-2.208-4.627-3.312
		c-0.382-0.05-0.765-0.099-1.15-0.154c-0.003-0.005-0.181-0.187-0.181-0.187c-0.428-0.458-0.856-0.916-1.285-1.375
		c-4.128-3.431-8.255-6.861-12.383-10.292c-6.187-8.295-13.296-16.072-18.306-25.025c-5.276-9.429-9.116-19.788-12.576-30.08
		c-7.908-23.525-15.769-47.096-22.601-70.947c-8.705-30.388-16.373-61.072-24.497-91.627c-2.054-7.725-4.14-15.441-6.211-23.162
		c-6.83-12.294-16.833-21.345-28.903-28.284c-2.454-1.507-4.756-3.904-7.389-4.351c-7.505-1.27-7.699-6.068-7.63-12.135
		C3.156,120.335,3,97.427,3,74.099C39.102,60.81,77.035,50.582,115.259,41.445c16.935-4.048,34.105-7.139,51.216-10.412
		c14.934-2.856,29.893-5.642,44.921-7.929c11.759-1.789,23.625-2.938,35.474-4.063c15.82-1.504,31.65-3.005,47.508-3.961
		c16.981-1.023,34.007-2.073,51.001-1.897c17.596,0.182,35.202,1.512,52.758,2.913c15.286,1.22,30.54,2.993,45.748,4.975
		c15.445,2.014,30.813,4.61,46.222,6.897c13.81,2.049,27.668,3.797,41.436,6.096c14.487,2.418,28.894,5.331,43.335,8.027
		c1.039,13.419,1.601,26.898,3.255,40.241c1.576,12.709,3.337,25.541,6.739,37.843c4.642,16.78,10.348,33.332,16.711,49.545
		c3.63,9.248,9.475,17.627,14.321,26.397C616.003,196.369,616.018,196.627,615.949,196.889z M321.554,441.999
		c0.044,0.807,0.089,1.614,0.134,2.421c18.661-1.804,37.363-3.257,55.971-5.501c21.599-2.605,42.149-9.209,61.665-18.73
		c23.978-11.698,44.614-27.721,62.151-47.986c15.693-18.135,28.129-38.325,39.449-59.255c10.757-19.888,19.77-40.654,25.17-62.637
		c4.143-16.86,7.762-34.006,9.555-51.238c1.413-13.578,0.199-27.519-0.763-41.234c-1.43-20.357-7.293-39.493-17.619-57.247
		c-7.998-13.752-18.632-24.612-32.896-31.774c-16.063-8.066-33.193-13.474-50.705-16.521c-26.844-4.674-53.95-7.952-81.024-11.144
		c-12.924-1.523-26.029-1.948-39.058-2.037c-17.758-0.122-35.526,0.393-53.281,0.938c-12.866,0.395-25.728,1.113-38.571,1.998
		c-11.132,0.768-22.331,1.369-33.326,3.128c-15.064,2.41-30.168,5.084-44.882,9.034c-17.779,4.772-33.752,13.484-47.424,26.137
		c-12.327,11.407-21.535,24.867-28.369,40.189c-7.064,15.838-10.722,32.405-11.623,49.585c-0.335,6.394,0.413,12.863,0.917,19.279
		c1.246,15.884,2.015,31.841,4.143,47.611c2.149,15.926,5.102,31.803,8.776,47.448c5.99,25.503,14.847,49.974,27.706,73
		c8.752,15.673,19.11,30.065,31.449,42.932c10.209,10.646,22.026,19.502,35.031,26.614c12.078,6.604,24.908,11.343,38.578,12.854
		c11.952,1.321,24.026,1.774,36.059,2.058C293.021,442.256,307.291,441.999,321.554,441.999z"/>
	<path fill-rule="evenodd" clip-rule="evenodd" fill="#F6F6F6" d="M696.988,154.001c-16.495-5.303-31.873-1.743-46.742,5.883
		c-2.067,1.061-4.157,2.078-6.236,3.115c-1.004,0.668-2.007,1.335-3.01,2.002l0.002-0.002c-4.06,3.446-8.119,6.893-12.317,10.457
		c-0.794-1.003-1.788-2.258-2.782-3.513c-0.294-1.439-0.451-2.922-0.901-4.311c-6.359-19.623-13.181-39.108-19.029-58.882
		c-6.039-20.418-10.905-41.153-10.997-62.668c-0.204-3.142,0.523-4.304,4.284-3.647c7.456,1.303,15.043,2.128,22.606,2.476
		c13.574,0.625,27.171,0.753,40.759,1.088c3.131,0.077,7.087-0.972,9.163,0.548c2.094,1.532,2.269,5.635,3.38,8.575
		c3.267,8.643,6.58,17.268,9.875,25.9c0.386,1.76,0.594,3.582,1.187,5.27c5.63,16.031,11.258,32.064,17.034,48.044
		c2.399,6.636,5.155,13.143,7.749,19.708c-1.408,0.341-2.83,1.018-4.22,0.956C703.516,154.854,700.255,154.356,696.988,154.001z"/>
	<path fill-rule="evenodd" clip-rule="evenodd" fill="#D9D9D9" d="M711.012,154.045c-2.594-6.566-5.35-13.073-7.749-19.709
		c-5.776-15.979-11.404-32.013-17.034-48.044c-0.593-1.688-0.801-3.51-1.187-5.27c0.638-0.896,2.019-2.096,1.796-2.643
		c-1.85-4.546-1.928-9.191-2.062-14.026c-0.149-5.435-1.669-10.832-2.69-16.823c2.6-0.254,4.012-0.476,5.43-0.517
		c12.414-0.357,24.83-0.64,37.243-1.047c3.116-0.103,6.221-0.571,9.33-0.873c-0.696,8.056-1.428,16.108-2.079,24.167
		c-0.731,9.051-1.125,18.137-2.141,27.154c-1.769,15.71-3.723,31.405-5.977,47.053c-0.805,5.591-2.704,11.025-4.104,16.531
		C716.862,158.014,713.938,156.029,711.012,154.045z"/>
	<path fill-rule="evenodd" clip-rule="evenodd" fill="#ACACAC" d="M594.975,46.083c0.092,21.515,4.958,42.25,10.997,62.668
		c5.849,19.773,12.67,39.259,19.029,58.882c0.45,1.389,0.607,2.871,0.901,4.311c-0.671,1.052-1.537,2.026-1.981,3.166
		c-2.725,6.981-5.354,14.001-8.016,21.008c-4.847-8.771-10.691-17.149-14.321-26.397c-6.363-16.213-12.069-32.765-16.711-49.545
		c-3.402-12.302-5.163-25.134-6.739-37.843c-1.654-13.343-2.216-26.822-3.255-40.241C581.577,43.422,588.276,44.753,594.975,46.083z
		"/>
	<path fill-rule="evenodd" clip-rule="evenodd" fill="#ACACAC" d="M719.788,159.999c1.4-5.506,3.3-10.94,4.104-16.531
		c2.254-15.647,4.208-31.343,5.977-47.053c1.016-9.018,1.409-18.104,2.141-27.154c0.651-8.059,1.383-16.111,2.079-24.167
		c8.587-1.84,17.17-3.697,25.763-5.508c1.588-0.335,3.215-0.484,4.824-0.721c-1.258,7.476-2.174,15.027-3.837,22.412
		c-5.467,24.281-10.708,48.633-17.032,72.695c-3.577,13.61-9.104,26.709-13.754,40.038
		C726.632,169.34,723.21,164.669,719.788,159.999z"/>
	<path fill-rule="evenodd" clip-rule="evenodd" fill="#F7F7F7" d="M17.915,159.723c12.07,6.939,22.073,15.99,28.903,28.284
		c-8.151-0.02-8.151-0.02-10.22-7.48c-0.609-2.199-7.478-5.045-9.535-4.264c-0.813,0.31-2.431-0.155-3.021-0.839
		c-2.348-2.717-4.472-5.632-6.606-8.527C15.604,164.41,14.852,161.918,17.915,159.723z"/>
	<path fill-rule="evenodd" clip-rule="evenodd" fill="#F6F6F6" d="M131.01,428.849c4.128,3.431,8.255,6.861,12.383,10.292
		c-1.836-0.588-4.153-0.672-5.409-1.869C135.362,434.775,133.301,431.691,131.01,428.849z"/>
	<path fill-rule="evenodd" clip-rule="evenodd" fill="#F5F5F5" d="M146.008,440.856c1.542,1.104,3.085,2.207,4.627,3.312
		c-1.213,0.277-2.426,0.556-3.639,0.833C146.667,443.619,146.338,442.237,146.008,440.856z"/>
	<path fill-rule="evenodd" clip-rule="evenodd" fill="#F6F6F6" d="M146.997,445.001c1.213-0.277,2.426-0.556,3.639-0.833
		c0,0,0.178,0.001,0.178,0.001c-0.271,1.278-0.542,2.556-0.813,3.833C148.999,447.002,147.998,446.001,146.997,445.001z"/>
	<path fill-rule="evenodd" clip-rule="evenodd" fill="#F6F6F6" d="M170.998,464c0.333,0,0.665-0.001,0.998-0.001
		c-0.332,1.332-0.664,2.665-0.996,3.997c0-0.997,0.001-1.994,0.001-2.991C171,464.67,170.999,464.335,170.998,464z"/>
	<path fill-rule="evenodd" clip-rule="evenodd" fill="#F5F5F5" d="M150,448.002c0.271-1.277,0.542-2.555,0.813-3.833
		c0.526,0.327,1.052,0.653,1.577,0.979C151.593,446.098,150.796,447.05,150,448.002z"/>
	<path fill-rule="evenodd" clip-rule="evenodd" fill="#F6F6F6" d="M188.999,471.004c0.392-0.074,0.783-0.149,1.175-0.225
		c-0.059,0.741-0.117,1.483-0.176,2.225l-0.499,0.001L189,473.002c0-0.335-0.001-0.671-0.001-1.006
		C188.996,471.666,188.996,471.335,188.999,471.004z"/>
	<path fill-rule="evenodd" clip-rule="evenodd" fill="#F5F5F5" d="M171.001,465.005c0,0.997-0.001,1.994-0.001,2.991
		C171,466.999,171,466.002,171.001,465.005z"/>
	<path fill-rule="evenodd" clip-rule="evenodd" fill="#F6F6F6" d="M175.996,465.001c0.001,0.333,0.001,0.666,0.002,0.999
		C175.995,465.667,175.995,465.334,175.996,465.001z"/>
	<path fill-rule="evenodd" clip-rule="evenodd" fill="#F5F5F5" d="M188.999,471.996c0,0.335,0,0.671,0.001,1.006
		c-0.333-0.334-0.667-0.667-1.001-1.001l0.002-0.002C188.334,471.999,188.667,471.998,188.999,471.996z"/>
	<path fill-rule="evenodd" clip-rule="evenodd" fill="#F5F5F5" d="M144.678,440.516c0,0,0.177,0.182,0.181,0.187
		c-0.175-0.104-0.355-0.211-0.527-0.328c-0.006-0.005,0.056-0.108,0.086-0.166C144.504,440.311,144.591,440.413,144.678,440.516z"/>
	<path fill-rule="evenodd" clip-rule="evenodd" fill="#FEFEFE" d="M890,437.001c-0.667-0.336-1.333-0.672-2-1.008
		C888.667,436.329,889.333,436.665,890,437.001z"/>
	<path fill-rule="evenodd" clip-rule="evenodd" fill="#FAFAFA" d="M962.29,467.248c0-0.499,0-0.997,0-1.496c0.14,0,0.279,0,0.419,0
		c0,0.499,0,0.997,0,1.496C962.569,467.248,962.43,467.248,962.29,467.248z"/>
	<path fill-rule="evenodd" clip-rule="evenodd" fill="#F8F8F8" d="M1066,476.998c0.333,0,0.667,0,1,0V477c-0.333,0-0.667,0-1,0
		V476.998z"/>
	<path fill-rule="evenodd" clip-rule="evenodd" fill="#FCFCFC" d="M615.905,196.117c2.661-7.007,5.291-14.026,8.016-21.008
		c0.444-1.14,1.311-2.114,1.981-3.166c0.994,1.255,1.988,2.51,2.782,3.513c4.198-3.564,8.258-7.011,12.317-10.457
		c-2.061,3.134-4.555,6.067-6.095,9.438c-4.021,8.802-7.625,17.795-11.748,27.548c-3.637,1.576-5.299-1.986-7.21-5.097
		C616.018,196.627,616.003,196.369,615.905,196.117z"/>
	<path fill-rule="evenodd" clip-rule="evenodd" fill="#FDFDFD" d="M719.788,159.999c3.422,4.67,6.844,9.341,10.265,14.012
		c-0.074,0.333-0.149,0.665-0.225,0.998c-1.783,1.306-2.065,5.535-5.825,2.992c-4.322-4.661-8.343-9.66-13.058-13.884
		c-4.257-3.813-9.274-6.777-13.957-10.116c3.267,0.355,6.527,0.853,9.804,0.999c1.39,0.062,2.812-0.615,4.22-0.956
		C713.938,156.029,716.862,158.014,719.788,159.999z"/>
	<path fill-rule="evenodd" clip-rule="evenodd" fill="#F6F6F6" d="M601.995,301c-0.334,2-0.667,4-1.001,6
		c-1.192-0.243-2.385-0.487-4.361-0.891C598.812,304.033,600.403,302.517,601.995,301z"/>
	<path fill-rule="evenodd" clip-rule="evenodd" fill="#F6F6F6" d="M430.999,474c-1.667,0.998-3.333,1.997-4.999,2.995
		C425.804,472.889,428.899,474.274,430.999,474z"/>
	<path fill-rule="evenodd" clip-rule="evenodd" fill="#F6F6F6" d="M581,349c-0.335,1.333-0.671,2.667-1.006,4
		C577.69,351.418,577.882,350.657,581,349z"/>
	<path fill-rule="evenodd" clip-rule="evenodd" fill="#F6F6F6" d="M523,422c0.202,2.869-1.129,4.204-4,4
		C520.333,424.667,521.667,423.333,523,422z"/>
	<path fill-rule="evenodd" clip-rule="evenodd" fill="#F6F6F6" d="M512.995,432.999c0.002,0.667,0.003,1.334,0.005,2.001
		c-1-0.002-2-0.003-3-0.005C510.998,434.33,511.997,433.664,512.995,432.999z"/>
	<path fill-rule="evenodd" clip-rule="evenodd" fill="#F6F6F6" d="M619.995,247.002c3.15,0.993,1.573,1.993,0.005,2.993
		C619.998,248.997,619.997,248,619.995,247.002z"/>
	<path fill-rule="evenodd" clip-rule="evenodd" fill="#FCFCFC" d="M641,165.001c1.003-0.667,2.006-1.334,3.01-2.002
		C643.006,163.667,642.003,164.334,641,165.001z"/>
	<path fill-rule="evenodd" clip-rule="evenodd" fill="#FEFEFE" d="M564,377c-0.333,1.333-0.667,2.667-1,4
		c0.001-1.332,0.002-2.664,0.002-3.996C563.335,377.002,563.668,377,564,377z"/>
	<path fill-rule="evenodd" clip-rule="evenodd" fill="#F6F6F6" d="M617,251.001c-0.333,0.664-0.667,1.329-1,1.994
		C616.334,252.33,616.667,251.665,617,251.001z"/>
	<path fill-rule="evenodd" clip-rule="evenodd" fill="#FAFAFA" d="M638,205.999c-0.249-0.35-0.497-0.7-0.746-1.05
		c0.249,0.351,0.497,0.701,0.746,1.052V205.999z"/>
	<path fill-rule="evenodd" clip-rule="evenodd" fill="#F9F9F9" d="M704.745,170.173c-0.125,0.034-0.328,0.132-0.36,0.092
		c-0.087-0.107-0.101-0.274-0.144-0.417c0.126-0.035,0.329-0.133,0.363-0.092C704.691,169.862,704.703,170.029,704.745,170.173z"/>
	<path fill-rule="evenodd" clip-rule="evenodd" fill="#F6F6F6" d="M588,332.001c-0.351,0.249-0.701,0.497-1.052,0.746
		c0.351-0.25,0.701-0.499,1.052-0.748V332.001z"/>
	<path fill-rule="evenodd" clip-rule="evenodd" fill="#F6F6F6" d="M656.999,182.995l-0.499,0.002l-0.499-0.002
		C656.334,182.995,656.666,182.995,656.999,182.995z"/>
	<path fill-rule="evenodd" clip-rule="evenodd" fill="#FEFEFE" d="M188.999,471.996c-0.333,0.002-0.665,0.003-0.998,0.003
		c0.333-0.332,0.665-0.663,0.998-0.995C188.996,471.335,188.996,471.666,188.999,471.996z"/>
	<path fill-rule="evenodd" clip-rule="evenodd" fill="#F6F6F6" d="M640.995,204.999C640.663,205,640.332,205,640,205
		C640.332,205,640.663,205,640.995,204.999z"/>
	<path fill-rule="evenodd" clip-rule="evenodd" fill="#F6F6F6" d="M576.005,350.003c-0.078,0.138-0.155,0.276-0.233,0.414
		c0.075-0.141,0.15-0.28,0.226-0.421L576.005,350.003z"/>
	<path fill-rule="evenodd" clip-rule="evenodd" fill="#F6F6F6" d="M575.997,349.996c0.077-0.138,0.155-0.275,0.232-0.413
		c-0.075,0.14-0.15,0.28-0.225,0.42L575.997,349.996z"/>
	<path fill-rule="evenodd" clip-rule="evenodd" fill="#F5F5F5" d="M200.53,479.624c0.074,0.133,0.21,0.271,0.2,0.396
		c-0.011,0.122-0.171,0.231-0.266,0.347C200.485,480.119,200.507,479.871,200.53,479.624z"/>
	<path fill-rule="evenodd" clip-rule="evenodd" fill="#EC1C24" d="M779.015,173.098c-0.563-20.743,2.598-40.896,9.98-60.297
		c10.063-26.444,27.107-45.696,54.666-55.329c20.132-7.037,40.778-11.484,61.604-15.281c11.592-2.114,23.415-3.088,35.173-4.131
		c14.28-1.266,28.589-2.587,42.908-2.951c27.923-0.712,55.864-1.147,83.792-0.949c13.979,0.099,27.999,1.361,41.903,2.946
		c26.125,2.977,52.352,5.783,77.282,14.927c12.676,4.648,24.101,11.482,34.525,20.203c20.292,16.972,32.234,38.94,38.701,64.061
		c4.313,16.758,4.542,33.91,2.54,51.102c-0.629,5.401-0.505,10.891-1.136,16.292c-1.502,12.848-3.224,25.669-4.902,38.495
		c-2.893,22.105-8.809,43.481-16.383,64.362c-9.262,25.53-21.939,49.172-39.63,70.062c-14.36,16.958-30.978,30.845-51.083,40.36
		c-11.274,5.336-23.042,9.223-35.614,10.015c-7.259,0.458-14.528,0.793-21.799,0.997c-25.533,0.717-51.071,1.925-76.604,1.842
		c-21.183-0.068-42.108-3.575-62.56-9.178c-23.178-6.35-44.771-16.169-64.487-30.118c-18.229-12.896-34.193-28.133-46.708-46.511
		c-11.293-16.582-22.256-33.549-31.536-51.301c-12.802-24.487-22.268-50.451-26.587-77.943c-2.165-13.777-3.533-27.68-5.262-41.526
		C778.205,173.196,778.61,173.146,779.015,173.098z"/>
	<path fill-rule="evenodd" clip-rule="evenodd" fill="#FEFEFE" d="M736.649,190.679c-0.205-0.594-0.41-1.188-0.615-1.781
		C736.239,189.491,736.444,190.085,736.649,190.679z"/>
	<path fill-rule="evenodd" clip-rule="evenodd" fill="#FEFEFE" d="M737.838,192.987c-0.294-0.403-0.589-0.806-0.884-1.21
		C737.248,192.181,737.543,192.584,737.838,192.987z"/>
	<path fill-rule="evenodd" clip-rule="evenodd" fill="#F5F5F5" d="M545.998,399.999c1.001,0.333,2.002,0.667,3.002,1.001
		C548,400.666,546.999,400.332,545.998,399.999z"/>
	<path fill-rule="evenodd" clip-rule="evenodd" fill="#F5F5F5" d="M544.172,404.256c0.034,0.124,0.131,0.327,0.092,0.358
		c-0.108,0.086-0.273,0.1-0.416,0.142c-0.034-0.125-0.132-0.328-0.092-0.359C543.863,404.311,544.029,404.298,544.172,404.256z"/>
	<path fill-rule="evenodd" clip-rule="evenodd" fill="#F5F5F5" d="M547,403.001c-0.432-0.124-0.864-0.247-1.296-0.371
		c0.433,0.124,0.865,0.247,1.298,0.371H547z"/>
	<path fill-rule="evenodd" clip-rule="evenodd" fill="#F5F5F5" d="M610.995,278.998c-0.138-0.076-0.274-0.152-0.412-0.229
		c0.138,0.075,0.276,0.15,0.415,0.226L610.995,278.998z"/>
	<path fill-rule="evenodd" clip-rule="evenodd" fill="#F5F5F5" d="M588.005,336.001c0.331,0.331,0.662,0.662,0.994,0.993
		C588.667,336.663,588.336,336.332,588.005,336.001z"/>
	<path fill-rule="evenodd" clip-rule="evenodd" fill="#F5F5F5" d="M532.998,416.994c-0.665,0-1.33,0.001-1.996,0.001
		C531.668,416.995,532.333,416.994,532.998,416.994z"/>
	<path fill-rule="evenodd" clip-rule="evenodd" fill="#F5F5F5" d="M616.995,260.998c-0.138-0.076-0.274-0.152-0.412-0.229
		c0.138,0.075,0.276,0.15,0.415,0.226L616.995,260.998z"/>
	<path fill-rule="evenodd" clip-rule="evenodd" fill="#F5F5F5" d="M492.001,447.994c0.332-0.331,0.663-0.661,0.994-0.992
		l0.006-0.002c0,0.333,0,0.667,0,1C492.668,447.998,492.334,447.996,492.001,447.994z"/>
	<path fill-rule="evenodd" clip-rule="evenodd" fill="#FEFEFE" d="M493.001,448c0-0.333,0-0.667,0-1
		C493.001,447.333,493.001,447.667,493.001,448z"/>
	<path fill-rule="evenodd" clip-rule="evenodd" fill="#FEFEFE" d="M1066,477c0.333,0,0.667,0,1,0
		C1066.667,477,1066.333,477,1066,477z"/>
	<path fill-rule="evenodd" clip-rule="evenodd" fill="#00ADEE" d="M321.554,441.999c-14.264,0-28.533,0.257-42.789-0.079
		c-12.033-0.283-24.107-0.736-36.059-2.058c-13.67-1.512-26.5-6.25-38.578-12.854c-13.005-7.112-24.822-15.969-35.031-26.614
		c-12.339-12.866-22.697-27.259-31.449-42.932c-12.859-23.026-21.716-47.497-27.706-73c-3.674-15.646-6.627-31.522-8.776-47.448
		c-2.127-15.771-2.896-31.728-4.143-47.611c-0.503-6.416-1.252-12.886-0.917-19.279c0.901-17.18,4.559-33.747,11.623-49.585
		c6.834-15.322,16.042-28.782,28.369-40.189c13.672-12.652,29.646-21.364,47.424-26.137c14.714-3.95,29.818-6.624,44.882-9.034
		c10.996-1.759,22.194-2.36,33.326-3.128c12.843-0.885,25.705-1.604,38.571-1.998c17.755-0.545,35.523-1.06,53.281-0.938
		c13.029,0.089,26.134,0.514,39.058,2.037c27.075,3.191,54.18,6.47,81.024,11.144c17.512,3.048,34.642,8.455,50.705,16.521
		c14.264,7.162,24.897,18.022,32.896,31.774c10.326,17.754,16.189,36.89,17.619,57.247c0.962,13.716,2.176,27.656,0.763,41.234
		c-1.793,17.232-5.412,34.378-9.555,51.238c-5.4,21.982-14.413,42.749-25.17,62.637c-11.32,20.93-23.756,41.12-39.449,59.255
		c-17.537,20.266-38.173,36.288-62.151,47.986c-19.516,9.521-40.066,16.125-61.665,18.73c-18.608,2.244-37.311,3.697-55.971,5.501
		C321.643,443.613,321.599,442.806,321.554,441.999z"/>
</g>
</svg>
